<svg width="26" height="26" viewBox="0 0 26 26" fill="none" xmlns="http://www.w3.org/2000/svg">
<path d="M0 21.6852C0.0413646 21.5245 0.0800158 21.3624 0.124093 21.2017C0.313906 20.5232 0.680893 19.9074 1.18737 19.4176C5.88439 14.7238 10.5803 10.0288 15.275 5.33265C15.3709 5.24805 15.4712 5.16861 15.5755 5.09464C15.368 4.89934 15.1998 4.75016 15.0418 4.59013C14.6709 4.2131 14.6729 3.78657 15.0486 3.40886C16.0883 2.36683 17.1292 1.32707 18.1712 0.289563C18.5469 -0.0854301 18.9795 -0.0962787 19.3545 0.278037C21.4793 2.39825 23.6027 4.52164 25.7247 6.64818C26.0976 7.02182 26.0888 7.45581 25.7138 7.83216C24.6741 8.87509 23.6343 9.91485 22.5945 10.9515C22.2175 11.3264 21.7896 11.3271 21.4119 10.9582C21.2553 10.805 21.1047 10.6443 20.8735 10.4076C20.8057 10.5195 20.763 10.63 20.687 10.706C16.0185 15.3799 11.3486 20.0532 6.67732 24.7259C6.03041 25.3734 5.29466 25.8258 4.37922 25.96C4.35752 25.96 4.33853 25.9865 4.31819 26H3.30103C3.26564 25.98 3.22811 25.9641 3.18914 25.9526C1.61186 25.6447 0.597413 24.7136 0.12545 23.1832C0.0766266 23.0252 0.0427207 22.8617 0.00203424 22.701L0 21.6852ZM14.4966 8.34277C14.9991 8.84389 15.5137 9.35519 16.0278 9.87123C16.3994 10.2462 16.4014 10.685 16.0278 11.0559C12.8718 14.2145 9.71434 17.3713 6.55527 20.5263C6.46141 20.6235 6.34914 20.7009 6.22503 20.7542C5.89818 20.8817 5.61473 20.784 5.37265 20.5406C4.85525 20.0211 4.33582 19.5037 3.85504 19.023C3.23322 19.6177 2.57477 20.1493 2.03771 20.7861C1.06192 21.9388 1.51557 23.6714 2.89688 24.2831C3.78316 24.6757 4.7515 24.4716 5.49471 23.7284C10.2134 19.0114 14.9315 14.2936 19.6488 9.5749C19.7072 9.51658 19.7628 9.45555 19.798 9.41825L16.6028 6.22165L14.4966 8.34277ZM13.4082 9.45419L4.95018 17.9075L5.92259 18.8772L14.3806 10.4205L13.4082 9.45419ZM20.9352 4.0673L18.8582 6.14164L19.8543 7.14727L21.9442 5.07429L20.9352 4.0673ZM18.751 1.90956L16.6814 3.98322L17.7047 5.01327L19.7811 2.93758L18.751 1.90956ZM23.0909 6.24945L21.0118 8.317L22.0087 9.31789L24.0843 7.24356L23.0909 6.24945Z" fill="#1C7ADC"/>
</svg>
