<svg width="52" height="52" viewBox="0 0 52 52" fill="none" xmlns="http://www.w3.org/2000/svg">
<path d="M0.0068864 48.6087V50.4348C-0.00807885 50.8405 0.141019 51.2352 0.420524 51.5297C0.700028 51.8242 1.08638 51.9937 1.49235 52H31.4426C31.8462 51.9939 32.2305 51.8264 32.5096 51.5348C32.7888 51.2433 32.9395 50.8521 32.9281 50.4487V48.5697C32.7184 43.9591 30.4382 43.1149 30.2016 43.0404L29.6972 42.8671C30.42 41.4749 30.5253 39.8432 29.9872 38.3697C29.4492 36.8962 28.3173 35.7162 26.8675 35.1173V33.3224C27.4118 32.9049 27.7319 32.2587 27.7342 31.5726V27.3606C27.7319 26.6746 27.4118 26.0284 26.8675 25.6108V21.5973C26.8675 16.2014 22.3964 12.1333 16.4675 12.1333C10.5386 12.1333 6.06749 16.2014 6.06749 21.5973V25.6108C5.52314 26.0284 5.20306 26.6746 5.20082 27.3606V31.5726C5.20306 32.2587 5.52314 32.9049 6.06749 33.3224V35.1173C4.61722 35.7159 3.48499 36.8961 2.94692 38.3699C2.40885 39.8437 2.51439 41.4757 3.23782 42.8679L2.75595 43.0335C2.49682 43.1149 0.21662 43.9591 0.0068864 48.6087V48.6087ZM28.041 42.2994L21.6675 40.1136V37.0855C22.3274 36.0432 22.8922 34.9436 23.3549 33.8H25.1342V38.1333C25.1342 38.612 25.5222 39 26.0008 39C26.4795 39 26.8675 38.612 26.8675 38.1333V37.063C28.5964 38.2135 29.1135 40.521 28.041 42.2994V42.2994ZM15.7863 17.3333H17.1487C21.5514 17.3333 25.1342 20.5018 25.1342 24.3958V25.1333H23.6062C22.7526 24.4998 19.2963 22.5983 17.4234 21.1397C16.8608 20.7034 16.0742 20.7034 15.5116 21.1397C13.4437 22.7482 10.3367 24.3923 9.32962 25.1333H7.80082V24.3958C7.80082 20.5018 11.3836 17.3333 15.7863 17.3333V17.3333ZM20.7506 35.2421C18.7416 38.8943 16.237 40.4733 13.5451 37.2666H16.4675C16.9461 37.2666 17.3342 36.8786 17.3342 36.4C17.3342 35.9213 16.9461 35.5333 16.4675 35.5333H12.3534C11.8162 34.5951 11.3526 33.6166 10.9668 32.6066C10.2518 30.7614 10.4008 31.2364 10.4008 26.4931C11.245 25.9012 14.547 24.0578 16.4675 22.5931C18.4608 24.1184 21.963 26.0598 22.5342 26.4931C22.5342 30.849 22.5844 30.8464 22.3825 31.4556C21.9505 32.7632 21.4044 34.0302 20.7506 35.2421V35.2421ZM7.42815 32.0666C7.29678 32.0678 7.17045 32.0161 7.07755 31.9232C6.98466 31.8303 6.93299 31.704 6.93415 31.5726V27.3606C6.93299 27.2293 6.98466 27.1029 7.07755 27.01C7.17045 26.9171 7.29678 26.8655 7.42815 26.8666H8.66749C8.66749 30.699 8.59035 31.0396 8.90669 32.0016C8.93789 32.0952 9.10082 32.0666 7.42815 32.0666ZM24.0292 31.9999C24.3464 31.0336 24.2675 30.68 24.2675 26.8666H25.5068C25.6382 26.8655 25.7645 26.9171 25.8574 27.01C25.9503 27.1029 26.002 27.2293 26.0008 27.3606V31.5726C26.002 31.704 25.9503 31.8303 25.8574 31.9232C25.7645 32.0161 25.6382 32.0678 25.5068 32.0666C23.7787 32.0666 23.998 32.0935 24.0292 31.9999ZM9.58009 33.8C9.80369 34.3382 10.0706 34.9266 10.3792 35.5333H9.53415C8.57686 35.5333 7.80082 34.7573 7.80082 33.8H9.58009ZM13.0008 39.201C15.1389 41.1848 17.6644 41.307 19.9342 39.201V40.1266C19.954 41.0295 19.5859 41.8975 18.923 42.5107C18.26 43.1239 17.366 43.4234 16.4675 43.3333C15.5711 43.414 14.6824 43.1113 14.0217 42.5002C13.361 41.889 12.9901 41.0266 13.0008 40.1266V39.201ZM24.5778 18.7364C22.642 16.7082 19.9523 15.5726 17.1487 15.6H15.7863C12.9827 15.5726 10.293 16.7082 8.35722 18.7364C11.0075 12.2295 21.9223 12.22 24.5778 18.7364V18.7364ZM6.06749 37.063V38.1333C6.06749 38.612 6.45551 39 6.93415 39C7.4128 39 7.80082 38.612 7.80082 38.1333V36.7848C8.84602 37.3914 9.57662 37.2666 11.2675 37.2666V40.1145L4.89402 42.3002C3.82138 40.5216 4.33846 38.2139 6.06749 37.063ZM3.29415 44.681L11.5769 41.8401C12.2777 43.9072 14.2913 45.2357 16.4675 45.0667C18.643 45.2349 20.6557 43.9065 21.3564 41.8401L29.6313 44.6775C29.646 44.6836 31.0422 45.2842 31.1913 48.6087V50.2667H1.73935V48.6477C1.89275 45.2807 3.29415 44.681 3.29415 44.681V44.681Z" fill="#009DD9"/>
<path d="M49.3418 0H31.2614C29.7932 0.00190982 28.6035 1.19163 28.6016 2.6598V20.7402C28.603 22.1854 29.7568 23.3657 31.2016 23.4V27.2844C31.2011 27.7865 31.4866 28.2451 31.9374 28.4661C32.3882 28.6872 32.9256 28.6322 33.3223 28.3244L39.7538 23.4H49.3418C50.8099 23.3981 51.9996 22.2084 52.0016 20.7402V2.6598C51.9996 1.19163 50.8099 0.00190982 49.3418 0V0ZM50.2682 20.7402C50.2677 21.2517 49.8532 21.6662 49.3418 21.6667H36.4016C35.9229 21.6667 35.5349 22.0547 35.5349 22.5333C35.5349 23.012 35.9229 23.4 36.4016 23.4H36.9025L32.9349 26.4333V23.4C33.4135 23.4 33.8016 23.012 33.8016 22.5333C33.8016 22.0547 33.4135 21.6667 32.9349 21.6667H31.2614C30.7499 21.6662 30.3354 21.2517 30.3349 20.7402V2.6598C30.3354 2.14833 30.7499 1.73381 31.2614 1.73333H49.3418C49.8532 1.73381 50.2677 2.14833 50.2682 2.6598V20.7402Z" fill="#009DD9"/>
<path d="M40.7339 5.20001C41.2125 5.20001 41.6005 4.81199 41.6005 4.33334C41.6005 3.8547 41.2125 3.46667 40.7339 3.46667C40.2552 3.46667 39.8672 3.8547 39.8672 4.33334C39.8672 4.81199 40.2552 5.20001 40.7339 5.20001Z" fill="#F35150"/>
<path d="M39 11.2667C39 11.7453 39.388 12.1334 39.8667 12.1334H41.6C42.0787 12.1334 42.4667 11.7453 42.4667 11.2667C42.4667 10.788 42.0787 10.4 41.6 10.4V7.80002C41.6 7.32137 41.212 6.93335 40.7333 6.93335H39.8667C39.388 6.93335 39 7.32137 39 7.80002C39 8.27866 39.388 8.66668 39.8667 8.66668V10.4C39.388 10.4 39 10.788 39 11.2667Z" fill="#F35150"/>
<path d="M45.9341 13.8666H34.6674C34.1888 13.8666 33.8008 14.2547 33.8008 14.7333C33.8008 15.212 34.1888 15.6 34.6674 15.6H45.9341C46.4128 15.6 46.8008 15.212 46.8008 14.7333C46.8008 14.2547 46.4128 13.8666 45.9341 13.8666Z" fill="#F35150"/>
<path d="M42.4674 17.3333H34.6674C34.1888 17.3333 33.8008 17.7213 33.8008 18.2C33.8008 18.6786 34.1888 19.0666 34.6674 19.0666H42.4674C42.9461 19.0666 43.3341 18.6786 43.3341 18.2C43.3341 17.7213 42.9461 17.3333 42.4674 17.3333Z" fill="#F35150"/>
</svg>
