<svg width="26" height="26" viewBox="0 0 26 26" fill="none" xmlns="http://www.w3.org/2000/svg">
<path d="M14.321 0H22.3936C22.4119 0.0166871 22.4316 0.0316757 22.4526 0.0447749C22.8379 0.231327 23.0191 0.551518 22.9431 0.916482C22.8651 1.2923 22.5557 1.52159 22.1216 1.52295H21.4432V9.17092H22.9499C22.9499 8.39825 22.9499 7.64594 22.9499 6.89362C22.9499 6.69212 23.0299 6.49887 23.1724 6.35638C23.3149 6.2139 23.5081 6.13385 23.7097 6.13385C23.9112 6.13385 24.1044 6.2139 24.2469 6.35638C24.3894 6.49887 24.4694 6.69212 24.4694 6.89362C24.4742 7.13851 24.4694 7.38409 24.4694 7.62966V9.18992C24.6729 9.18992 24.8507 9.20348 25.025 9.18992C25.4856 9.14514 25.8072 9.32559 25.9931 9.75093V13.2038C25.702 13.9419 25.0345 13.7255 24.4844 13.7689V24.477C24.675 24.477 24.852 24.4906 25.0271 24.477C25.4877 24.4329 25.8085 24.6127 25.9937 25.0381V25.4451C25.833 25.7768 25.6077 26.0047 25.2027 26.0047C17.0623 26.0047 8.9218 26.0047 0.781325 26.0047C0.326815 26.0047 -0.00219557 25.6873 -0.00626581 25.2585C-0.0110144 24.8128 0.317318 24.4899 0.782682 24.4859C1.02418 24.4859 1.26568 24.4859 1.50379 24.4859V13.7676C1.24872 13.7676 1.00519 13.7676 0.762331 13.7676C0.315283 13.7615 -0.00423054 13.4453 -0.00558729 12.999C-0.00920528 11.9923 -0.00920528 10.9853 -0.00558729 9.97818C-0.00558729 9.51621 0.312569 9.20348 0.775898 9.19874C1.01808 9.19874 1.25958 9.19874 1.51668 9.19874V8.01836C1.51668 7.6378 1.51193 7.25656 1.51668 6.87599C1.52101 6.70304 1.58434 6.53677 1.69617 6.40476C1.80799 6.27275 1.96159 6.18295 2.13147 6.15024C2.30135 6.11753 2.47732 6.14388 2.63016 6.22493C2.78301 6.30597 2.90355 6.43684 2.97179 6.59582C3.01524 6.71393 3.03662 6.83902 3.03488 6.96485C3.04099 7.69885 3.03488 8.43217 3.03488 9.17567H4.54087V1.52227C4.26952 1.52227 4.01716 1.52837 3.76481 1.52227C3.5707 1.51469 3.38721 1.43171 3.25331 1.29097C3.11942 1.15024 3.04568 0.962839 3.04777 0.768597C3.04777 0.373784 3.28588 0.15806 3.60607 0.00339103H11.6787C11.697 0.0200782 11.7167 0.0350667 11.7377 0.0481659C12.123 0.234718 12.3035 0.554909 12.2282 0.919873C12.1509 1.29569 11.8408 1.52498 11.4074 1.52634H10.729V9.17635H15.2653V1.52227C14.9939 1.52227 14.7409 1.52837 14.4878 1.52227C14.2914 1.51746 14.1047 1.43533 13.9684 1.29371C13.8321 1.15208 13.7572 0.962414 13.76 0.765885C13.7593 0.369716 14.0008 0.158061 14.321 0ZM10.7154 13.7662V14.0647C10.7154 16.0094 10.7154 17.9556 10.7154 19.9035C10.7153 20.089 10.6992 20.2742 10.6673 20.457C10.5293 21.2091 10.1145 21.8821 9.50467 22.3434C8.89485 22.8046 8.1343 23.0206 7.37307 22.9487C5.80739 22.8082 4.57546 21.4685 4.57479 19.9014C4.57479 17.9568 4.57479 16.0105 4.57479 14.0627V13.7771H3.06405V24.4574H22.9329V13.7757H21.4296V14.0647C21.4296 16.0094 21.4296 17.9556 21.4296 19.9035C21.429 20.0806 21.4133 20.2574 21.3828 20.4319C21.1061 21.9976 19.6387 23.0925 18.0201 22.9466C16.4938 22.811 15.289 21.4657 15.2883 19.8987C15.2883 17.954 15.2883 16.008 15.2883 14.0606V13.7669L10.7154 13.7662ZM1.53635 12.2209H24.4565V10.7285H1.53635V12.2209ZM6.12351 13.7723C6.10859 13.7988 6.10113 13.8056 6.10113 13.813C6.10113 15.8597 6.07942 17.9063 6.1052 19.953C6.11673 20.8918 7.03389 21.5668 7.95783 21.3877C8.70404 21.2426 9.19044 20.6273 9.19111 19.8146C9.19473 17.8609 9.19473 15.9072 9.19111 13.9534V13.7723H6.12351ZM19.9067 13.7784H16.8126C16.8126 15.8597 16.8059 17.9226 16.8187 19.9849C16.8205 20.1896 16.8682 20.3912 16.9583 20.575C17.0485 20.7588 17.1789 20.9199 17.3397 21.0465C17.8336 21.4535 18.3865 21.5444 18.9726 21.2778C19.5743 21.0065 19.8972 20.5194 19.9026 19.8587C19.9148 18.4463 19.9067 17.0339 19.9067 15.6216V13.7784ZM19.8891 6.13249V1.5433H16.8215V6.13249H19.8891ZM6.10384 4.60072H9.17619V1.53923H6.10384V4.60072ZM9.17212 9.18042V6.15759H6.11062V9.18042H9.17212ZM16.8201 9.17228H19.8863V7.67986H16.8201V9.17228Z" fill="#1C7ADC"/>
</svg>
