<svg width="52" height="51" viewBox="0 0 52 51" fill="none" xmlns="http://www.w3.org/2000/svg">
<path d="M12.1115 38.7022C12.4705 39.8094 12.6905 40.9224 13.1768 41.9051C15.3202 46.273 18.8762 48.4541 23.742 48.5048C23.9591 48.5048 24.1762 48.4816 24.3919 48.4918C24.884 48.5149 25.1474 48.8087 25.2125 49.2719C25.2251 49.3804 25.2157 49.4905 25.1848 49.5953C25.1539 49.7002 25.1022 49.7978 25.0328 49.8822C24.9633 49.9666 24.8776 50.0362 24.7806 50.0868C24.6837 50.1373 24.5776 50.1678 24.4686 50.1764C23.8401 50.2413 23.2073 50.2519 22.577 50.2082C18.4551 49.8609 15.1523 48.0373 12.7513 44.6463C12.5081 44.3033 12.278 44.3756 11.9712 44.4466C8.37752 45.2599 5.16886 44.5913 2.61872 41.8067C-1.43372 37.3866 -1.04584 29.7348 5.66528 26.584C6.07921 26.3901 6.1921 26.1657 6.1892 25.7359C6.17184 22.793 6.17184 19.8502 6.1892 16.9074C6.1892 16.5716 6.10092 16.3979 5.78251 16.2604C5.00676 15.9246 4.33522 15.4427 4.34824 14.4875C4.36127 13.5323 5.06176 13.0474 5.84764 12.7579C8.30805 11.8476 10.7858 11.8765 13.2549 12.7579C13.3554 12.7977 13.4523 12.8462 13.5444 12.9027C14.1826 13.2645 14.7196 13.7204 14.7181 14.5251C14.7167 15.3298 14.2101 15.8508 13.5342 16.1258C12.9553 16.3617 12.8613 16.7047 12.867 17.2706C12.8945 20.1233 12.8873 22.9759 12.867 25.8271C12.867 26.2091 12.9756 26.3915 13.3374 26.5406C13.883 26.7635 14.3925 27.0775 14.9569 27.3742C16.1217 26.3942 17.4393 25.6119 18.8574 25.0585C18.9761 25.0122 19.0499 24.7068 19.0499 24.523C19.06 20.4243 19.0282 16.3255 19.0788 12.2282C19.0919 11.2035 19.0644 10.3757 17.8457 10.1079C17.5563 10.0443 17.2943 9.76928 17.0642 9.54495C16.2262 8.72433 16.2479 7.62438 17.1207 6.8327C18.0252 6.01498 19.1556 5.69224 20.3163 5.47804C22.8751 5.00332 25.4209 5.04385 27.9074 5.86736C28.5212 6.07507 29.0935 6.38963 29.5978 6.79652C30.5936 7.60556 30.5936 8.80827 29.605 9.63613C29.1593 10.0095 28.5789 10.215 28.0781 10.532C27.9334 10.6246 27.7395 10.8215 27.7395 10.9662C27.7221 15.6217 27.7173 20.2805 27.725 24.9428C27.8783 24.999 28.0264 25.0682 28.1679 25.1497C28.5109 25.3885 28.673 25.72 28.5442 26.1339C28.4154 26.5478 28.123 26.8271 27.7033 26.7461C27.2099 26.6631 26.7362 26.4889 26.3067 26.2323C26.1026 26.102 26.0056 25.6736 26.0042 25.3784C25.9839 21.8224 25.9911 18.2664 25.9911 14.7089C25.9911 13.2298 25.9911 11.7497 25.9911 10.2686C25.9911 9.50876 26.1634 9.32785 26.8972 9.07602C27.4761 8.87629 28.0347 8.6013 28.6006 8.35237V8.12659C28.3112 7.94568 28.0304 7.6924 27.7105 7.59543C24.9076 6.69593 21.8934 6.69593 19.0904 7.59543C18.7677 7.69819 18.4912 7.95147 18.1945 8.13527L18.1815 8.35816C18.7272 8.59407 19.2598 8.86616 19.8213 9.05576C20.6506 9.33509 20.7896 9.48271 20.7896 10.3583V25.2525C20.7896 26.1136 20.6665 26.2497 19.8705 26.5478C15.3414 28.246 12.7797 31.4971 12.1854 36.3012C12.1651 36.4632 12.2765 36.7455 12.4068 36.8063C13.7427 37.4445 15.1089 38.0032 16.604 38.1494C17.8096 38.2666 18.8487 37.9265 19.7142 37.0769C20.0041 36.8029 20.2786 36.513 20.5363 36.2085C22.1674 34.1997 24.2529 33.4934 26.7958 33.8929C29.7064 34.3444 32.3549 35.3836 34.7039 37.1681C34.8685 37.2794 35.0187 37.4107 35.1511 37.5589C35.2811 37.7011 35.3552 37.8855 35.3597 38.0782C35.3643 38.2708 35.2989 38.4585 35.1757 38.6067C35.0665 38.7773 34.8959 38.8993 34.6992 38.9475C34.5026 38.9957 34.2949 38.9665 34.1192 38.8658C33.9769 38.7886 33.8426 38.6974 33.7183 38.5937C31.3491 36.7744 28.6643 35.7917 25.6959 35.524C24.4382 35.4111 23.3802 35.7758 22.5118 36.689C22.2398 36.9785 21.959 37.2607 21.7028 37.5574C19.9501 39.6357 17.7242 40.2668 15.1306 39.6531C14.1711 39.4259 13.2274 39.0583 12.1115 38.7022ZM6.24275 14.5729C6.49893 14.68 6.72181 14.79 6.95627 14.8623C7.82465 15.1518 7.91149 15.2632 7.91149 16.1649V26.6115C7.91149 27.4307 7.78124 27.6043 7.0243 27.8822C4.27443 28.8953 2.53767 30.8318 1.91389 33.6946C1.64035 34.9508 1.57666 34.6223 2.66792 35.1245C2.92844 35.2446 3.20777 35.3257 3.47987 35.414C4.96914 35.9292 6.24564 35.6557 7.27033 34.4095C7.43098 34.2156 7.61769 34.0419 7.79137 33.8596C8.63369 32.9796 9.65259 32.502 10.8799 32.557C11.2244 32.5729 11.3141 32.4007 11.4689 32.146C12.1029 31.0605 12.7715 29.9967 13.4315 28.9257C13.4923 28.8259 13.5574 28.7274 13.6645 28.5567C13.0219 28.2889 12.4328 28.0255 11.8308 27.7954C11.3966 27.6275 11.1462 27.3612 11.1462 26.872C11.1462 23.192 11.1462 19.511 11.1462 15.8291C11.1462 15.3472 11.3922 15.062 11.8395 14.9173C12.1608 14.8131 12.4763 14.6944 12.8366 14.5656C11.3937 13.5728 7.67703 13.5728 6.24275 14.5714V14.5729ZM11.6166 42.7112C10.4052 40.0222 10.0897 37.2274 10.7713 34.1606C10.2561 34.3734 9.84943 34.4703 9.52957 34.6903C9.16563 34.9572 8.8386 35.2711 8.55698 35.6238C7.4773 36.9018 6.11105 37.5256 4.4481 37.3432C3.60432 37.2506 2.77937 36.9915 1.9602 36.8121C2.60135 41.2509 7.61769 44.0717 11.6166 42.7112Z" fill="#009DD9"/>
<path d="M38.129 27.9285C38.129 29.1239 38.0711 30.2977 38.1435 31.4642C38.2376 33.0056 37.4387 33.8798 35.7902 33.7929C34.3328 33.7162 32.8667 33.7799 31.4049 33.7756C30.1573 33.7756 29.4641 33.078 29.4626 31.8289C29.4626 28.5802 29.4626 25.3306 29.4626 22.0799C29.4626 20.6949 29.8389 20.1984 31.1994 19.8511C31.1994 19.0681 31.1994 18.275 31.1994 17.4833C31.1994 16.7683 31.5134 16.4514 32.2125 16.4456C33.2584 16.4369 34.3053 16.4369 35.3531 16.4456C36.084 16.4456 36.3879 16.7655 36.3923 17.5166C36.3923 18.2909 36.3923 19.0667 36.3923 19.8728C38.0292 20.1087 38.2361 21.2651 38.116 22.6111C43.0122 23.3044 46.5494 25.8878 48.7218 30.2297C50.8942 34.5716 50.8349 38.9439 48.4179 43.3104C49.0214 43.3104 49.5757 43.3104 50.1185 43.3104C51.2633 43.3191 51.9826 44.0253 51.9913 45.1615C51.999 46.246 51.999 47.3295 51.9913 48.4121C51.9811 49.5207 51.2676 50.24 50.1503 50.24C42.7112 50.24 35.2726 50.24 27.8344 50.24C26.7243 50.24 26.0036 49.5164 25.9935 48.4107C25.9862 47.4178 25.9935 46.425 25.9935 45.4321C25.9935 44.0977 26.3987 43.581 27.7302 43.2612C27.7302 42.4782 27.7302 41.6851 27.7302 40.8934C27.7302 40.1553 28.0443 39.8484 28.794 39.8484C32.115 39.8484 35.4371 39.8484 38.7601 39.8484C39.4388 39.8484 39.8441 40.1799 39.8455 40.7168C39.847 41.2538 39.4374 41.5852 38.7615 41.5852H29.4887V43.2872C29.6334 43.2973 29.7955 43.3176 29.9504 43.3176C33.6887 43.3176 37.4257 43.3176 41.1626 43.3089C41.4246 43.3039 41.6782 43.2152 41.8862 43.0556C44.5724 40.7993 45.5464 37.8975 44.7808 34.5166C44.0152 31.1357 41.8993 28.8953 38.488 27.9849C38.3694 27.9598 38.2496 27.941 38.129 27.9285ZM27.7534 48.4801H50.2183V45.0703H27.7534V48.4801ZM44.1469 43.3176C44.8127 43.3176 45.3511 43.2988 45.8837 43.3176C46.0237 43.3344 46.1656 43.3084 46.2906 43.243C46.4157 43.1777 46.518 43.076 46.5842 42.9514C48.4468 40.0872 48.9476 36.99 48.1762 33.6815C47.6445 31.3255 46.4204 29.1822 44.6613 27.5273C42.9021 25.8723 40.6882 24.7812 38.3042 24.3942C37.6822 24.2941 37.0525 24.25 36.4227 24.2625C35.8568 24.2711 35.5413 24.6113 35.5282 25.0845C35.5152 25.5578 35.7989 25.8748 36.3691 25.9529C36.5645 25.9819 36.7657 25.979 36.964 25.9891C43.3842 26.322 48.017 32.5468 46.4973 38.7832C46.0979 40.4505 45.3236 41.9137 44.1469 43.3104V43.3176ZM36.3648 22.4591V21.6805H31.2356V32.0012H36.3749V27.7548C34.7293 27.4176 33.8378 26.4956 33.8204 25.1337C33.8031 23.7718 34.6932 22.8296 36.3648 22.4591ZM32.9665 18.2026V19.8685H34.6367V18.2026H32.9665Z" fill="#009DD9"/>
<path d="M15.6099 0C16.2935 0.00941495 16.9463 0.285852 17.4288 0.770225C17.9113 1.2546 18.1852 1.90848 18.1919 2.59211C18.176 3.27567 17.8937 3.92597 17.4051 4.40429C16.9165 4.8826 16.2604 5.15106 15.5766 5.15238C14.893 5.14259 14.2404 4.86579 13.7582 4.38114C13.276 3.8965 13.0024 3.24246 12.9961 2.55882C13.0119 1.87565 13.2941 1.22572 13.7825 0.747672C14.2708 0.26963 14.9266 0.00132621 15.6099 0ZM16.4551 2.56461C16.4443 2.33745 16.3461 2.12326 16.181 1.96682C16.016 1.81038 15.7968 1.7238 15.5694 1.72518C15.3516 1.7363 15.1457 1.82761 14.9912 1.98153C14.8368 2.13546 14.7447 2.34109 14.7329 2.55882C14.7358 2.78648 14.8268 3.00414 14.9869 3.16608C15.1469 3.32801 15.3635 3.4216 15.5911 3.4272C15.8186 3.42277 16.0356 3.33051 16.1967 3.16974C16.3577 3.00896 16.4503 2.79213 16.4551 2.56461Z" fill="#F35150"/>
<path d="M12.9932 6.91668C12.9793 7.59989 12.6992 8.25068 12.2126 8.7305C11.726 9.21031 11.0714 9.48125 10.3881 9.48563C9.70442 9.47813 9.05085 9.20352 8.56702 8.7205C8.08319 8.23748 7.80748 7.58437 7.79883 6.90076C7.81204 6.21744 8.09193 5.56638 8.5787 5.08664C9.06547 4.60691 9.72053 4.33652 10.404 4.33325C11.0873 4.34075 11.7407 4.61516 12.2245 5.09787C12.7083 5.58058 12.9842 6.23332 12.9932 6.91668ZM10.3881 7.75901C10.6156 7.75572 10.833 7.66455 10.9949 7.50459C11.1568 7.34462 11.2505 7.12825 11.2564 6.90076C11.2465 6.68277 11.1563 6.47617 11.0032 6.32067C10.8501 6.16518 10.6449 6.07178 10.4271 6.05843C10.1998 6.05545 9.98 6.14031 9.81364 6.29534C9.64729 6.45037 9.54717 6.66361 9.53414 6.89063C9.53705 7.11804 9.6279 7.33549 9.78764 7.49739C9.94737 7.65928 10.1636 7.75304 10.3909 7.75901H10.3881Z" fill="#F35150"/>
</svg>
