<svg width="52" height="52" viewBox="0 0 52 52" fill="none" xmlns="http://www.w3.org/2000/svg">
<path d="M40.8848 43.3977V39.9683H32.3892C32.3892 40.2325 32.3963 40.4752 32.3892 40.7179C32.3692 41.3484 32.0561 41.66 31.4242 41.6758C31.1224 41.6844 30.8207 41.6758 30.519 41.6758H16.5707C15.5971 41.6758 15.3523 41.4259 15.3523 40.4336C15.3523 39.4656 15.3523 38.4991 15.3523 37.5312C15.3523 36.8318 15.6683 36.5188 16.3686 36.5188C21.3757 36.5188 26.3824 36.5188 31.3886 36.5188C32.0831 36.5188 32.3849 36.8376 32.3963 37.5427C32.3963 37.7538 32.3963 37.9664 32.3963 38.2062H40.8948C40.9033 38.0066 40.9189 37.8184 40.9189 37.6317C40.9189 33.6193 40.8948 29.6068 40.9332 25.5943C40.9474 24.0045 39.907 22.4765 37.5173 22.7666C37.3975 22.7927 37.2875 22.8525 37.1999 22.9389C36.6024 23.4774 35.9043 23.8899 35.1466 24.1523C34.389 24.4147 33.5869 24.5217 32.7877 24.4669C32.702 24.4672 32.6165 24.4724 32.5315 24.4827C32.3336 25.2367 32.1387 25.9935 31.9337 26.7475C31.7202 27.5345 31.3758 27.7312 30.5987 27.5287L29.1754 27.1625C28.9747 27.8992 28.784 28.5986 28.5932 29.3052C28.3385 30.2329 28.0481 30.4038 27.1287 30.1669L26.6462 30.039C26.4611 30.7356 26.2775 31.4191 26.0982 32.1027C25.8306 33.1195 25.5289 33.2961 24.5326 33.0233L21.9707 32.3282C21.0754 32.0855 20.889 31.7538 21.1352 30.839C21.3188 30.1496 21.5038 29.4603 21.7045 28.7178C21.4497 28.6388 21.2192 28.5742 20.9929 28.4967C20.3694 28.297 20.1688 27.9481 20.3253 27.3191C20.5203 26.5407 20.7267 25.7652 20.9402 24.938C20.4506 24.8016 19.9937 24.6781 19.5382 24.5488C18.7569 24.3276 18.5562 23.9887 18.7626 23.206C20.1858 17.8149 21.6158 12.4252 23.0524 7.03692C23.2573 6.26429 23.6217 6.07186 24.4045 6.28009L26.6177 6.87177C26.8355 6.06611 27.0561 5.28056 27.2482 4.48927C27.2753 4.38156 27.1728 4.22646 27.0988 4.11444C26.489 3.19545 26.2545 2.07441 26.4441 0.985166C26.5764 0.130683 26.9906 -0.145051 27.8218 0.0775455C30.3913 0.764962 32.9599 1.45621 35.5275 2.15128C36.3815 2.38106 36.5893 2.79897 36.2904 3.6276C35.9218 4.64809 35.1923 5.49509 34.2423 6.00579C34.0306 6.13991 33.87 6.34237 33.7868 6.58024C33.5705 7.24085 33.4125 7.92013 33.2175 8.64536C33.942 8.84354 34.6408 9.03742 35.334 9.2198C36.2449 9.46681 36.437 9.79425 36.1993 10.6961C36.0086 11.4142 35.815 12.1452 35.63 12.8345C36.215 13.2581 36.7501 13.6961 37.3379 14.0466C37.5842 14.1902 37.95 14.1471 38.2631 14.1514C41.6662 14.183 44.517 15.4626 46.7516 18.0533C48.572 20.1629 49.4416 22.6488 49.4431 25.4464C49.4431 31.592 49.4407 37.7366 49.4359 43.8802C49.4239 44.0613 49.4565 44.2426 49.5311 44.4078C49.6056 44.573 49.7196 44.7169 49.8629 44.8266C51.2449 45.9942 51.9395 47.5179 51.9979 49.3331C52.0149 49.9076 52.0107 50.482 51.9979 51.0565C51.9836 51.6582 51.6648 51.9698 51.067 51.9957C50.9432 51.9957 50.8194 51.9957 50.6941 51.9957C35.9422 51.9957 21.1874 51.9957 6.42972 51.9957C5.33805 51.9957 5.08329 51.776 5.13025 50.6845C5.1758 49.6534 5.15872 48.5835 5.43484 47.6084C6.16641 45.0234 8.47642 43.402 11.2148 43.3991C18.1036 43.3915 24.9923 43.3915 31.881 43.3991H40.8848V43.3977ZM6.84959 50.2408H50.26C50.529 47.1675 48.6859 45.1182 45.6856 45.1182C34.2707 45.1182 22.8555 45.1206 11.4397 45.1253C10.9086 45.1161 10.3788 45.1814 9.86555 45.3192C7.779 45.931 6.66599 47.7692 6.84959 50.2408ZM38.6488 20.9987C38.7009 21.0281 38.7552 21.0536 38.8111 21.0749C41.4555 21.6665 42.6169 23.1328 42.6169 25.8801V43.4853H47.7308V43.2886C47.7308 37.2569 47.7707 31.2181 47.7123 25.1836C47.6824 21.9595 46.2506 19.4018 43.646 17.5449C42.1757 16.5023 40.5147 15.9738 38.6545 15.9006C39.3889 17.6253 39.3946 19.3099 38.6488 20.9987ZM30.8819 24.0146C27.7179 22.4349 26.9408 19.4391 27.3962 17.2649C27.6332 16.0609 28.235 14.9609 29.1184 14.1169C30.472 12.8244 32.1073 12.329 33.9576 12.4554C34.1085 11.8665 34.2423 11.3223 34.3846 10.7521L24.5226 8.08671C23.1876 13.1131 21.8739 18.0662 20.5516 23.0438L30.4336 25.702L30.8819 24.0146ZM28.9861 18.4798C28.9947 19.6212 29.4519 20.7125 30.2573 21.5141C31.0626 22.3156 32.1503 22.762 33.2816 22.7551C34.4133 22.7437 35.4942 22.2795 36.2869 21.4644C37.0795 20.6492 37.519 19.5499 37.5087 18.408C37.4934 17.2756 37.0368 16.1948 36.2377 15.3996C35.4386 14.6043 34.3613 14.1585 33.2389 14.1586C32.1072 14.1631 31.0235 14.6208 30.2261 15.4311C29.4287 16.2414 28.9827 17.3379 28.9861 18.4798ZM17.0717 39.9195H30.6599V38.2665H17.0717V39.9195ZM28.1591 1.95166C28.1659 2.43739 28.3225 2.90893 28.6071 3.30067C28.8918 3.69242 29.2904 3.9849 29.7475 4.13742C30.4151 4.36432 31.1053 4.53522 31.7928 4.69607C32.7663 4.92297 34.0074 4.3873 34.2921 3.60893L28.1591 1.95166ZM22.1543 27.0318L27.0817 28.3617C27.234 27.7872 27.3664 27.2674 27.5243 26.7015L22.5812 25.3774L22.1543 27.0318ZM28.2602 7.32414L31.5608 8.20017L31.9878 6.52854L28.7142 5.64964C28.5591 6.19392 28.4167 6.72385 28.2602 7.32414ZM23.3498 29.14C23.1918 29.7375 23.0552 30.2487 22.91 30.7959L24.5497 31.2425L24.9766 29.5867L23.3498 29.14Z" fill="#009DD9"/>
<path d="M11.0826 21.039V26.8753C11.0826 28.5986 11.0826 30.3148 11.0826 32.0353C11.0826 32.7691 11.3914 33.075 12.1244 33.0764C14.2024 33.0764 16.28 33.0764 18.357 33.0764C18.4994 33.0764 18.6417 33.0764 18.784 33.0764C18.9992 33.0857 19.2029 33.1767 19.3544 33.3312C19.5059 33.4857 19.594 33.6922 19.601 33.9094C19.6064 34.0223 19.589 34.1351 19.5497 34.241C19.5104 34.3468 19.4502 34.4435 19.3727 34.5251C19.2952 34.6067 19.202 34.6714 19.0988 34.7155C18.9956 34.7595 18.8846 34.7818 18.7726 34.7811C16.4114 34.794 14.0487 34.827 11.6889 34.7639C10.361 34.728 9.38316 33.546 9.38032 32.1444C9.37368 28.6326 9.37368 25.1214 9.38032 21.6105V21.0059C6.07116 20.6182 3.45515 19.0974 1.64472 16.3027C0.221429 14.1169 -0.248257 11.7071 0.120375 9.12216C0.832022 4.10727 5.25135 0.361904 10.3837 0.402115C15.3653 0.446634 19.6821 4.34136 20.3653 9.21551C21.168 14.9326 16.985 20.6168 11.0826 21.039ZM10.2286 2.12113C5.55593 2.10246 1.73012 5.94549 1.70165 10.6861C1.67319 15.3994 5.50184 19.3027 10.166 19.3171C14.87 19.3314 18.7228 15.5085 18.7456 10.8053C18.7561 9.67 18.5438 8.54384 18.121 7.49173C17.6982 6.43961 17.0732 5.48234 16.282 4.67508C15.4908 3.86782 14.5491 3.22654 13.5111 2.78822C12.4732 2.34989 11.3595 2.12317 10.2343 2.12113H10.2286Z" fill="#009DD9"/>
<path d="M35.7959 18.4741C35.7899 19.152 35.5203 19.8003 35.0451 20.2796C34.5699 20.7588 33.9271 21.0305 33.2553 21.0361C32.9183 21.0361 32.5845 20.969 32.2732 20.8386C31.962 20.7083 31.6792 20.5172 31.4412 20.2764C31.2032 20.0356 31.0147 19.7498 30.8863 19.4354C30.758 19.1209 30.6924 18.784 30.6934 18.4439C30.6993 17.7658 30.9691 17.1172 31.4447 16.6379C31.9202 16.1587 32.5633 15.8871 33.2354 15.8819C33.5723 15.8821 33.9059 15.9493 34.217 16.0798C34.5281 16.2102 34.8107 16.4013 35.0485 16.6421C35.2864 16.8829 35.4748 17.1686 35.6031 17.483C35.7313 17.7973 35.7968 18.1341 35.7959 18.4741V18.4741ZM34.0879 18.4741C34.0907 18.2497 34.0066 18.033 33.8535 17.8702C33.7004 17.7074 33.4904 17.6113 33.2681 17.6024C33.1541 17.5993 33.0406 17.6193 32.9343 17.6612C32.8281 17.7032 32.7312 17.7661 32.6495 17.8465C32.5678 17.9268 32.5028 18.0228 32.4585 18.1289C32.4141 18.2349 32.3913 18.3489 32.3914 18.464C32.3954 18.6883 32.486 18.9022 32.6439 19.0601C32.8018 19.2181 33.0145 19.3077 33.2368 19.3099C33.4587 19.3096 33.6717 19.2222 33.8309 19.0662C33.99 18.9102 34.0827 18.6978 34.0894 18.4741H34.0879Z" fill="#009DD9"/>
<path d="M9.35202 14.9886C9.39472 14.4716 9.49435 14.0465 8.83964 13.8125C8.21481 13.587 8.21623 14.2002 7.84333 14.2864C7.9145 14.4616 7.96431 14.5736 8.00701 14.687C8.07638 14.8538 8.0868 15.0396 8.03652 15.2132C7.98625 15.3869 7.87834 15.5377 7.73089 15.6406C7.40069 15.902 7.01924 15.9149 6.70327 15.6406C6.22545 15.2131 5.77346 14.757 5.34972 14.2749C5.0736 13.9604 5.08784 13.5712 5.34972 13.2366C5.45228 13.0873 5.60275 12.9784 5.77573 12.9281C5.9487 12.8779 6.13355 12.8894 6.29906 12.9608C6.41292 13.0025 6.52251 13.0542 6.66627 13.1145C6.8086 12.7713 7.34945 12.7569 7.17865 12.1724C6.98082 11.496 6.5524 11.5219 6.04002 11.598C5.929 11.7904 5.86211 12.0705 5.69416 12.1624C5.44081 12.306 5.05937 12.4367 4.84018 12.3376C4.70131 12.2596 4.58066 12.1524 4.48637 12.0234C4.39208 11.8943 4.32635 11.7463 4.29364 11.5894C4.20682 11.048 4.26517 10.4836 4.2666 9.92779C4.2666 9.4309 4.50713 9.09341 4.99247 9.01299C5.47782 8.93257 5.77102 9.18101 5.93327 9.6219C5.95747 9.68796 5.97882 9.75545 6.00586 9.83731H6.89542C7.33948 8.93544 7.33948 8.93544 6.61076 8.33945C6.50544 8.38254 6.38019 8.48306 6.28198 8.46439C5.96031 8.3969 5.58029 8.36387 5.34687 8.16712C5.06222 7.92011 5.06222 7.48928 5.3241 7.19057C5.75819 6.69465 6.2206 6.22472 6.70897 5.78318C6.84298 5.66009 7.01676 5.59033 7.19794 5.5869C7.37913 5.58347 7.55539 5.64659 7.69388 5.76452C8.03121 6.01009 8.19204 6.37629 7.98566 6.75255C7.74797 7.18339 8.10379 7.30833 8.28313 7.5381C8.57633 7.91006 8.84391 7.57832 9.07448 7.46917C9.21681 7.3988 9.30363 7.14318 9.35914 6.95505C9.38505 6.81285 9.38794 6.66735 9.36768 6.52421C9.11433 6.34901 8.81544 6.24705 8.71012 6.04312C8.58629 5.80616 8.52082 5.42128 8.63183 5.20874C8.71615 5.08171 8.82529 4.9734 8.95255 4.89043C9.07981 4.80745 9.22253 4.75157 9.37195 4.72621C9.89287 4.64866 10.4337 4.7061 10.966 4.70036C11.4542 4.70036 11.8058 4.90716 11.9054 5.394C12.005 5.88084 11.7631 6.21545 11.2991 6.38922C11.235 6.41363 11.1696 6.43518 11.0699 6.46964C11.2123 6.81431 10.8209 7.22647 11.3944 7.53093C12.0178 7.86267 12.2484 7.48784 12.5786 7.10009C12.568 7.03887 12.5503 6.9791 12.526 6.92202C12.2897 6.4797 12.358 6.08764 12.7437 5.77313C13.0996 5.48591 13.5337 5.55341 13.9364 5.94403C14.3079 6.30449 14.6737 6.66926 15.0267 7.0484C15.3441 7.38875 15.3996 7.78655 15.1249 8.17143C14.8659 8.53333 14.4801 8.65396 14.0916 8.43567C13.703 8.21738 13.6319 8.54769 13.444 8.69274C13.2561 8.83778 13.222 9.00437 13.2903 9.28441C13.4668 9.99528 13.9493 9.8847 14.3535 9.71524C14.6381 9.47972 14.8772 9.15229 15.1975 9.03022C15.6757 8.84927 16.1625 9.29016 16.1938 9.85885C16.2166 10.3773 16.1938 10.8972 16.2023 11.417C16.2109 11.9369 16.0088 12.2887 15.5006 12.4123C15.0737 12.5157 14.7207 12.2528 14.5043 11.7287C14.4858 11.6827 14.4631 11.6382 14.4446 11.598C13.9364 11.542 13.4611 11.4544 13.2874 12.1552C13.2163 12.4424 13.2703 12.586 13.4568 12.7454C13.6432 12.9048 13.7415 13.1906 14.1072 12.9881C14.4972 12.7684 14.8815 12.9005 15.1349 13.2653C15.4081 13.6559 15.3398 14.0509 15.0224 14.3883C14.6552 14.7775 14.2766 15.1552 13.8937 15.5286C13.5436 15.869 13.138 15.9465 12.7395 15.6449C12.3666 15.3577 12.2997 14.9714 12.5089 14.5434C12.5388 14.4817 12.5644 14.4171 12.5886 14.3625C11.9937 13.6286 11.9937 13.6286 11.1041 14.0753C11.1041 14.1385 11.0856 14.2088 11.0856 14.2792C11.0856 14.4932 11.0856 14.71 11.0856 14.947C11.2137 15.003 11.3418 15.0489 11.4613 15.1121C11.6259 15.1856 11.7609 15.3133 11.8442 15.4742C11.9274 15.6352 11.954 15.82 11.9196 15.9982C11.9034 16.1898 11.818 16.3687 11.6798 16.501C11.5416 16.6334 11.36 16.7099 11.1696 16.7163C10.5495 16.7507 9.92798 16.7507 9.3079 16.7163C9.10805 16.7141 8.91681 16.6339 8.7743 16.4926C8.63179 16.3512 8.5491 16.1596 8.54359 15.958C8.48951 15.3994 8.83679 15.1222 9.35202 14.9886ZM11.9296 10.6975C11.9225 10.2452 11.7394 9.81388 11.4199 9.49657C11.1004 9.17926 10.67 9.00144 10.2217 9.0015C9.99505 9.00334 9.77107 9.05066 9.56277 9.14071C9.35447 9.23076 9.16601 9.36173 9.00837 9.526C8.85073 9.69026 8.72707 9.88455 8.64459 10.0975C8.56211 10.3105 8.52245 10.5379 8.52793 10.7665C8.54424 11.2182 8.73475 11.6455 9.05885 11.9575C9.38295 12.2695 9.81501 12.4415 10.2629 12.4367C10.7114 12.4257 11.1377 12.2372 11.4495 11.9118C11.7614 11.5864 11.9338 11.1502 11.9296 10.6975V10.6975Z" fill="#F35150"/>
</svg>
