<svg viewBox="0 0 44 52" fill="none" xmlns="http://www.w3.org/2000/svg">
<path d="M1.93696 52C1.08208 51.7121 0.400575 51.2295 0.120838 50.3229C0.0520527 50.1001 0.0128625 49.8591 0.0115112 49.626C0.00191633 48.0184 0.00245688 46.4108 0.00732187 44.8032C0.00907867 44.2513 0.307194 43.9115 0.760989 43.9122C1.211 43.9127 1.51993 44.2584 1.52249 44.805C1.52979 46.3448 1.52209 47.8849 1.52682 49.4247C1.52912 50.1582 1.84439 50.475 2.57874 50.4752C10.2785 50.4767 17.9782 50.475 25.6779 50.4731C25.7928 50.4731 25.9077 50.4577 26.0632 50.4466C26.0217 50.0221 25.9842 49.623 25.9436 49.2242C25.8285 48.0903 26.0826 47.0449 26.6666 46.0691C27.1177 45.3154 27.5477 44.5489 27.985 43.7869C28.0494 43.6748 28.1029 43.5563 28.1946 43.3749C27.0533 43.3749 25.9793 43.3749 24.9055 43.3749C24.7367 43.3749 24.5677 43.3787 24.399 43.3736C23.8833 43.358 23.5525 43.0721 23.5413 42.6363C23.5297 42.1892 23.8803 41.8612 24.4137 41.852C25.072 41.8406 25.7308 41.851 26.3893 41.8513C27.1661 41.8517 27.9437 41.8711 28.7188 41.8372C28.9096 41.8288 29.1584 41.6913 29.267 41.5344C29.5607 41.109 29.7935 40.6412 30.0994 40.1043C29.8355 40.1043 29.6587 40.1043 29.482 40.1043C26.3413 40.1043 23.2006 40.1053 20.06 40.1019C19.8597 40.1016 19.6494 40.1003 19.4616 40.0419C19.0933 39.9273 18.9217 39.6452 18.9563 39.2618C18.9913 38.8755 19.2208 38.6487 19.6004 38.5932C19.766 38.5689 19.9374 38.5812 20.1062 38.5812C23.5678 38.5807 27.0292 38.5746 30.4906 38.5899C30.8601 38.5915 31.077 38.4932 31.2385 38.1556C31.4405 37.7332 31.698 37.3373 31.9743 36.8551C31.7322 36.8419 31.5578 36.8243 31.3835 36.824C30.1171 36.8216 28.8507 36.8247 27.5843 36.8207C27.3829 36.8201 27.1751 36.8193 26.9811 36.7729C26.6014 36.6825 26.4173 36.41 26.43 36.0272C26.4427 35.6432 26.6468 35.3857 27.0335 35.3261C27.2652 35.2903 27.5047 35.3005 27.7407 35.3002C29.311 35.2983 30.8815 35.2917 32.4516 35.3055C32.7592 35.3082 32.9333 35.2138 33.09 34.9392C34.5468 32.3857 36.0254 29.8446 37.4791 27.2893C37.6119 27.0558 37.6712 26.749 37.672 26.4759C37.6841 22.4823 37.6801 18.4886 37.6808 14.4951C37.6808 14.3091 37.6741 14.1213 37.6966 13.9375C37.7439 13.5516 37.9715 13.3244 38.3579 13.2905C38.7645 13.2549 39.0499 13.4396 39.1507 13.8411C39.1992 14.0342 39.1984 14.2429 39.1987 14.4445C39.2014 17.5414 39.2006 20.6381 39.2006 23.7349C39.2006 23.9187 39.2006 24.1024 39.2006 24.141C39.6664 24.2851 40.0788 24.3464 40.4245 24.5322C41.4198 25.0674 42.3893 25.651 43.3666 26.2197C44.0754 26.6321 44.1643 26.9577 43.7592 27.6619C42.3269 30.1516 40.8852 32.6358 39.4682 35.1341C39.3111 35.411 39.2168 35.7645 39.2154 36.083C39.1979 40.3644 39.1702 44.646 39.2179 48.9268C39.2345 50.4209 38.7581 51.4841 37.3053 51.9996C25.5156 52 13.7263 52 1.93696 52ZM27.5952 50.0874C28.7409 49.7147 29.6639 49.1502 30.2524 48.0773C31.1459 46.4482 32.0949 44.8494 33.0293 43.243C33.2975 42.7821 33.699 42.6529 34.089 42.8641C34.4968 43.085 34.6084 43.5301 34.3414 44.0032C33.7436 45.0626 33.1462 46.1227 32.5192 47.1649C31.8451 48.2852 31.3434 49.5239 30.224 50.4768C30.4989 50.4768 30.6602 50.4768 30.8217 50.4768C32.696 50.4768 34.5702 50.4773 36.4444 50.4765C37.4069 50.4761 37.6793 50.2054 37.6797 49.2396C37.6811 45.8214 37.6801 42.4032 37.68 38.985C37.68 38.8062 37.68 38.6273 37.68 38.3088C37.535 38.5131 37.4649 38.5976 37.4101 38.6914C37.0103 39.3773 36.6209 40.0697 36.2131 40.7506C35.9444 41.1992 35.5321 41.3292 35.1456 41.1178C34.7416 40.8968 34.6495 40.4588 34.9089 39.9724C34.9963 39.8085 35.0926 39.6494 35.1856 39.4884C36.3592 37.455 37.5327 35.4217 38.7266 33.3532C37.9805 32.9213 37.2574 32.5026 36.5174 32.0741C36.4482 32.1744 36.3967 32.239 36.3559 32.3097C33.5306 37.2139 30.7074 42.1193 27.8807 47.0227C27.3185 47.9979 27.3934 49.0202 27.5952 50.0874ZM38.9004 27.8974C39.6667 28.3411 40.3782 28.753 41.1248 29.1851C41.492 28.5462 41.8408 27.9393 42.2038 27.3076C41.4398 26.8679 40.7274 26.4579 39.9783 26.0268C39.6141 26.6592 39.27 27.2563 38.9004 27.8974ZM37.258 30.741C38.033 31.1879 38.7514 31.6022 39.4887 32.0273C39.7957 31.491 40.0692 31.0131 40.3606 30.5043C39.611 30.0717 38.8896 29.6554 38.1357 29.2205C37.8388 29.735 37.5631 30.2124 37.258 30.741Z" fill="#009DD9"/>
<path d="M37.3049 0C37.7147 0.251906 38.1664 0.455599 38.5245 0.767231C39.0199 1.19845 39.1948 1.81467 39.1964 2.46259C39.2033 5.06874 39.2028 7.67489 39.1976 10.2809C39.1964 10.8749 38.9021 11.2272 38.4414 11.2331C37.9592 11.2392 37.678 10.8883 37.6774 10.2499C37.6753 7.76224 37.6797 5.2746 37.6796 2.78682C37.6796 1.78596 37.4215 1.52607 36.4166 1.52593C25.1874 1.52417 13.9581 1.5239 2.72889 1.52376C1.79292 1.52376 1.52548 1.79111 1.52548 2.72872C1.52507 15.3532 1.52521 27.9777 1.52494 40.6022C1.52494 40.7883 1.53642 40.9761 1.51548 41.16C1.46534 41.5992 1.1506 41.8748 0.735052 41.8629C0.320042 41.851 0.0259807 41.5631 0.0112507 41.1094C-0.0068579 40.5515 0.00233152 39.9926 0.00233152 39.4342C0.00206124 27.2666 0.00219638 15.0991 0.00206124 2.93146C0.00206124 1.23421 0.387071 0.650623 1.93684 0C13.7262 0 25.5155 0 37.3049 0Z" fill="#009DD9"/>
<path d="M15.7408 39.5548C15.7407 40.7394 15.7494 41.924 15.7385 43.1087C15.7254 44.5146 14.8218 45.4163 13.4132 45.4213C11.0491 45.4299 8.68494 45.4296 6.32083 45.4212C4.92525 45.4163 3.99239 44.4928 3.98631 43.1045C3.9759 40.7352 3.97658 38.3659 3.98442 35.9967C3.98901 34.591 4.93836 33.6473 6.34961 33.643C8.69683 33.6358 11.0441 33.6356 13.3913 33.6444C14.8179 33.6499 15.7274 34.5665 15.739 36.0007C15.7485 37.1855 15.7408 38.3701 15.7408 39.5548ZM14.2172 39.5609C14.2185 39.5609 14.2195 39.5609 14.2208 39.5609C14.2208 38.3942 14.2249 37.2275 14.2191 36.0608C14.2159 35.4089 13.9879 35.1747 13.3317 35.1727C11.0203 35.1651 8.70886 35.1635 6.39745 35.1692C5.75676 35.1708 5.5077 35.4243 5.50635 36.0687C5.50162 38.3852 5.50283 40.7016 5.51013 43.0181C5.51216 43.6657 5.75217 43.8978 6.40434 43.8987C8.71575 43.9015 11.0272 43.9 13.3386 43.8947C14.0024 43.8932 14.2124 43.6801 14.2156 43.0102C14.2213 41.8604 14.2172 40.7107 14.2172 39.5609Z" fill="#009DD9"/>
<path d="M9.86595 6.57288C11.0311 6.57288 12.1963 6.57098 13.3613 6.57328C14.8271 6.57626 15.7342 7.46931 15.7392 8.93755C15.7473 11.2898 15.7481 13.6421 15.7389 15.9943C15.7333 17.4276 14.8262 18.3453 13.3936 18.3536C11.0465 18.3668 8.6993 18.3667 6.35221 18.3536C4.90893 18.3455 3.98486 17.3969 3.98269 15.9504C3.97918 13.632 3.97958 11.3136 3.98567 8.99511C3.98972 7.46958 4.88907 6.58087 6.42127 6.57681C7.56954 6.57383 8.71781 6.57626 9.86608 6.57626C9.86595 6.57518 9.86595 6.5741 9.86595 6.57288ZM14.2178 12.4925C14.219 12.4925 14.2202 12.4925 14.2213 12.4925C14.2213 11.3258 14.2252 10.159 14.2198 8.99227C14.2167 8.31726 14.0081 8.10572 13.3477 8.1045C11.0529 8.1003 8.75822 8.09922 6.46343 8.10071C5.72436 8.10125 5.50584 8.32282 5.5053 9.07353C5.50368 11.3395 5.50476 13.6054 5.50868 15.8712C5.50989 16.5889 5.73895 16.8306 6.44032 16.8318C8.73497 16.8359 11.0298 16.835 13.3245 16.8276C13.9806 16.8256 14.2125 16.5898 14.2161 15.9422C14.2223 14.7922 14.2178 13.6424 14.2178 12.4925Z" fill="#009DD9"/>
<path d="M15.7409 26.0425C15.7409 27.2101 15.7486 28.3777 15.7391 29.5451C15.7273 30.9757 14.8123 31.8861 13.386 31.8893C11.056 31.8947 8.72604 31.8956 6.39599 31.892C4.91852 31.8899 3.99079 30.967 3.98593 29.4843C3.97836 27.1662 3.97903 24.848 3.98566 22.5298C3.98998 21.0186 4.91325 20.1109 6.43153 20.1097C8.7278 20.1078 11.0239 20.1076 13.3202 20.1099C14.8393 20.1115 15.7346 21.0072 15.7438 22.5398C15.7507 23.7072 15.7451 24.8748 15.7451 26.0424C15.7438 26.0425 15.7423 26.0425 15.7409 26.0425ZM14.2209 25.9995C14.2209 24.8323 14.2258 23.665 14.2189 22.4978C14.2152 21.8758 13.9774 21.6358 13.3633 21.6346C11.0339 21.6304 8.70469 21.6302 6.37531 21.6346C5.76516 21.6357 5.50921 21.8834 5.50731 22.4982C5.50002 24.8326 5.50002 27.167 5.50731 29.5015C5.50921 30.1151 5.76624 30.3641 6.37585 30.3652C8.70523 30.3696 11.0345 30.3695 13.3639 30.3653C13.9768 30.3642 14.2152 30.123 14.219 29.501C14.2258 28.3339 14.2209 27.1666 14.2209 25.9995Z" fill="#009DD9"/>
<path d="M25.6999 13.0078C23.7767 13.0079 21.8535 13.0091 19.9304 13.0071C19.2813 13.0064 18.9508 12.7468 18.9512 12.2504C18.9516 11.7555 19.2887 11.4857 19.9315 11.4855C23.7778 11.4834 27.6241 11.4833 31.4704 11.4859C32.0474 11.4863 32.3822 11.7352 32.4302 12.1758C32.483 12.6601 32.115 13.0048 31.5199 13.0061C29.5799 13.0102 27.6399 13.0076 25.6999 13.0078Z" fill="#009DD9"/>
<path d="M25.6566 26.5522C23.8011 26.5522 21.9456 26.5524 20.0902 26.5516C19.9386 26.5515 19.7853 26.5559 19.6356 26.5369C19.2067 26.4823 18.9603 26.2365 18.9571 25.7985C18.9538 25.3591 19.2025 25.1137 19.6271 25.0499C19.7761 25.0276 19.9297 25.0298 20.0811 25.0296C23.8426 25.0275 27.6042 25.0256 31.3656 25.0274C31.5494 25.0276 31.7939 24.9943 31.9043 25.0941C32.1205 25.2896 32.4016 25.5722 32.395 25.8113C32.3883 26.0508 32.0955 26.3235 31.8655 26.4996C31.7317 26.602 31.4749 26.5542 31.2734 26.5546C29.4011 26.5576 27.5288 26.5564 25.6566 26.5564C25.6566 26.5549 25.6566 26.5535 25.6566 26.5522Z" fill="#009DD9"/>
<path d="M30.768 23.2655C29.6208 23.2655 28.4737 23.2688 27.3265 23.2641C26.7566 23.2618 26.4375 22.9965 26.4224 22.5328C26.4067 22.0558 26.7513 21.7439 27.3284 21.7428C29.6396 21.7387 31.9509 21.7394 34.2622 21.7441C34.8564 21.7454 35.1903 22.0319 35.1896 22.5112C35.1891 22.9936 34.8621 23.2655 34.2603 23.2675C33.0962 23.2714 31.9321 23.2686 30.768 23.2686C30.768 23.2675 30.768 23.2665 30.768 23.2655Z" fill="#009DD9"/>
<path d="M30.82 8.21402C31.9663 8.21402 33.1127 8.21064 34.2589 8.21538C34.8631 8.21781 35.1878 8.48909 35.1866 8.97096C35.1854 9.45067 34.854 9.73413 34.2569 9.73535C31.9474 9.73982 29.638 9.74036 27.3285 9.73467C26.7484 9.73318 26.411 9.42317 26.4263 8.9432C26.441 8.47988 26.756 8.21822 27.3305 8.21565C28.4938 8.21036 29.6569 8.21416 30.82 8.21402Z" fill="#009DD9"/>
<path d="M26.3318 28.3209C26.9548 28.3209 27.5779 28.3143 28.2009 28.3229C28.7209 28.3303 29.0446 28.6163 29.0554 29.0547C29.0661 29.4875 28.7381 29.8356 28.2424 29.8416C26.946 29.857 25.6492 29.8559 24.3528 29.8397C23.8611 29.8334 23.527 29.4763 23.5457 29.0483C23.5639 28.6304 23.8812 28.3363 24.3616 28.3275C25.0181 28.3155 25.675 28.3246 26.3317 28.3246C26.3318 28.3233 26.3318 28.3221 26.3318 28.3209Z" fill="#009DD9"/>
<path d="M26.2864 16.2928C25.6637 16.2931 25.0407 16.3031 24.4182 16.2899C23.8747 16.2784 23.5319 15.9652 23.5412 15.5214C23.5501 15.0942 23.8797 14.778 24.3919 14.7729C25.6708 14.7604 26.9503 14.7617 28.2293 14.7789C28.7404 14.7858 29.0598 15.1118 29.0524 15.5468C29.0451 15.9811 28.7248 16.2769 28.2051 16.2889C27.5658 16.3036 26.9259 16.2925 26.2864 16.2928Z" fill="#009DD9"/>
<path d="M21.6108 23.2652C21.0051 23.2653 20.3991 23.2721 19.7936 23.2633C19.2683 23.2557 18.9611 22.9776 18.9533 22.5262C18.9453 22.0771 19.2538 21.7541 19.7617 21.7485C21.0235 21.7342 22.2857 21.7331 23.5474 21.7498C24.0477 21.7564 24.3556 22.0965 24.3379 22.5457C24.321 22.9738 24.0183 23.2541 23.5291 23.2625C22.8897 23.2733 22.2502 23.265 21.6108 23.2652Z" fill="#009DD9"/>
<path d="M21.6406 8.21471C22.2632 8.21471 22.8857 8.20631 23.508 8.21728C24.0239 8.22635 24.3367 8.52065 24.3374 8.96758C24.3379 9.41302 24.0255 9.72628 23.5126 9.7321C22.2677 9.74646 21.0225 9.74727 19.7776 9.73549C19.2662 9.73061 18.9536 9.41939 18.9512 8.97313C18.9488 8.52065 19.2551 8.22703 19.773 8.21741C20.3954 8.2059 21.0181 8.21471 21.6406 8.21471Z" fill="#009DD9"/>
<path d="M21.6699 36.8129C21.0452 36.8129 20.4203 36.8236 19.796 36.8096C19.2575 36.7976 18.9604 36.5221 18.9533 36.0669C18.946 35.6072 19.2335 35.3041 19.7695 35.2963C21.0186 35.278 22.2683 35.2781 23.5174 35.2961C24.0476 35.3039 24.3443 35.6133 24.338 36.065C24.3315 36.5184 24.0327 36.7934 23.4934 36.8053C22.8858 36.8187 22.2778 36.8084 21.6699 36.8084C21.6699 36.81 21.6699 36.8115 21.6699 36.8129Z" fill="#009DD9"/>
<path d="M20.2282 43.3718C20.0426 43.3718 19.8557 43.3851 19.6713 43.3691C19.2425 43.332 18.984 43.0962 18.9571 42.6606C18.9298 42.2193 19.1758 41.9375 19.5894 41.878C19.9701 41.8231 20.3656 41.8372 20.7515 41.8633C21.1894 41.893 21.4871 42.2291 21.4823 42.6276C21.4773 43.0446 21.1538 43.3492 20.6841 43.3729C20.5324 43.3805 20.3803 43.3741 20.2282 43.3741C20.2282 43.3733 20.2282 43.3725 20.2282 43.3718Z" fill="#009DD9"/>
<path d="M20.2031 28.3265C20.3876 28.3266 20.573 28.3153 20.7565 28.3288C21.1896 28.3603 21.4441 28.6166 21.4731 29.0336C21.5027 29.4588 21.2573 29.7644 20.8443 29.8156C20.4162 29.8687 19.9689 29.868 19.5427 29.8046C19.128 29.743 18.9121 29.43 18.957 28.9973C18.999 28.5922 19.2465 28.3657 19.6499 28.3292C19.8328 28.3126 20.0186 28.3265 20.2031 28.3265Z" fill="#009DD9"/>
<path d="M20.2172 14.7634C20.4191 14.7727 20.624 14.7631 20.8222 14.7952C21.2498 14.8644 21.4891 15.141 21.4733 15.5647C21.4586 15.9603 21.2247 16.2374 20.8126 16.2706C20.4275 16.3016 20.0368 16.3023 19.6512 16.2763C19.222 16.2473 18.9692 15.9931 18.9574 15.5548C18.9457 15.1167 19.1854 14.8574 19.6115 14.7949C19.8092 14.7659 20.0148 14.7899 20.2168 14.7899C20.2169 14.7811 20.2171 14.7722 20.2172 14.7634Z" fill="#009DD9"/>
<path d="M9.29337 39.8191C10.0273 39.0753 10.6698 38.4076 11.3315 37.7597C11.7428 37.3569 12.273 37.3974 12.5466 37.8301C12.7676 38.1798 12.7097 38.5156 12.4293 38.8001C11.5873 39.6543 10.7437 40.5071 9.88609 41.3454C9.52527 41.6981 9.13053 41.6915 8.76417 41.3462C8.34646 40.9525 7.94063 40.5452 7.544 40.1301C7.19859 39.7684 7.19237 39.3059 7.50427 39.0023C7.81833 38.6965 8.25456 38.7195 8.63146 39.0657C8.74336 39.1683 8.85228 39.2753 8.95296 39.389C9.05404 39.5027 9.14296 39.6275 9.29337 39.8191Z" fill="#F35150"/>
<path d="M9.29487 12.7466C9.94205 12.0839 10.4945 11.5173 11.0483 10.952C11.1664 10.8313 11.2811 10.7052 11.4118 10.5996C11.7545 10.3226 12.1908 10.3337 12.4604 10.6366C12.7464 10.9581 12.7844 11.3315 12.4839 11.6428C11.6045 12.5542 10.7099 13.4515 9.7988 14.331C9.48555 14.6333 9.10487 14.5821 8.79499 14.2911C8.35201 13.875 7.91943 13.4464 7.50483 13.002C7.18806 12.6625 7.20779 12.203 7.51158 11.9131C7.8174 11.6213 8.21498 11.606 8.55674 11.9191C8.80432 12.1458 9.00784 12.4206 9.29487 12.7466Z" fill="#F35150"/>
<path d="M9.29794 26.2927C10.0342 25.5406 10.6743 24.8694 11.3347 24.2188C11.7227 23.8366 12.2407 23.8629 12.521 24.2545C12.7779 24.6134 12.7179 24.9672 12.4249 25.2658C11.5852 26.122 10.741 26.974 9.88147 27.8103C9.52443 28.1577 9.11875 28.1445 8.75577 27.7995C8.32738 27.3925 7.90858 26.9743 7.5056 26.5423C7.19262 26.2067 7.20897 25.7352 7.50884 25.4516C7.79709 25.1789 8.23873 25.1722 8.559 25.4728C8.80428 25.7029 9.01253 25.9725 9.29794 26.2927Z" fill="#F35150"/>
</svg>
