<svg width="38" height="38" viewBox="0 0 38 38" fill="none" xmlns="http://www.w3.org/2000/svg">
<circle cx="19" cy="19" r="19" fill="#F4F8FD"/>
<path d="M15.0013 18.2439C14.9996 18.2349 14.9996 18.2257 15.0013 18.2167C15.2023 17.3358 15.2055 17.3414 16.0631 17.0259C16.94 16.7056 17.8248 16.4574 18.7745 16.5014C19.8348 16.5519 20.8045 17.1997 20.9607 18.1374C21.0501 18.7271 21.0248 19.3286 20.8862 19.9087C20.5611 21.2973 20.1359 22.6626 19.7715 24.0424C19.6992 24.3541 19.6624 24.6729 19.6618 24.9929C19.649 25.4678 19.878 25.7977 20.3473 25.8449C20.8165 25.8922 21.2962 25.8321 21.7703 25.8001C21.9128 25.7905 22.0521 25.72 22.2507 25.6559C22.1707 25.961 22.1106 26.2261 22.0321 26.4864C22.0182 26.5187 21.998 26.5479 21.9727 26.5724C21.9474 26.5969 21.9175 26.6161 21.8848 26.6289C20.7685 27.0501 19.6674 27.5098 18.4246 27.4129C17.3956 27.3328 16.3986 26.7018 16.1904 25.8017C16.0871 25.3343 16.0871 24.8501 16.1904 24.3827C16.4603 23.1999 16.827 22.0396 17.1273 20.8633C17.2892 20.2792 17.4044 19.6831 17.4717 19.0807C17.5397 18.3256 17.1586 17.9596 16.3914 18.0085C15.9286 18.0373 15.4729 18.1606 15.0013 18.2439Z" fill="#0E3F60"/>
<path d="M20.29 11C21.5193 10.9944 22.4434 11.8585 22.4241 12.9692C22.4097 13.7835 21.8091 14.4906 20.9227 14.7309C19.9441 14.9999 18.8542 14.5587 18.4282 13.7211C17.8268 12.5391 18.6613 11.1586 20.0642 11.0104C20.1491 11.0056 20.2348 11.0032 20.29 11Z" fill="#0E3F60"/>
</svg>
