<svg width="23" height="23" viewBox="0 0 23 23" fill="none" xmlns="http://www.w3.org/2000/svg">
<circle cx="11.5" cy="11.5" r="11" fill="white" stroke="#F35150"/>
<path d="M9.00077 10.4101C8.99974 10.4046 8.99974 10.399 9.00077 10.3935C9.12314 9.85727 9.12509 9.86068 9.64721 9.6686C10.181 9.4736 10.7197 9.32247 11.2979 9.34928C11.9434 9.37999 12.5337 9.77439 12.6288 10.3453C12.6832 10.7043 12.6678 11.0704 12.5835 11.4236C12.3855 12.269 12.1267 13.1002 11.9049 13.9401C11.8608 14.1299 11.8384 14.324 11.8381 14.5188C11.8303 14.8079 11.9697 15.0088 12.2554 15.0375C12.541 15.0663 12.8331 15.0297 13.1217 15.0102C13.2084 15.0044 13.2933 14.9615 13.4142 14.9225C13.3654 15.1082 13.3289 15.2696 13.2811 15.428C13.2726 15.4477 13.2603 15.4655 13.2449 15.4804C13.2295 15.4953 13.2113 15.507 13.1914 15.5148C12.5118 15.7712 11.8415 16.0511 11.0849 15.9921C10.4584 15.9433 9.85147 15.5592 9.72472 15.0112C9.66183 14.7267 9.66183 14.4319 9.72472 14.1473C9.88901 13.4273 10.1123 12.7209 10.2951 12.0047C10.3936 11.6491 10.4637 11.2863 10.5047 10.9195C10.5462 10.4598 10.3141 10.237 9.84708 10.2668C9.56531 10.2843 9.28791 10.3594 9.00077 10.4101Z" fill="#F35150"/>
<path d="M12.2197 6.00002C12.968 5.9966 13.5306 6.52263 13.5189 7.1988C13.5101 7.6946 13.1445 8.12507 12.6048 8.27132C12.0091 8.43512 11.3456 8.1665 11.0862 7.65657C10.7201 6.93701 11.2281 6.09654 12.0822 6.00635C12.1339 6.00343 12.186 6.00197 12.2197 6.00002Z" fill="#F35150"/>
</svg>
