<svg width="93" height="17" viewBox="0 0 93 17" fill="none" xmlns="http://www.w3.org/2000/svg">
<path d="M9.69678 10.7662H12.3725C12.2869 11.7905 12.0015 12.7038 11.5163 13.5061C11.0311 14.3012 10.3497 14.928 9.47202 15.3864C8.59439 15.8449 7.52767 16.0741 6.27187 16.0741C5.30861 16.0741 4.44168 15.9022 3.67108 15.5583C2.90047 15.2073 2.24046 14.7131 1.69105 14.0756C1.14164 13.4309 0.720659 12.6537 0.428114 11.744C0.142705 10.8342 0 9.81708 0 8.69246V7.39235C0 6.26774 0.146272 5.25058 0.438817 4.34086C0.738497 3.43114 1.16661 2.65394 1.72316 2.00926C2.27971 1.35741 2.94685 0.859576 3.72459 0.515746C4.50947 0.171915 5.39067 0 6.3682 0C7.60973 0 8.65861 0.22922 9.51483 0.687661C10.3711 1.1461 11.0346 1.78004 11.5056 2.58947C11.9836 3.39891 12.2762 4.32653 12.3832 5.37235H9.70749C9.63613 4.69902 9.47916 4.12238 9.23656 3.64245C9.0011 3.16252 8.65147 2.7972 8.18768 2.54649C7.72389 2.28862 7.1174 2.15969 6.3682 2.15969C5.75457 2.15969 5.21942 2.2743 4.76277 2.50352C4.30611 2.73274 3.92438 3.0694 3.61756 3.51352C3.31075 3.95763 3.07885 4.50561 2.92188 5.15746C2.77204 5.80214 2.69712 6.53994 2.69712 7.37087V8.69246C2.69712 9.48041 2.7649 10.1967 2.90047 10.8414C3.04318 11.4789 3.25723 12.0269 3.54264 12.4853C3.83519 12.9438 4.20622 13.2984 4.65574 13.5491C5.10526 13.7998 5.64397 13.9251 6.27187 13.9251C7.03534 13.9251 7.65254 13.8034 8.12346 13.5598C8.60152 13.3163 8.96185 12.9617 9.20445 12.4961C9.45418 12.0233 9.6183 11.4467 9.69678 10.7662Z" fill="#009CD6"/>
<path d="M17.6811 0.214894V15.8592H14.9947V0.214894H17.6811Z" fill="#009CD6"/>
<path d="M27.1103 0.214894V15.8592H24.4453V0.214894H27.1103ZM32.0015 0.214894V2.36383H19.5969V0.214894H32.0015Z" fill="#009CD6"/>
<path d="M35.7154 0.214894L39.333 7.68246L42.9505 0.214894H45.9259L40.6815 10.1V15.8592H37.9737V10.1L32.7293 0.214894H35.7154Z" fill="#009CD6"/>
<path d="M50.4737 0.00012207H52.8952L57.4463 11.5124L61.9865 0.00012207H64.408L58.3975 14.926H56.4733L50.4737 0.00012207ZM49.3711 0.00012207H51.6736L52.0736 9.96441V14.926H49.3711V0.00012207ZM63.208 0.00012207H65.5214V14.926H62.8081V9.96441L63.208 0.00012207Z" fill="#F35150"/>
<path d="M79.0449 12.886V14.926H70.6886V12.886H79.0449ZM71.4562 0.00012207V14.926H68.7428V0.00012207H71.4562ZM77.953 6.23293V8.24219H70.6886V6.23293H77.953ZM78.9908 0.00012207V2.05039H70.6886V0.00012207H78.9908Z" fill="#F35150"/>
<path d="M85.8336 14.926H82.4717L82.4933 12.886H85.8336C86.8065 12.886 87.6209 12.6844 88.2767 12.2812C88.9397 11.878 89.437 11.3005 89.7685 10.5487C90.1072 9.79697 90.2766 8.90169 90.2766 7.86289V7.05303C90.2766 6.24659 90.1793 5.53242 89.9847 4.91051C89.7973 4.28859 89.5163 3.76577 89.1415 3.34205C88.774 2.91833 88.3199 2.59712 87.7794 2.37843C87.2461 2.15973 86.63 2.05039 85.9309 2.05039H82.4068V0.00012207H85.9309C86.9759 0.00012207 87.9308 0.16756 88.7956 0.502437C89.6604 0.830479 90.4063 1.30546 91.0333 1.92737C91.6675 2.54928 92.1539 3.29421 92.4927 4.16216C92.8314 5.0301 93.0007 6.00056 93.0007 7.07353V7.86289C93.0007 8.93586 92.8314 9.90632 92.4927 10.7743C92.1539 11.6422 91.6675 12.3871 91.0333 13.0091C90.3991 13.6241 89.6424 14.0991 88.7632 14.434C87.8911 14.762 86.9146 14.926 85.8336 14.926ZM83.9743 0.00012207V14.926H81.2609V0.00012207H83.9743Z" fill="#F35150"/>
</svg>
