<svg width="40" height="37" viewBox="0 0 40 37" fill="none" xmlns="http://www.w3.org/2000/svg">
<path d="M36.505 12.4087C35.1435 12.3579 34.0937 11.7702 33.4494 10.5704C32.8229 9.40335 32.831 8.2043 33.5754 7.0923C34.3418 5.9475 35.17 4.8437 35.9879 3.73414C36.2828 3.334 36.7036 3.33088 36.9988 3.73121C37.8322 4.86137 38.6842 5.98137 39.4517 7.15573C40.1718 8.25749 40.1654 9.44854 39.5308 10.5989C38.88 11.7786 37.8443 12.3599 36.505 12.4087ZM36.5016 5.01147C35.8887 5.85498 35.3004 6.66141 34.7166 7.47097C34.6106 7.61795 34.506 7.77029 34.4296 7.93367C34.0433 8.75942 34.1204 9.5396 34.6577 10.2837C35.3725 11.2735 36.7098 11.5315 37.7407 10.8639C38.7618 10.2025 39.1329 8.82061 38.4875 7.81665C37.8774 6.86724 37.1856 5.97054 36.5016 5.01147Z" fill="#F35150"/>
<path d="M15.7162 17.7571C15.9095 17.9553 16.141 18.0593 16.4218 17.9337C16.8051 17.7622 16.8777 17.3001 16.5601 16.9607C16.2473 16.6265 15.9184 16.3079 15.6388 16.0255L14.8408 16.8206C15.1139 17.1143 15.4087 17.4419 15.7162 17.7571Z" fill="#F35150"/>
<path d="M18.2777 15.1901C18.424 15.3209 18.6755 15.426 18.8615 15.4025C19.3296 15.3435 19.4654 14.7827 19.1172 14.4042C18.8077 14.0678 18.4778 13.751 18.2018 13.4718L17.4053 14.2655C17.6764 14.5601 17.954 14.9007 18.2777 15.1901Z" fill="#F35150"/>
<path d="M20.8291 12.6433C21.1254 12.9303 21.45 12.945 21.6939 12.7123C21.9492 12.4686 21.9397 12.1169 21.645 11.8192C21.3342 11.5051 21.0054 11.2088 20.7324 10.9502L19.9482 11.7315C20.2249 12.0204 20.5175 12.3414 20.8291 12.6433Z" fill="#F35150"/>
<path d="M10.5698 22.8393C10.8952 23.1606 11.2422 23.1801 11.4905 22.9157C11.7286 22.6622 11.7016 22.3276 11.3954 22.0218C11.0868 21.7136 10.7622 21.4213 10.4972 21.1715C11.1144 20.5525 11.6709 19.9944 12.2998 19.3638C12.4936 19.587 12.7115 19.8444 12.9371 20.0949C13.0325 20.2008 13.1388 20.2987 13.2496 20.3883C13.5086 20.5976 13.7775 20.5979 14.0259 20.3777C14.2663 20.1647 14.2944 19.8254 14.0493 19.5772C13.7067 19.2303 13.3226 18.9242 13.0182 18.6553C13.6231 18.0461 14.1422 17.5231 14.6972 16.9641L9.70996 21.9336C9.97815 22.2174 10.2646 22.5378 10.5698 22.8393Z" fill="#F35150"/>
<path d="M36.4883 0.19002C36.2713 -0.0339606 36.0086 -0.0622632 35.747 0.117507C35.6304 0.197633 35.5301 0.303328 35.4292 0.404242C33.5328 2.29896 31.6349 4.1924 29.7454 6.09404C29.5595 6.28113 29.4186 6.3393 29.1471 6.23536C28.3825 5.94277 27.6621 6.08048 27.0285 6.60154C26.8082 6.78277 26.6249 7.00939 26.4018 7.18633C26.3153 7.25484 26.1318 7.30452 26.0494 7.25923C24.6614 6.49643 23.0865 6.76394 21.8575 7.99978C16.6546 13.2319 11.429 18.4413 6.2133 23.6606C5.36335 24.5112 5.36959 25.395 6.22033 26.2494C6.52756 26.558 6.83586 26.8655 7.10152 27.1314C5.83014 28.4034 4.60015 29.634 3.36635 30.8684C3.14501 30.6647 2.90687 30.4237 2.6463 30.2099C2.02159 29.6975 1.11112 29.717 0.555219 30.2985C0.314842 30.5499 0.18182 30.9041 0 31.2115C0 31.4198 0 31.628 0 31.8362C0.138976 32.0805 0.233936 32.3678 0.423954 32.5623C1.63355 33.7999 2.8491 35.0324 4.09402 36.2342C4.71795 36.8365 5.71235 36.7748 6.31744 36.1694C6.93922 35.5472 6.97543 34.6289 6.39717 33.9506C6.19642 33.7152 5.97849 33.4943 5.75353 33.2506C5.85064 33.1456 5.93438 33.0494 6.02407 32.9591C6.49184 32.4883 6.96645 32.0241 7.42807 31.5474C7.72574 31.24 7.73686 30.8996 7.48185 30.6523C7.24293 30.4206 6.90916 30.4417 6.61364 30.7131C6.48911 30.8275 6.37258 30.9505 6.25332 31.0704C5.80711 31.5191 5.3613 31.968 4.94945 32.3826C4.70624 32.146 4.50383 31.9491 4.33206 31.782C5.55815 30.5559 6.79546 29.3185 7.96202 28.1519C8.15359 28.3174 8.37504 28.5085 8.60439 28.7066C8.52124 28.794 8.44189 28.8789 8.36089 28.9623C8.2793 29.0463 8.19185 29.125 8.11456 29.2127C7.85798 29.5038 7.84139 29.8116 8.06478 30.0535C8.29569 30.3035 8.64538 30.3114 8.93104 30.0385C9.10798 29.8695 9.24383 29.6575 9.45747 29.3905C9.85107 29.8168 10.1487 30.1601 10.4686 30.4815C11.2672 31.2841 12.1513 31.2796 12.9606 30.4714C16.8375 26.6002 20.7122 22.7268 24.5876 18.854C24.6519 18.7897 24.719 18.727 24.7752 18.6558C24.9852 18.3904 24.9817 18.0484 24.7539 17.846C24.505 17.6251 24.2342 17.6292 23.9739 17.829C23.8612 17.9156 23.7645 18.0236 23.6633 18.1247C20.3776 21.4092 17.092 24.6937 13.8084 27.9804C13.6988 28.0902 13.6105 28.2213 13.5376 28.3114C11.7926 26.57 10.0921 24.8731 8.41818 23.2026C8.82368 22.8041 9.24764 22.3875 9.70985 21.9332L14.6971 16.9637C14.7446 16.9158 14.7919 16.8682 14.84 16.8197C14.8403 16.82 14.8405 16.8202 14.8408 16.8204L15.6388 16.0253C15.6358 16.0224 15.6326 16.0192 15.6298 16.0164C16.2244 15.4224 16.7821 14.8654 17.3945 14.2537C17.398 14.2575 17.4015 14.2616 17.405 14.2654L18.2016 13.4717C18.1985 13.4684 18.1949 13.4649 18.1918 13.4617C18.7886 12.8628 19.3454 12.3041 19.9327 11.715C19.9377 11.7203 19.9431 11.7261 19.9482 11.7314L20.7324 10.9501C21.1325 10.5526 21.4952 10.1924 21.8064 9.88318C23.4583 11.5412 25.1433 13.2326 26.8526 14.9485C26.4193 15.3774 25.9457 15.8403 25.4792 16.3103C25.1562 16.6358 25.1178 16.9824 25.3622 17.2356C25.6093 17.4917 25.9699 17.4661 26.2877 17.1508C27.1467 16.2983 28.0054 15.4453 28.8535 14.582C29.545 13.878 29.9101 13.0205 29.8074 12.0376C29.7496 11.4834 29.5278 10.9465 29.3682 10.3585C29.5308 10.1859 29.7453 9.95979 29.958 9.732C30.5908 9.05469 30.7335 8.27735 30.3829 7.42768C30.2796 7.17764 30.4116 7.07605 30.5486 6.93912C32.4539 5.03494 34.3585 3.12988 36.2622 1.22385C36.3628 1.12303 36.4685 1.02182 36.5452 0.903637C36.7047 0.657697 36.694 0.402192 36.4883 0.19002ZM5.46153 34.6568C5.67038 34.8666 5.72552 35.1186 5.48144 35.3385C5.2518 35.5455 5.00634 35.5131 4.78958 35.2964C3.64138 34.149 2.48848 33.006 1.3555 31.8438C1.24668 31.7321 1.20081 31.4824 1.24044 31.3257C1.27489 31.1897 1.47174 31.0947 1.61227 30.9677C1.7818 31.0724 1.91755 31.1256 2.0128 31.2198C3.16638 32.3613 4.31635 33.5068 5.46153 34.6568ZM12.5672 29.1985C12.5691 29.1965 12.5704 29.1941 12.5711 29.1924C12.572 29.1901 12.5719 29.1906 12.5711 29.1924C12.5696 29.1967 12.565 29.2109 12.5563 29.247C12.5506 29.2413 12.5448 29.2355 12.539 29.2298C11.7242 30.1323 11.6874 30.0748 10.9159 29.2931C9.6551 28.0156 8.38031 26.752 7.11177 25.4822C6.64838 25.0183 6.65092 24.8938 7.10327 24.4288C7.22039 24.3084 7.31369 24.165 7.38737 24.071C9.13062 25.8167 10.8187 27.5071 12.539 29.2299C12.5485 29.2193 12.5575 29.2093 12.5672 29.1985ZM27.7808 13.9872C26.0813 12.2907 24.3828 10.5953 22.6812 8.89688C23.5203 7.79972 24.9206 7.68211 25.944 8.6648C26.6091 9.30327 27.2606 9.95647 27.9019 10.6189C28.9738 11.726 28.9151 12.9775 27.7808 13.9872ZM29.196 8.81178C28.9995 9.06621 28.757 9.28502 28.5448 9.50958C28.0606 9.01956 27.6154 8.56886 27.1509 8.09865C27.3617 7.9019 27.5833 7.66191 27.8383 7.46487C28.2414 7.15334 28.76 7.20751 29.1118 7.56558C29.4404 7.90014 29.491 8.42979 29.196 8.81178Z" fill="#1C7ADD"/>
</svg>
