<svg width="45" height="52" viewBox="0 0 45 52" fill="none" xmlns="http://www.w3.org/2000/svg">
<path d="M23.3708 4.77862e-06C24.0492 0.128912 24.7277 0.230682 25.4062 0.390799C26.7957 0.721888 28.0427 1.32979 29.0794 2.34206C29.2001 2.46011 29.4322 2.48996 29.6221 2.50895C30.3589 2.58087 31.1229 2.53609 31.8339 2.70978C34.2994 3.3109 35.5315 5.0559 35.9685 7.44408C36.4678 10.1769 36.1761 12.8718 35.4664 15.5775C36.3593 16.1108 37.0242 16.8476 37.2955 17.8842C37.4273 18.3642 37.4598 18.866 37.3913 19.3589C37.3227 19.8519 37.1544 20.3257 36.8966 20.7514C40.8642 25.3297 39.1057 32.3925 33.2451 34.5052C33.811 34.7332 34.3185 34.9408 34.8287 35.143C36.0852 35.6423 37.3421 36.1398 38.5995 36.6356C39.3783 36.9296 40.0873 37.3822 40.6818 37.9648C41.2763 38.5473 41.7432 39.2471 42.0529 40.0197C43.4079 43.2044 44.1097 46.6286 44.1168 50.0895C44.1168 51.2578 43.4709 51.9362 42.3134 51.9376C36.6415 51.943 30.9705 51.943 25.3003 51.9376C24.6816 51.9376 24.3613 51.6743 24.3573 51.1926C24.3532 50.7109 24.6829 50.4273 25.284 50.4192C26.0778 50.4083 26.8716 50.4192 27.7007 50.4192V39.0889C24.843 40.1839 22.0301 40.1106 19.2227 38.8623V50.4097H21.2431C21.4982 50.4097 21.752 50.3975 22.0057 50.4097C22.5214 50.4463 22.8199 50.7544 22.805 51.2049C22.79 51.6553 22.4915 51.9118 21.9908 51.9213C21.0097 51.9389 20.0287 51.9444 19.0463 51.9471C13.5118 51.9634 7.97649 51.9774 2.44024 51.9892C0.9327 51.9892 -0.124343 50.8331 0.0235615 49.3567C0.067837 49.0399 0.162189 48.7321 0.303087 48.4449C1.20137 46.4217 2.15664 44.423 3.00472 42.3794C3.68318 40.7511 3.94778 39.0305 3.97899 37.2747C4.00613 35.7821 4.01427 34.2894 4.02919 32.8063C4.02919 32.6706 4.01699 32.5349 4.01156 32.425C3.99192 32.4069 3.97003 32.3914 3.94642 32.3789C3.2164 32.2079 2.9613 31.9583 3.02779 31.4752C3.09021 31.0138 3.40366 30.8239 4.11333 30.8225C6.05916 30.8225 8.00408 30.8225 9.9481 30.8225C10.1169 30.8163 10.2859 30.8258 10.4529 30.851C10.8396 30.9229 11.0947 31.2065 11.0363 31.5593C10.9929 31.8307 10.7297 32.0695 10.5221 32.2826C10.4339 32.3721 10.2371 32.3558 10.0865 32.3884V35.8988C11.0676 35.5161 11.9794 35.1199 12.9198 34.8064C13.2302 34.7107 13.5167 34.55 13.7603 34.335C14.0038 34.12 14.1988 33.8556 14.3323 33.5594C14.5467 33.1361 14.9538 32.767 15.3554 32.4902C15.9932 32.0519 16.7124 31.7262 17.3691 31.3178C17.5283 31.1936 17.6345 31.0137 17.6663 30.8144C17.8169 29.9093 17.5306 29.2417 16.8006 28.5849C14.909 26.8752 13.875 24.6431 13.3431 22.1721C13.2807 21.879 13.1898 21.7569 12.8723 21.7121C11.3037 21.491 10.1164 20.3186 9.81105 18.735C9.67798 17.9963 9.77861 17.2345 10.0989 16.5557C10.4193 15.8768 10.9433 15.3148 11.5981 14.9479C11.9401 14.7579 12.0242 14.6019 11.9373 14.207C11.3471 11.5244 11.305 8.85121 12.4638 6.29748C14.0921 2.70842 16.9932 0.773453 20.8062 0.0909204C20.9527 0.063782 21.0979 0.021716 21.2431 -0.012207L23.3708 4.77862e-06ZM13.4802 14.0089C15.0393 13.6873 16.5753 13.3752 18.11 13.059C18.6528 12.9464 19.0368 13.1242 19.1643 13.5692C19.2919 14.0143 19.0286 14.4051 18.5021 14.5259C17.3827 14.7796 16.2592 15.0211 15.1302 15.2328C14.8072 15.2939 14.6729 15.4052 14.639 15.7376C14.4599 17.4433 14.4042 19.1475 14.639 20.8505C15.0271 23.6213 16.1112 26.0407 18.2443 27.9228C20.3774 29.8048 22.7846 30.585 25.5717 29.8469C27.7781 29.2607 29.4308 27.8481 30.7022 26.0027C32.6942 23.1057 32.9357 19.8287 32.6644 16.4608C32.6549 16.3387 32.4608 16.1718 32.3211 16.1284C31.3468 15.8285 30.4634 15.3468 29.7904 14.5937C29.0495 13.7673 28.3955 12.8609 27.7333 11.9654C27.4619 11.6058 27.2814 11.1851 27.0358 10.7523C25.4347 11.9667 23.6666 12.7944 21.828 13.4878C21.2676 13.6981 20.8347 13.5706 20.6583 13.154C20.4629 12.6967 20.6814 12.2992 21.2703 12.0685C23.2677 11.2977 25.1864 10.3967 26.8079 8.94756C27.2665 8.54048 27.7726 8.68839 28.0508 9.24608C28.1865 9.53375 28.3141 9.83227 28.4579 10.1186C29.1079 11.4117 29.8664 12.6275 30.9492 13.6086C31.7376 14.325 32.6277 14.8 33.7418 14.7199C33.9928 14.7023 34.1325 14.6344 34.1936 14.3617C34.7025 12.0753 34.8884 9.77663 34.4148 7.46579C34.0457 5.66651 33.0375 4.41815 31.1473 4.10606C30.5055 4.00022 29.8325 4.04364 29.1771 4.08434C28.7605 4.11148 28.4986 3.98393 28.2096 3.68677C27.7938 3.24642 27.3226 2.86191 26.8079 2.54288C25.7753 1.92683 24.611 1.71109 23.4237 1.57811C16.5685 0.819587 11.2942 7.30025 13.4802 14.0089ZM36.6632 50.3853C36.788 50.3934 36.9346 50.4111 37.0839 50.4111C38.742 50.4111 40.4002 50.4002 42.0583 50.4219C42.4831 50.4219 42.6011 50.3011 42.593 49.8791C42.5536 47.1829 42.0054 44.5871 41.213 42.0185C40.5182 39.766 39.2142 38.2476 36.9156 37.5868C36.0187 37.329 35.1665 36.9178 34.294 36.5759C34.963 37.7265 34.5749 38.6818 33.8245 39.538C33.2655 40.1758 33.1786 40.7484 33.7092 41.4526C34.3876 42.3469 34.3591 43.2764 33.8815 44.309C33.0389 46.1327 32.3116 48.0093 31.5395 49.8724C31.473 50.0311 31.4268 50.198 31.3617 50.3866H35.1421C34.9888 49.3567 34.8476 48.377 34.697 47.4014C34.6238 46.9292 34.8327 46.552 35.2317 46.4448C35.6591 46.3321 36.0458 46.5805 36.1815 47.0635C36.2234 47.2097 36.256 47.3583 36.2792 47.5086C36.404 48.4489 36.5302 49.3988 36.6632 50.3853ZM5.38205 38.9016C5.14459 41.4106 4.21781 43.6685 3.14991 45.8844C2.64513 46.9333 2.16886 47.9971 1.68443 49.0568C1.2855 49.9253 1.64237 50.4789 2.60578 50.4803C5.54759 50.4803 8.49031 50.4803 11.4339 50.4803C12.4191 50.4803 12.7705 49.9239 12.3566 49.0243C11.6782 47.5317 10.9264 46.073 10.3213 44.5546C9.76899 43.1814 9.34563 41.7552 8.90327 40.3481C8.75944 39.8895 8.73094 39.3983 8.64817 38.9084L5.38205 38.9016ZM19.2308 30.5077C19.2138 30.5869 19.202 30.6671 19.1955 30.7479C19.1955 32.7602 19.1874 34.7739 19.2077 36.7862C19.2215 36.8849 19.2569 36.9793 19.3113 37.0628C19.3657 37.1463 19.4378 37.2168 19.5226 37.2693C22.0804 38.6031 24.6911 38.6723 27.3466 37.5623C27.637 37.4416 27.7401 37.276 27.7374 36.9558C27.7211 35.1633 27.7292 33.3708 27.7279 31.577V30.6678C24.8118 31.999 22.0111 31.942 19.2308 30.5077ZM35.8491 21.9591C35.2995 22.1328 34.8124 22.3431 34.3049 22.4272C33.9439 22.4883 33.8069 22.6131 33.7133 22.9605C33.0633 25.3894 31.857 27.4994 29.9139 29.1101C29.3494 29.5755 29.116 30.0219 29.2205 30.7302C29.268 31.0491 29.3562 31.2337 29.6357 31.3992C30.5367 31.9243 31.4106 32.497 32.3088 33.0275C32.4228 33.0954 32.6291 33.0628 32.7729 33.0167C33.871 32.6578 34.8593 32.0245 35.6442 31.1767C38.0473 28.6284 38.1341 24.3473 35.8491 21.9645V21.9591ZM17.6486 32.9366C17.0068 33.303 16.4369 33.6151 15.8751 33.9543C15.7834 34.0284 15.712 34.1246 15.6675 34.2338C15.0908 35.3194 14.506 36.4049 13.9619 37.5162C13.9238 37.6269 13.9088 37.7442 13.9179 37.8609C13.927 37.9776 13.96 38.0912 14.0148 38.1947C14.2495 38.6221 14.5644 39.0088 14.829 39.4159C15.0322 39.7 15.1508 40.0358 15.1709 40.3845C15.1911 40.7333 15.1121 41.0805 14.9429 41.3862C14.7313 41.8095 14.4816 42.2139 14.2875 42.644C14.2042 42.8209 14.1888 43.0223 14.2441 43.2099C15.1931 45.5221 16.1574 47.8288 17.1371 50.1302C17.1968 50.2659 17.4085 50.3513 17.6432 50.5372L17.6486 32.9366ZM29.2883 50.3622C29.6669 50.5223 29.7334 50.2401 29.8311 50.008C30.5991 48.1681 31.2952 46.2941 32.1582 44.5003C32.6874 43.4012 32.8095 42.4541 32.009 41.4839C31.9907 41.4556 31.9752 41.4256 31.9628 41.3943C31.7895 41.0895 31.7071 40.7413 31.7257 40.3912C31.7442 40.041 31.8628 39.7034 32.0673 39.4186C32.3387 39.0115 32.6101 38.6045 32.9059 38.2096C32.9929 38.107 33.0438 37.9786 33.0506 37.8442C33.0575 37.7099 33.02 37.577 32.9439 37.466C32.4839 36.6193 31.9669 35.7916 31.6195 34.8987C31.1907 33.7996 30.2083 33.4956 29.2883 32.9597V50.3622ZM15.5671 50.3907C15.483 50.1722 15.4314 50.0162 15.3622 49.8629C14.6933 48.2576 14.0148 46.6551 13.3526 45.0458C12.4462 42.8435 12.2671 43.0606 13.5046 40.8692C13.5853 40.7506 13.6237 40.6084 13.6136 40.4653C13.6035 40.3223 13.5455 40.1868 13.449 40.0808C13.1613 39.7049 12.9062 39.3087 12.6348 38.9138C12.4364 38.6368 12.3186 38.3102 12.2947 37.9703C12.2707 37.6304 12.3415 37.2905 12.4991 36.9884C12.5588 36.8635 12.6131 36.7346 12.7094 36.5175C11.8437 36.8595 11.0716 37.1498 10.3172 37.4782C10.2512 37.5269 10.1983 37.5911 10.1632 37.6652C10.1282 37.7394 10.1121 37.821 10.1164 37.9029C10.3389 39.1988 10.4284 40.5476 10.8681 41.7688C11.5859 43.7662 12.529 45.6835 13.392 47.628C13.78 48.5032 14.278 49.3459 13.9632 50.3907H15.5671ZM5.54759 32.3898V37.3181H8.50298V32.3898H5.54759ZM13.0107 20.1775V16.0795C12.1015 16.1515 11.3267 17.0022 11.282 17.9914C11.2331 19.0906 11.9387 19.9943 13.0107 20.172V20.1775ZM34.214 20.898C34.6929 20.8115 35.125 20.5564 35.4319 20.1787C35.7388 19.8011 35.9003 19.326 35.8871 18.8395C35.8957 18.3581 35.7317 17.8894 35.4249 17.5183C35.118 17.1473 34.6885 16.8983 34.214 16.8164V20.898Z" fill="#009DD9"/>
<path d="M2.58149 19C1.89789 19.0094 1.24508 19.2859 0.762598 19.7702C0.280118 20.2546 0.00624418 20.9085 -0.000494003 21.5921C0.0153618 22.2757 0.297701 22.926 0.786289 23.4043C1.27488 23.8826 1.93104 24.1511 2.61478 24.1524C3.29838 24.1426 3.95103 23.8658 4.43324 23.3811C4.91545 22.8965 5.18896 22.2425 5.19531 21.5588C5.17946 20.8756 4.89727 20.2257 4.40895 19.7477C3.92064 19.2696 3.26485 19.0013 2.58149 19ZM1.73626 21.5646C1.74709 21.3374 1.8453 21.1233 2.01037 20.9668C2.17544 20.8104 2.39459 20.7238 2.62201 20.7252C2.83978 20.7363 3.04574 20.8276 3.2002 20.9815C3.35465 21.1355 3.44668 21.3411 3.45855 21.5588C3.45563 21.7865 3.36457 22.0041 3.20453 22.1661C3.04448 22.328 2.82791 22.4216 2.60031 22.4272C2.37279 22.4228 2.15579 22.3305 1.99475 22.1697C1.8337 22.009 1.74108 21.7921 1.73626 21.5646Z" fill="#F35150"/>
<path d="M5.20017 25.9167C5.21411 26.5999 5.49418 27.2507 5.98075 27.7305C6.46732 28.2103 7.12197 28.4812 7.80531 28.4856C8.48893 28.4781 9.14251 28.2035 9.62634 27.7205C10.1102 27.2375 10.3859 26.5844 10.3945 25.9008C10.3813 25.2174 10.1014 24.5664 9.61466 24.0866C9.12789 23.6069 8.47283 23.3365 7.78939 23.3333C7.10601 23.3407 6.45265 23.6152 5.96886 24.0979C5.48507 24.5806 5.20919 25.2333 5.20017 25.9167ZM7.80531 26.759C7.57776 26.7557 7.36031 26.6646 7.19846 26.5046C7.0366 26.3446 6.94288 26.1282 6.93693 25.9008C6.94688 25.6828 7.03707 25.4762 7.19016 25.3207C7.34325 25.1652 7.54843 25.0718 7.76623 25.0584C7.9936 25.0554 8.21336 25.1403 8.37971 25.2953C8.54607 25.4504 8.64619 25.6636 8.65922 25.8906C8.6563 26.118 8.56546 26.3355 8.40572 26.4974C8.24599 26.6593 8.02976 26.753 7.80241 26.759H7.80531Z" fill="#F35150"/>
</svg>
