<svg width="52" height="48" viewBox="0 0 52 48" fill="none" xmlns="http://www.w3.org/2000/svg">
<path d="M11.2069 35.2411L9.25138 32.2243C8.75473 32.449 8.24331 32.6899 7.72449 32.9146C5.48958 33.8842 3.07878 33.3092 1.5312 31.4365C1.13211 30.9531 0.73893 30.4653 0.348709 29.9672C-0.0799439 29.41 0.0353495 28.9414 0.673894 28.6369C1.4026 28.2836 2.12983 27.923 2.8748 27.6022C3.53502 27.3106 4.2495 27.1621 4.97124 27.1664C5.69298 27.1708 6.40563 27.3278 7.0623 27.6274C7.2441 27.7072 7.42296 27.7959 7.63137 27.8919C7.4673 26.7094 7.30914 25.561 7.13916 24.3282H5.8665C3.01227 24.3282 1.08185 22.8087 0.407833 20.0417C0.27776 19.5051 0.126992 18.973 0.0131777 18.4335C-0.0962027 17.9191 0.160989 17.4831 0.663547 17.4786C1.85786 17.4668 3.06548 17.4417 4.24797 17.5821C5.4615 17.7299 6.43262 18.4232 7.21306 19.3632C7.30471 19.4726 7.39931 19.579 7.50869 19.7135L8.58771 16.2888C8.14427 16.0759 7.65502 15.8527 7.17759 15.6192C4.86582 14.4943 3.74985 12.2284 4.26423 9.70673C4.38248 9.12878 4.48299 8.54789 4.62045 7.97586C4.76827 7.35209 5.19987 7.13186 5.78521 7.38461C6.60999 7.74971 7.44217 8.10888 8.23296 8.54049C9.69777 9.34163 10.5329 10.6202 10.864 12.2727L13.2881 9.60326C12.9807 9.23225 12.6525 8.84055 12.3303 8.44442C10.6674 6.40167 10.5979 3.95391 12.1426 1.81804C12.4884 1.34061 12.8269 0.85727 13.1905 0.391665C13.5837 -0.112372 14.0774 -0.137501 14.4972 0.344364C15.0884 1.0243 15.6886 1.7057 16.2266 2.4285C16.8662 3.27386 17.2226 4.2996 17.2449 5.35944C17.2672 6.41927 16.9543 7.45909 16.3508 8.3306C15.6558 9.30224 14.8853 10.2176 14.0464 11.0681C9.19373 16.0582 7.50277 21.9381 9.54848 28.594C11.5735 35.1776 16.1896 39.2231 22.9653 40.4869C25.2695 40.9205 27.6382 40.876 29.9244 40.3561C32.2106 39.8362 34.3657 38.8521 36.2557 37.4647C38.1458 36.0773 39.7306 34.3163 40.9118 32.291C42.093 30.2657 42.8454 28.0192 43.1223 25.691C43.8422 19.718 41.8231 14.6924 37.4286 10.5714C36.1678 9.38893 35.0844 8.00986 34.8331 6.18439C34.7332 5.54467 34.7614 4.89149 34.9159 4.26274C35.0704 3.63399 35.3482 3.04217 35.7332 2.52162C36.2846 1.76187 36.9157 1.05534 37.5262 0.344364C37.8839 -0.0680294 38.3791 -0.128632 38.6791 0.26159C39.566 1.40861 40.58 2.47876 40.8608 3.98939C41.0158 4.72254 41.0078 5.48078 40.8375 6.2105C40.6671 6.94023 40.3385 7.62362 39.8749 8.21235C39.5069 8.69422 39.1078 9.14948 38.7249 9.6136C39.5349 10.5005 40.3213 11.3755 41.1387 12.2742C41.1964 12.051 41.2422 11.8456 41.3028 11.6445C41.4975 10.9586 41.833 10.3208 42.2877 9.77164C42.7425 9.22247 43.3066 8.774 43.9442 8.45476C44.664 8.08524 45.406 7.75562 46.1451 7.42009C46.8161 7.12446 47.2862 7.32696 47.4029 8.05124C47.5862 9.19086 47.8567 10.3482 47.8006 11.4849C47.7119 13.2586 46.7067 14.5786 45.1562 15.4462C44.596 15.7581 44.0018 16.0109 43.4268 16.2888C43.7801 17.4254 44.1245 18.5384 44.4748 19.6677C44.5088 19.65 44.5679 19.6367 44.5945 19.5997C45.7386 18.0891 47.267 17.3959 49.1486 17.4358C49.7945 17.4491 50.4405 17.4254 51.0849 17.4358C51.8314 17.455 52.1196 17.8363 51.954 18.5503C51.8062 19.1607 51.6717 19.7712 51.5106 20.3743C50.8617 22.7585 48.9165 24.2691 46.4496 24.312C45.9189 24.3208 45.3883 24.312 44.868 24.312L44.3905 27.7663C45.0823 27.5786 45.7874 27.3406 46.5102 27.2046C47.397 27.0391 48.2765 27.2164 49.1028 27.5727C49.8418 27.8934 50.5809 28.2378 51.3096 28.5926C51.9999 28.9266 52.093 29.3952 51.6052 30.013C51.2298 30.4919 50.8529 30.9708 50.4626 31.4379C48.9062 33.3048 46.4895 33.8709 44.2649 32.8909C43.7609 32.6692 43.2642 32.4342 42.7617 32.2036L40.8401 35.1687C41.4314 35.2426 42.0477 35.2781 42.6434 35.4007C43.5734 35.5931 44.4181 36.076 45.0557 36.7798C45.6809 37.4568 46.2677 38.1693 46.8501 38.8847C47.1901 39.3015 47.1724 39.8203 46.7555 40.042C45.6218 40.6421 44.528 41.3575 43.2081 41.5083C41.3663 41.7182 39.8365 41.1077 38.6052 39.7346C38.2372 39.3237 37.8913 38.8935 37.5262 38.4604L34.4754 40.382C34.6232 40.4559 34.7562 40.5195 34.8848 40.5786C35.586 40.88 36.2103 41.3355 36.7113 41.9113C37.2123 42.487 37.5773 43.1682 37.7789 43.9043C37.9992 44.6434 38.2002 45.3928 38.3909 46.1422C38.5816 46.8916 38.3007 47.2996 37.5262 47.3069C36.4915 47.3173 35.4361 47.4104 34.4428 47.205C32.4385 46.7881 31.16 45.4756 30.5658 43.5097C30.418 43.0012 30.2864 42.4839 30.1445 41.9577C29.166 42.073 28.223 42.206 27.274 42.2917C25.6361 42.4327 23.9863 42.3266 22.38 41.9769C22.0208 41.9015 21.8419 41.9636 21.768 42.3567C21.6685 42.8254 21.5402 43.2874 21.3837 43.7403C21.0722 44.7427 20.4608 45.6255 19.632 46.2696C18.8031 46.9137 17.7967 47.2881 16.7484 47.3424C15.9559 47.3705 15.1625 47.3557 14.3716 47.2981C13.7522 47.2626 13.4684 46.8886 13.6177 46.2797C13.828 45.3271 14.0916 44.387 14.407 43.4639C14.9495 41.9857 16.033 40.9984 17.5687 40.4145L14.4957 38.4737C14.1853 38.8433 13.869 39.2232 13.5483 39.6015C11.8573 41.594 9.40954 42.1143 7.0623 40.9791C6.53165 40.722 6.00101 40.4633 5.47924 40.1898C4.88799 39.878 4.76679 39.3931 5.18362 38.8802C5.74086 38.1929 6.29959 37.5026 6.90266 36.8567C7.95508 35.7304 9.28538 35.2308 10.8197 35.2308L11.2069 35.2411ZM15.4151 45.7357C18.0343 46.1791 19.9869 44.701 20.2382 41.7537C17.214 41.3575 15.7122 43.1032 15.4151 45.7401V45.7357ZM43.6323 30.8659C46.7674 32.8067 48.7732 31.4897 49.8256 29.6908C47.4207 28.1417 45.2227 28.4093 43.6323 30.8659ZM14.3657 8.3986C16.2783 6.44453 16.1394 4.0899 13.8897 2.1314C12.0036 4.27318 12.1633 6.3721 14.3597 8.39416L14.3657 8.3986ZM37.671 8.41929C39.8291 6.14596 39.9873 3.31833 38.0465 2.15505C35.887 4.54664 35.7658 6.41497 37.6651 8.41486L37.671 8.41929ZM5.9951 9.22634C5.10823 11.8648 6.29072 13.9563 9.04592 14.7205C9.71107 12.8891 9.58839 10.4384 5.98919 9.22191L5.9951 9.22634ZM46.0135 9.24556C42.4409 10.3896 42.2739 12.9985 43.0159 14.7353C46.42 13.6104 46.7407 11.207 46.0076 9.24112L46.0135 9.24556ZM2.18748 29.6908C3.55178 32.0307 5.95076 32.4859 8.35712 30.8615C6.91301 28.5024 4.57611 28.059 2.18748 29.6908ZM36.6172 45.752C36.2151 42.7736 34.4488 41.3472 31.7394 41.7744C32.0557 44.6523 33.893 46.1614 36.6172 45.752ZM45.1 22.7259C47.9676 23.1694 50.1581 21.5701 50.1626 19.0425C47.2285 18.6656 45.3691 20.018 45.1 22.7259ZM1.81204 19.0735C2.20965 21.8539 3.97008 23.1176 6.91153 22.7333C6.64695 20.0668 4.81704 18.599 1.81204 19.0735ZM7.01204 39.1758C9.18782 40.6909 11.541 40.2209 13.0915 37.6297C10.7546 36.1176 8.66014 36.6527 7.01204 39.1685V39.1758ZM45.0261 39.1892C42.9228 35.9654 40.3568 36.5596 38.9141 37.6977C40.8682 40.5549 43.0366 40.4515 45.0217 39.1818L45.0261 39.1892Z" fill="#009DD9"/>
<path d="M22 17.5859V29H20.1172V19.8203L17.3281 20.7656V19.2109L21.7734 17.5859H22ZM26.6497 23.7109L25.1497 23.3438L25.7669 17.625H31.8997V19.2188H27.3294L27.0169 22.0078C27.194 21.9036 27.4388 21.8021 27.7513 21.7031C28.0638 21.599 28.4205 21.5469 28.8216 21.5469C29.358 21.5469 29.8372 21.6354 30.2591 21.8125C30.6861 21.9844 31.0481 22.237 31.345 22.5703C31.6419 22.8984 31.8684 23.2995 32.0247 23.7734C32.1809 24.2422 32.2591 24.7708 32.2591 25.3594C32.2591 25.8854 32.1809 26.3776 32.0247 26.8359C31.8736 27.2943 31.6445 27.6979 31.3372 28.0469C31.0299 28.3958 30.6419 28.6693 30.1731 28.8672C29.7096 29.0599 29.1601 29.1562 28.5247 29.1562C28.0507 29.1562 27.595 29.0885 27.1575 28.9531C26.7252 28.8125 26.3372 28.6068 25.9934 28.3359C25.6497 28.0599 25.3736 27.7214 25.1653 27.3203C24.957 26.9141 24.8372 26.4479 24.8059 25.9219H26.6497C26.6966 26.2917 26.7981 26.6068 26.9544 26.8672C27.1158 27.1224 27.3294 27.3177 27.595 27.4531C27.8606 27.5885 28.1679 27.6562 28.5169 27.6562C28.8346 27.6562 29.108 27.6016 29.3372 27.4922C29.5664 27.3776 29.7565 27.2161 29.9075 27.0078C30.0638 26.7943 30.1783 26.5443 30.2513 26.2578C30.3294 25.9714 30.3684 25.6536 30.3684 25.3047C30.3684 24.9714 30.3242 24.6667 30.2356 24.3906C30.1523 24.1146 30.0247 23.875 29.8528 23.6719C29.6861 23.4688 29.4752 23.3125 29.22 23.2031C28.9648 23.0885 28.6705 23.0312 28.3372 23.0312C27.8893 23.0312 27.5455 23.0964 27.3059 23.2266C27.0716 23.3568 26.8528 23.5182 26.6497 23.7109Z" fill="#F35150"/>
</svg>
