<svg width="16" height="16" viewBox="0 0 16 16" xmlns="http://www.w3.org/2000/svg">
<path d="M0.818531 16C0.609167 16 0.399804 15.9204 0.2406 15.7601C-0.078898 15.4406 -0.078898 14.9215 0.2406 14.602L14.6028 0.239868C14.9223 -0.0796304 15.4402 -0.0796304 15.7597 0.239868C16.0792 0.559366 16.0792 1.07732 15.7597 1.39682L1.39646 15.7601C1.23726 15.9204 1.0279 16 0.818531 16Z" />
<path d="M15.1808 15.9999C14.9714 15.9999 14.7621 15.9203 14.6029 15.76L0.239624 1.3978C-0.0798746 1.0783 -0.0798746 0.560343 0.239624 0.240845C0.559122 -0.0786539 1.07709 -0.0786539 1.39658 0.240845L15.7587 14.603C16.0782 14.9225 16.0782 15.4416 15.7587 15.7611C15.5995 15.9203 15.3902 15.9999 15.1808 15.9999Z" />
</svg>
