<svg width="20" height="19" viewBox="0 0 20 19" fill="none" xmlns="http://www.w3.org/2000/svg">
<path d="M19.6236 7.89208L10.5194 1.20091C10.3769 1.05955 10.1843 0.980225 9.98358 0.980225C9.78286 0.980225 9.59028 1.05955 9.44779 1.20091L0.408995 7.85118C0.316332 7.9337 0.23394 8.02708 0.163598 8.1293L0.0572594 8.25199L0 8.30925V8.66099V8.75915C0.0460798 8.87473 0.117922 8.97828 0.210059 9.06192C0.302196 9.14555 0.412199 9.20706 0.531694 9.24176H0.662573C0.870633 9.22892 1.06881 9.1485 1.22699 9.01273L9.97949 2.62422C9.97949 2.62422 9.97949 2.62422 10.0449 2.62422L15.7709 6.82869L18.8138 9.0618C18.9286 9.1665 19.0739 9.23171 19.2285 9.2479C19.383 9.26409 19.5387 9.23041 19.6727 9.15178C19.7743 9.0912 19.8581 9.00481 19.9156 8.90137C19.9731 8.79793 20.0021 8.68114 19.9999 8.56283C19.997 8.42875 19.9611 8.29744 19.8955 8.18047C19.8299 8.06351 19.7365 7.96447 19.6236 7.89208Z" fill="#0E3F60"/>
<path d="M17.5869 9.03719C17.4726 8.93229 17.3247 8.87141 17.1697 8.86541C17.0748 8.85796 16.9793 8.87009 16.8893 8.90104C16.7992 8.932 16.7165 8.98113 16.6462 9.04537C16.5663 9.12565 16.504 9.22162 16.4632 9.32722C16.4224 9.43283 16.4039 9.54576 16.409 9.65887V17.5034H12.7362V14.7549C12.7362 14.1905 12.7362 13.6179 12.7362 13.0453C12.7152 12.6444 12.6035 12.2535 12.4094 11.9021C12.2152 11.5506 11.9438 11.2479 11.6155 11.0167C11.2897 10.776 10.9145 10.6108 10.5169 10.533C10.1194 10.4552 9.7095 10.4667 9.31698 10.5668C8.70639 10.7212 8.1668 11.0794 7.78749 11.5822C7.40819 12.0849 7.2119 12.7021 7.23111 13.3316C7.23111 14.714 7.23111 16.0883 7.23111 17.4625H3.55015V9.51163C3.53304 9.3419 3.45622 9.18377 3.33337 9.06542C3.21052 8.94706 3.04964 8.87618 2.8794 8.86541C2.70194 8.85251 2.52629 8.90814 2.3886 9.02083C2.24957 9.13628 2.15905 9.2998 2.13502 9.47891C2.12687 9.5769 2.12687 9.67539 2.13502 9.77338V18.2314C2.13486 18.3263 2.1541 18.4201 2.19158 18.5073C2.22905 18.5944 2.28395 18.673 2.35291 18.7381C2.42187 18.8032 2.50343 18.8536 2.59256 18.886C2.6817 18.9184 2.77653 18.9323 2.87122 18.9267H7.91822C8.01962 18.926 8.11981 18.9046 8.21265 18.8638C8.30548 18.823 8.38901 18.7637 8.45809 18.6895C8.58181 18.5306 8.64812 18.3346 8.64623 18.1333C8.64623 17.2335 8.64623 16.3337 8.64623 15.4257V13.2989C8.64383 13.1141 8.67965 12.9308 8.75144 12.7605C8.82323 12.5901 8.92944 12.4365 9.06341 12.3092C9.19102 12.1862 9.34256 12.0908 9.50861 12.0289C9.67466 11.967 9.85167 11.9399 10.0286 11.9492C10.3773 11.9641 10.7059 12.1159 10.9433 12.3717C11.1807 12.6275 11.3076 12.9665 11.2965 13.3153C11.2965 14.3787 11.2965 15.4421 11.2965 16.5054V18.0924C11.2834 18.2029 11.2955 18.3151 11.3319 18.4203C11.3684 18.5255 11.4282 18.6211 11.507 18.6999C11.5857 18.7786 11.6813 18.8385 11.7866 18.8749C11.8918 18.9114 12.0039 18.9235 12.1145 18.9103H16.9407C17.5378 18.9103 17.8077 18.6486 17.8077 18.0515V9.71612C17.8155 9.62085 17.8155 9.5251 17.8077 9.42983C17.7822 9.27717 17.7041 9.13826 17.5869 9.03719Z" fill="#0E3F60"/>
</svg>
