<svg width="18" height="18" viewBox="0 0 18 18" xmlns="http://www.w3.org/2000/svg">
<path d="M0 9.52936V8.47286C0.0110062 8.4108 0.0233332 8.34872 0.0325785 8.28621C0.0889303 7.89883 0.120628 7.50617 0.203835 7.12451C0.67358 4.96398 1.78389 3.19435 3.54444 1.86097C5.73468 0.202274 8.20139 -0.347983 10.8909 0.212839C13.0437 0.661409 14.7941 1.78965 16.1329 3.52935C17.5787 5.40815 18.1796 7.54799 17.9538 9.90221C17.7706 11.8101 17.0292 13.4947 15.7578 14.9329C14.364 16.5093 12.6276 17.4914 10.5519 17.8603C10.2133 17.9206 9.86949 17.9545 9.5283 18.0007H8.4717C8.42731 17.9876 8.38198 17.9778 8.3361 17.9716C6.92731 17.8721 5.61097 17.4698 4.40909 16.7333C2.07577 15.3044 0.641882 13.2451 0.138678 10.5502C0.0774838 10.213 0.0462261 9.86963 0 9.52936ZM9.00352 1.40095C4.81148 1.39831 1.40703 4.79714 1.39823 8.99539C1.38942 13.1809 4.78814 16.5881 8.98987 16.6026C13.1802 16.6171 16.6062 13.1958 16.6062 8.99979C16.6062 4.80375 13.1995 1.40404 9.00352 1.40095Z" />
<path d="M8.30044 6.95715C8.30044 6.27747 8.29604 5.59823 8.30044 4.91856C8.30529 4.38679 8.77459 4.04783 9.2461 4.22524C9.53314 4.33309 9.69779 4.59237 9.69823 4.94937C9.69823 6.13793 9.70175 7.32648 9.69515 8.51504C9.69088 8.57737 9.70361 8.63969 9.73199 8.69535C9.76037 8.75102 9.80333 8.79794 9.85628 8.8311C10.6285 9.4019 11.3972 9.97769 12.1623 10.5585C12.4366 10.7654 12.5383 11.0427 12.4586 11.3249C12.323 11.8091 11.7793 11.9975 11.3619 11.6964C10.9217 11.3777 10.4889 11.0449 10.0535 10.7183C9.58949 10.3705 9.12899 10.0166 8.66057 9.67674C8.40478 9.49097 8.29428 9.25238 8.29692 8.94115C8.30485 8.28084 8.30044 7.61878 8.30044 6.95715Z" />
</svg>
