<svg width="16" height="20" viewBox="0 0 16 20" xmlns="http://www.w3.org/2000/svg">
<path d="M0 8.19948C0.00520727 4.07341 2.85684 0.727578 6.74147 0.101824C11.0297 -0.588462 15.1232 2.31217 15.8653 6.58946C16.2949 9.06641 15.6934 11.2865 14.0675 13.2042C12.2208 15.38 10.3495 17.535 8.48721 19.6977C8.13767 20.1038 7.86364 20.1018 7.51084 19.6905C5.62776 17.503 3.73557 15.3233 1.86681 13.1234C0.684606 11.7536 0.0234586 10.0098 0 8.19948ZM8.00488 18.7219C8.0908 18.6248 8.16631 18.5427 8.23921 18.4612C9.92116 16.5057 11.6096 14.5581 13.2831 12.5948C14.6761 10.9619 15.241 9.06119 14.9104 6.94536C14.3037 3.05004 10.7101 0.450552 6.8391 1.12324C4.19902 1.57952 2.34783 3.11718 1.43656 5.62997C0.525283 8.14277 0.975062 10.4978 2.69086 12.5537C4.36825 14.5646 6.10097 16.5298 7.81026 18.514C7.8708 18.5785 7.92938 18.6405 8.00488 18.7219Z" />
<path d="M11.502 8.00893C11.4992 8.47175 11.4052 8.92946 11.2253 9.35579C11.0453 9.78211 10.7831 10.1687 10.4536 10.4932C10.1241 10.8178 9.73386 11.074 9.30523 11.2471C8.8766 11.4202 8.41805 11.5069 7.95589 11.5021C6.03832 11.4786 4.47679 9.88293 4.49827 7.96982C4.51199 7.0398 4.89274 6.15303 5.55732 5.50326C6.22191 4.8535 7.1163 4.49356 8.04507 4.5021C9.95679 4.52752 11.5229 6.11602 11.502 8.00893ZM7.97933 10.4956C8.4719 10.4991 8.95445 10.3562 9.36596 10.0851C9.77748 9.814 10.0995 9.42679 10.2913 8.97243C10.4831 8.51807 10.536 8.01697 10.4435 7.53247C10.3509 7.04798 10.117 6.60183 9.77131 6.25044C9.4256 5.89905 8.98361 5.65819 8.50123 5.5583C8.01884 5.45842 7.51771 5.504 7.06119 5.68927C6.60467 5.87455 6.21325 6.19121 5.93641 6.59922C5.65957 7.00723 5.50975 7.48828 5.50587 7.98155C5.50226 8.30959 5.56351 8.63509 5.68607 8.93932C5.80864 9.24355 5.9901 9.52049 6.22002 9.75418C6.44993 9.98787 6.72375 10.1737 7.02569 10.301C7.32763 10.4282 7.65173 10.4944 7.97933 10.4956Z" />
</svg>
