<svg width="24" height="14" viewBox="0 0 24 14" xmlns="http://www.w3.org/2000/svg">
<path d="M19.916 8.02818C19.528 7.53833 19.6388 7.32004 19.916 6.88214C19.9209 6.87721 23.1242 2.45119 23.4542 0.9501L23.4562 0.949113C23.6203 0.402066 23.4562 0 22.6632 0H20.039C19.3709 0 19.0628 0.344863 18.8978 0.731149C18.8978 0.731149 17.5617 3.92927 15.6716 6.00207C15.0617 6.60106 14.7796 6.79305 14.4466 6.79305C14.2825 6.79305 14.0274 6.60106 14.0274 6.05401V0.949113C14.0274 0.293248 13.8403 0 13.2873 0H9.16122C8.74204 0 8.49316 0.306069 8.49316 0.591099C8.49316 1.2131 9.43805 1.35611 9.53635 3.10607V6.90318C9.53635 7.73526 9.38544 7.88813 9.05043 7.88813C8.15847 7.88813 5.99318 4.67719 4.71031 1.00204C4.45124 0.288974 4.19841 0.000985721 3.52542 0.000985721H0.900177C0.151235 0.000985721 0 0.345849 0 0.732135C0 1.41397 0.891958 4.80507 4.14811 9.28501C6.31833 12.3431 9.37427 14 12.1544 14C13.8255 14 14.0293 13.6321 14.0293 12.9989C14.0293 10.077 13.8784 9.80082 14.7155 9.80082C15.1034 9.80082 15.7715 9.99281 17.3315 11.4679C19.1145 13.2169 19.4077 14 20.4055 14H23.0298C23.7777 14 24.1568 13.6321 23.9388 12.9059C23.4401 11.3792 20.0679 8.23825 19.916 8.02818Z"/>
</svg>
