<svg width="20" height="19" viewBox="0 0 20 19" xmlns="http://www.w3.org/2000/svg">
<path d="M19.7603 3.56764C19.6465 3.40458 19.4634 3.3038 19.2646 3.2953L6.93594 2.76388C6.58221 2.7484 6.28661 3.0215 6.27149 3.37358C6.25646 3.72553 6.5291 4.02291 6.88115 4.03803L18.3751 4.53351L16.1152 11.5847H6.05809L4.24113 1.69153C4.20119 1.4747 4.05232 1.29381 3.84701 1.21326L0.871147 0.0441619C0.543169 -0.084245 0.17307 0.076853 0.044263 0.404431C-0.0843219 0.732187 0.0767317 1.10251 0.404532 1.23132L3.05055 2.2708L4.89958 12.3377C4.95531 12.6403 5.21906 12.8601 5.52689 12.8601H5.83361L5.13322 14.8055C5.0746 14.9685 5.09875 15.1495 5.19851 15.2911C5.29814 15.4327 5.46017 15.5169 5.63315 15.5169H6.1244C5.82 15.8557 5.63315 16.3018 5.63315 16.7923C5.63315 17.8472 6.49152 18.7054 7.54622 18.7054C8.60092 18.7054 9.45929 17.8472 9.45929 16.7923C9.45929 16.3018 9.27244 15.8557 8.96808 15.5169H13.1391C12.8345 15.8557 12.6477 16.3018 12.6477 16.7923C12.6477 17.8472 13.5059 18.7054 14.5608 18.7054C15.6158 18.7054 16.4739 17.8472 16.4739 16.7923C16.4739 16.3018 16.2871 15.8557 15.9827 15.5169H16.5802C16.8737 15.5169 17.1116 15.279 17.1116 14.9855C17.1116 14.692 16.8737 14.4541 16.5802 14.4541H6.38927L6.96312 12.8599H16.5801C16.8574 12.8599 17.1028 12.6808 17.1873 12.4169L19.8443 4.12685C19.9054 3.93765 19.874 3.73078 19.7603 3.56764ZM7.54626 17.6428C7.07734 17.6428 6.69598 17.2615 6.69598 16.7925C6.69598 16.3236 7.07734 15.9423 7.54626 15.9423C8.01519 15.9423 8.3965 16.3236 8.3965 16.7925C8.3965 17.2615 8.01519 17.6428 7.54626 17.6428ZM14.5608 17.6428C14.0919 17.6428 13.7106 17.2615 13.7106 16.7925C13.7106 16.3236 14.0919 15.9423 14.5608 15.9423C15.0297 15.9423 15.411 16.3236 15.411 16.7925C15.411 17.2615 15.0297 17.6428 14.5608 17.6428Z" />
</svg>
