<svg width="30" height="23" viewBox="0 0 30 23" xmlns="http://www.w3.org/2000/svg">
<path fill-rule="evenodd" clip-rule="evenodd" d="M4.91633 5.1016C4.53493 4.72847 4.08466 4.50081 3.59253 4.5C3.10091 4.4992 2.65001 4.72497 2.26706 5.09348C1.74937 5.59157 1.24675 6.10288 0.750901 6.61219L0.74931 6.61384C0.402712 6.97333 0.16998 7.42806 0.0805151 7.9205C-0.109903 8.89477 0.063721 9.81877 0.327297 10.6704C0.778986 12.1284 1.45919 13.4752 2.30531 14.7276C4.24572 17.5985 6.73745 19.8588 9.85163 21.4058C10.6326 21.7929 11.4619 22.1429 12.3607 22.3296C12.5883 22.3766 12.8245 22.4135 13.047 22.4483H13.0474C13.1451 22.4636 13.2401 22.4785 13.3306 22.4936L13.3689 22.5H14.162L14.2188 22.4856C14.2614 22.4748 14.2841 22.4684 14.2992 22.4641L14.3017 22.4634C14.3169 22.4592 14.3233 22.4573 14.3374 22.455C14.8352 22.3732 15.3443 22.1895 15.7537 21.7877C16.3344 21.2222 16.9152 20.6424 17.4666 20.0316C17.9231 19.5256 18.0445 18.8561 17.7477 18.2105L17.7432 18.201C17.6135 17.9347 17.4404 17.6921 17.2311 17.4833C16.7034 16.9397 16.167 16.4038 15.6336 15.8709C15.4748 15.7122 15.3158 15.5535 15.1579 15.3952C15.0621 15.2995 14.9626 15.212 14.8653 15.1318L14.8645 15.1312C14.2695 14.6431 13.5125 14.5713 12.8437 14.979L12.8364 14.9836C12.6527 15.1003 12.4828 15.2377 12.3301 15.3931C11.9891 15.7309 11.6523 16.0724 11.3163 16.4131C11.1444 16.6018 11.043 16.5697 10.8753 16.5165C10.866 16.5135 10.8565 16.5105 10.8468 16.5075C10.6232 16.3914 10.4179 16.2847 10.2112 16.1543C9.10586 15.373 8.55551 14.8825 7.71581 13.9031C5.9736 12.0079 5.64842 11.5615 6.12761 11.0077L6.36031 10.8061C6.50604 10.6605 6.65216 10.5144 6.79757 10.3686C6.89061 10.2752 6.98336 10.1819 7.07553 10.0888C7.35019 9.81162 7.64105 9.44431 7.71708 8.93147C7.82212 8.2377 7.5038 7.71101 7.12307 7.32299L7.08794 7.28716C6.3723 6.55707 5.65184 5.82206 4.91633 5.1016ZM2.91894 5.77811C3.17641 5.53033 3.40458 5.44743 3.59101 5.44773C3.68934 5.4479 3.79911 5.47124 3.91845 5.53012C4.0247 5.58254 4.13855 5.66313 4.25866 5.7806C4.98715 6.49421 5.70177 7.22323 6.41939 7.95535L6.45179 7.98841C6.72099 8.2627 6.82813 8.50569 6.78503 8.78935L6.78473 8.79133C6.75298 9.00634 6.63046 9.1951 6.40763 9.42L6.321 9.50739C6.1137 9.71626 5.90707 9.92273 5.69976 10.1299C5.61735 10.2122 5.53483 10.2947 5.45208 10.3775C5.40528 10.4243 5.35841 10.4712 5.31146 10.5183C5.26196 10.5679 5.21236 10.6177 5.16263 10.6677L5.1555 10.6748C5.06275 10.768 4.89664 10.9347 4.85589 11.1753C4.81682 11.4058 4.90984 11.6151 4.96072 11.7296L4.96736 11.7446C5.4714 12.8814 6.23835 13.8138 7.02277 14.669C7.08645 14.7384 7.15066 14.8073 7.2154 14.8755C7.96176 15.6623 8.78103 16.3698 9.70942 16.9567C9.94917 17.1079 10.2154 17.2465 10.4587 17.3731L10.459 17.3733C10.5659 17.4289 10.6685 17.4822 10.7625 17.5334C10.9416 17.6309 11.1422 17.6594 11.3399 17.5975C11.5128 17.5434 11.6363 17.4339 11.7113 17.3585L11.7125 17.3573C11.8046 17.264 11.8965 17.171 11.9879 17.0782C12.3241 16.7373 12.6567 16.4002 12.9941 16.0659L12.9991 16.0609C13.1007 15.9571 13.2138 15.8654 13.3361 15.7873C13.6496 15.5979 13.9717 15.6222 14.2681 15.8652C14.3495 15.9323 14.4248 15.999 14.4932 16.0672C14.6522 16.2265 14.811 16.3852 14.9696 16.5436L14.9701 16.5441L14.9706 16.5446L14.9725 16.5466C15.506 17.0794 16.0361 17.6092 16.5589 18.1481L16.565 18.1541C16.6993 18.2875 16.8105 18.4425 16.894 18.6127C17.0239 18.8992 16.9784 19.1619 16.7683 19.3949C16.2375 19.983 15.6736 20.5462 15.0969 21.1078L15.0955 21.1092C14.8706 21.3302 14.5665 21.4571 14.1846 21.5198C14.1377 21.5276 14.0816 21.5415 14.0412 21.5523H13.4464C13.3488 21.5362 13.2551 21.5216 13.1638 21.5073C12.9536 21.4745 12.7558 21.4436 12.5509 21.4014C11.7652 21.2382 11.0189 20.9276 10.2689 20.5559C7.31029 19.0862 4.9403 16.9398 3.0851 14.1951C2.28376 13.0089 1.64782 11.7457 1.22737 10.3886C0.983837 9.6017 0.858413 8.85287 1.00614 8.10046L1.00746 8.09313C1.06305 7.78456 1.20853 7.49954 1.42548 7.27424L2.91894 5.77811Z"/>
<path d="M14.9561 6.19629V7.21191H10.1416V6.34277L12.4512 3.84766C12.6921 3.57422 12.8825 3.33659 13.0225 3.13477C13.1624 2.93294 13.2617 2.75065 13.3203 2.58789C13.3822 2.42188 13.4131 2.264 13.4131 2.11426C13.4131 1.89616 13.374 1.70573 13.2959 1.54297C13.2178 1.37695 13.1038 1.24837 12.9541 1.15723C12.8076 1.06608 12.627 1.02051 12.4121 1.02051C12.1745 1.02051 11.971 1.07585 11.8018 1.18652C11.6357 1.29395 11.5088 1.44368 11.4209 1.63574C11.3363 1.8278 11.2939 2.04753 11.2939 2.29492H10C10 1.875 10.0977 1.49251 10.293 1.14746C10.4883 0.79915 10.7682 0.52083 11.1328 0.3125C11.4974 0.10417 11.9303 0 12.4316 0C12.9199 0 13.3333 0.08138 13.6719 0.24414C14.0104 0.40365 14.2676 0.63151 14.4434 0.92773C14.6191 1.22396 14.707 1.57715 14.707 1.9873C14.707 2.21517 14.6696 2.43978 14.5947 2.66113C14.5199 2.88249 14.4141 3.10221 14.2773 3.32031C14.1439 3.53516 13.9844 3.75326 13.7988 3.97461C13.6133 4.19596 13.4066 4.4222 13.1787 4.65332L11.792 6.19629H14.9561Z"/>
<path d="M20.791 4.61914V5.63477H15.6689L15.6152 4.85352L18.6279 0.102539H19.6582L18.5449 1.99219L16.9287 4.61914H20.791ZM19.9463 0.102539V7.21191H18.6523V0.102539H19.9463Z"/>
<path d="M24.6924 0.102539L22.0068 7.82227H21.0254L23.7109 0.102539H24.6924Z"/>
<path d="M30.1514 0.102539V0.805659L27.3584 7.21191H25.9961L28.7891 1.11816H25.1758V0.102539H30.1514Z"/>
</svg>
