<svg width="34" height="19" viewBox="0 0 34 19" xmlns="http://www.w3.org/2000/svg">
<path fill-rule="evenodd" clip-rule="evenodd" d="M4.94114 1.1016C4.55781 0.728466 4.10527 0.500805 3.61066 0.500002C3.11656 0.4992 2.66338 0.724973 2.2785 1.09348C1.7582 1.59157 1.25304 2.10288 0.75469 2.61219L0.753091 2.61384C0.404744 2.97333 0.170838 3.42806 0.0809212 3.9205C-0.110458 4.89477 0.0640424 5.81877 0.328948 6.67039C0.782917 8.12838 1.46655 9.47515 2.31694 10.7276C4.26714 13.5985 6.77145 15.8588 9.90134 17.4058C10.6863 17.7929 11.5197 18.1429 12.4231 18.3296C12.6518 18.3766 12.8892 18.4135 13.1128 18.4483L13.1132 18.4483C13.2114 18.4636 13.3069 18.4785 13.3979 18.4936L13.4364 18.5H14.2335L14.2906 18.4856C14.3334 18.4748 14.3562 18.4684 14.3714 18.4641L14.3739 18.4634C14.3891 18.4592 14.3956 18.4573 14.4097 18.455C14.9101 18.3732 15.4217 18.1895 15.8332 17.7877C16.4168 17.2222 17.0006 16.6424 17.5547 16.0316C18.0135 15.5256 18.1356 14.8561 17.8373 14.2105L17.8327 14.201C17.7024 13.9347 17.5284 13.6921 17.318 13.4833C16.7877 12.9397 16.2486 12.4038 15.7125 11.8709C15.5529 11.7122 15.3931 11.5535 15.2344 11.3952C15.1381 11.2995 15.0381 11.212 14.9403 11.1318L14.9395 11.1312C14.3415 10.6431 13.5807 10.5713 12.9085 10.979L12.9012 10.9836C12.7165 11.1003 12.5458 11.2377 12.3923 11.3931C12.0496 11.7309 11.7111 12.0724 11.3734 12.4131C11.2006 12.6018 11.0987 12.5697 10.9302 12.5165C10.9208 12.5135 10.9113 12.5105 10.9015 12.5075C10.6768 12.3914 10.4705 12.2847 10.2627 12.1543C9.15181 11.373 8.59868 10.8825 7.75474 9.90309C6.00374 8.00788 5.67692 7.56154 6.15853 7.00769L6.39241 6.80608C6.53887 6.66046 6.68573 6.51445 6.83187 6.36857C6.92538 6.27522 7.0186 6.18193 7.11123 6.08883C7.38728 5.81162 7.67961 5.44431 7.75602 4.93147C7.86159 4.2377 7.54167 3.71101 7.15901 3.32299L7.12371 3.28716C6.40446 2.55707 5.68036 1.82206 4.94114 1.1016ZM2.93367 1.77811C3.19244 1.53033 3.42176 1.44743 3.60913 1.44773C3.70796 1.4479 3.81828 1.47124 3.93822 1.53012C4.04501 1.58254 4.15943 1.66313 4.28015 1.7806C5.01232 2.49421 5.73054 3.22323 6.45178 3.95535L6.48435 3.98841C6.7549 4.2627 6.86259 4.50569 6.81927 4.78935L6.81897 4.79133C6.78706 5.00634 6.66392 5.1951 6.43996 5.42L6.3529 5.50739C6.14455 5.71626 5.93688 5.92273 5.72852 6.12989C5.6457 6.21223 5.56276 6.29469 5.47959 6.37748C5.43256 6.4243 5.38545 6.47123 5.33826 6.5183C5.28851 6.56792 5.23866 6.61771 5.18868 6.66769L5.18152 6.67485C5.0883 6.76796 4.92135 6.9347 4.88039 7.17528C4.84113 7.40582 4.93462 7.61512 4.98575 7.72959L4.99243 7.74456C5.49901 8.8814 6.26983 9.81382 7.05821 10.669C7.12221 10.7384 7.18674 10.8073 7.25181 10.8755C8.00194 11.6623 8.82534 12.3698 9.75842 12.9567C9.99937 13.1079 10.2669 13.2465 10.5115 13.3731L10.5118 13.3733C10.6192 13.4289 10.7223 13.4822 10.8168 13.5334C10.9968 13.6309 11.1984 13.6594 11.3971 13.5975C11.5709 13.5434 11.695 13.4339 11.7704 13.3585L11.7716 13.3573C11.8642 13.264 11.9565 13.171 12.0484 13.0782C12.3863 12.7373 12.7206 12.4002 13.0597 12.0659L13.0647 12.0609C13.1668 11.9571 13.2805 11.8654 13.4034 11.7873C13.7185 11.5979 14.0422 11.6222 14.3401 11.8652C14.4219 11.9323 14.4976 11.999 14.5663 12.0672C14.7261 12.2265 14.8857 12.3852 15.0451 12.5436L15.0456 12.5441L15.0461 12.5446L15.0481 12.5466C15.5842 13.0794 16.117 13.6092 16.6425 14.1481L16.6486 14.1541C16.7836 14.2875 16.8953 14.4425 16.9793 14.6127C17.1098 14.8992 17.0641 15.1619 16.8529 15.3949C16.3194 15.983 15.7527 16.5462 15.1731 17.1078L15.1717 17.1092C14.9456 17.3302 14.64 17.4571 14.2562 17.5198C14.209 17.5276 14.1527 17.5415 14.1121 17.5523H13.5143C13.4162 17.5362 13.322 17.5216 13.2302 17.5073C13.019 17.4745 12.8202 17.4436 12.6142 17.4014C11.8246 17.2382 11.0745 16.9276 10.3207 16.5559C7.34718 15.0862 4.96523 12.9398 3.10067 10.1951C2.29528 9.00887 1.65614 7.74571 1.23356 6.38856C0.988801 5.6017 0.862745 4.85287 1.01122 4.10046L1.01254 4.09313C1.06841 3.78456 1.21463 3.49954 1.43267 3.27424L2.93367 1.77811Z" />
<path d="M17.9561 7.19629V8.21191H13.1416V7.34277L15.4512 4.84766C15.6921 4.57422 15.8825 4.33659 16.0225 4.13477C16.1624 3.93294 16.2617 3.75065 16.3203 3.58789C16.3822 3.42188 16.4131 3.264 16.4131 3.11426C16.4131 2.89616 16.374 2.70573 16.2959 2.54297C16.2178 2.37695 16.1038 2.24837 15.9541 2.15723C15.8076 2.06608 15.627 2.02051 15.4121 2.02051C15.1745 2.02051 14.971 2.07585 14.8018 2.18652C14.6357 2.29395 14.5088 2.44368 14.4209 2.63574C14.3363 2.8278 14.2939 3.04753 14.2939 3.29492H13C13 2.875 13.0977 2.49251 13.293 2.14746C13.4883 1.79915 13.7682 1.52083 14.1328 1.3125C14.4974 1.10417 14.9303 1 15.4316 1C15.9199 1 16.3333 1.08138 16.6719 1.24414C17.0104 1.40365 17.2676 1.63151 17.4434 1.92773C17.6191 2.22396 17.707 2.57715 17.707 2.9873C17.707 3.21517 17.6696 3.43978 17.5947 3.66113C17.5199 3.88249 17.4141 4.10221 17.2773 4.32031C17.1439 4.53516 16.9844 4.75326 16.7988 4.97461C16.6133 5.19596 16.4066 5.4222 16.1787 5.65332L14.792 7.19629H17.9561Z" />
<path d="M23.791 5.61914V6.63477H18.6689L18.6152 5.85352L21.6279 1.10254H22.6582L21.5449 2.99219L19.9287 5.61914H23.791ZM22.9463 1.10254V8.21191H21.6523V1.10254H22.9463Z" />
<path d="M27.6924 1.10254L25.0068 8.82227H24.0254L26.7109 1.10254H27.6924Z" />
<path d="M33.1514 1.10254V1.80566L30.3584 8.21191H28.9961L31.7891 2.11816H28.1758V1.10254H33.1514Z" />
</svg>
