<svg width="12" height="12" viewBox="0 0 12 12" xmlns="http://www.w3.org/2000/svg">
<path d="M10.4744 7.02584C10.3369 5.23617 9.50365 4.11466 8.76855 3.12499C8.08788 2.20877 7.5 1.41757 7.5 0.250428C7.5 0.156678 7.4475 0.0709907 7.36425 0.0280298C7.28074 -0.015189 7.18041 -0.00811087 7.10449 0.047061C6.00049 0.837045 5.07935 2.16851 4.75758 3.43891C4.5342 4.32337 4.50464 5.31769 4.50049 5.97438C3.48096 5.75662 3.25001 4.23159 3.24757 4.21498C3.23609 4.13587 3.18776 4.06704 3.11745 4.02944C3.04641 3.99234 2.9629 3.98965 2.89088 4.0253C2.83741 4.05117 1.57861 4.69078 1.50537 7.24455C1.50023 7.32951 1.5 7.41473 1.5 7.49993C1.5 9.98095 3.51879 11.9996 6 11.9996C6.00342 11.9999 6.00708 12.0003 6.01001 11.9996C6.01099 11.9996 6.01195 11.9996 6.01317 11.9996C8.48829 11.9925 10.5 9.97657 10.5 7.49993C10.5 7.37517 10.4744 7.02584 10.4744 7.02584ZM6 11.4997C5.17284 11.4997 4.5 10.7829 4.5 9.90187C4.5 9.87185 4.49977 9.84157 4.50195 9.80447C4.51195 9.43291 4.58252 9.17927 4.65991 9.01057C4.80495 9.32208 5.06421 9.60844 5.48536 9.60844C5.62355 9.60844 5.73537 9.49662 5.73537 9.35845C5.73537 9.00253 5.7427 8.5919 5.83132 8.22131C5.91019 7.89272 6.09865 7.54312 6.33743 7.26288C6.44362 7.62663 6.65067 7.92103 6.85282 8.20837C7.14213 8.61947 7.4412 9.04451 7.4937 9.76931C7.49686 9.81227 7.50005 9.85549 7.50005 9.90187C7.5 10.7829 6.82716 11.4997 6 11.4997Z" />
</svg>
