<svg width="16" height="20" viewBox="0 0 16 20" xmlns="http://www.w3.org/2000/svg">
<path d="M9.96034 -0.000110243C10.6763 0.118847 11.1783 0.56233 11.6776 1.02668C12.7749 2.04652 13.8819 3.05783 14.9987 4.06062C15.5391 4.54793 15.793 5.13437 15.792 5.84759C15.7855 9.82502 15.7842 13.8019 15.7882 17.7783C15.7882 18.8489 15.1197 19.6915 14.0741 19.9357C13.884 19.978 13.6894 19.9985 13.4943 19.9968C9.76581 20.0006 6.03729 20.0006 2.30878 19.9968C0.967593 19.9968 0.0084454 19.0639 0.0084454 17.7627C0.0084454 12.5948 0.0160108 7.42691 0.00196129 2.25904C-0.0012809 0.973986 0.961649 0.133978 1.89864 0.0254551C1.91647 0.0254551 1.93322 0.00719412 1.94997 -0.00219727L9.96034 -0.000110243ZM9.47401 1.17173H2.3412C1.63224 1.17173 1.22048 1.56616 1.22048 2.24652C1.22048 7.41526 1.22048 12.5842 1.22048 17.7533C1.22048 18.4315 1.63278 18.8275 2.34228 18.8275H13.4489C14.166 18.8275 14.5729 18.4326 14.5729 17.736C14.5729 13.8494 14.5729 9.96293 14.5729 6.07664V5.85907H11.0281C10.0511 5.85907 9.47455 5.29872 9.47455 4.35019C9.47455 3.36722 9.47455 2.38426 9.47455 1.40129L9.47401 1.17173ZM10.6877 1.74564V4.45297C10.6877 4.64341 10.8049 4.69141 10.9789 4.69089C11.9084 4.68776 12.8378 4.69089 13.7672 4.69089C13.7975 4.69089 13.8277 4.68619 13.8991 4.68045L10.6877 1.74564Z" />
<path d="M7.77758 8.98448C6.30851 8.98448 4.83944 8.98448 3.37037 8.98448C2.89647 8.98448 2.58954 8.57596 2.76462 8.17943C2.87269 7.93369 3.07749 7.81421 3.3547 7.81421C3.79239 7.81421 4.23027 7.81421 4.66832 7.81421C7.16877 7.81421 9.66868 7.81421 12.168 7.81421C12.6544 7.81421 12.9662 8.22639 12.7808 8.62813C12.6641 8.88066 12.448 8.98657 12.1643 8.98605C10.951 8.98396 9.73802 8.98396 8.52545 8.98605L7.77758 8.98448Z" />
<path d="M7.79505 10.9372C9.25728 10.9372 10.7195 10.9372 12.1817 10.9372C12.6556 10.9372 12.9604 11.3478 12.7832 11.7449C12.6751 11.9906 12.4676 12.1075 12.1915 12.1101C11.6385 12.1101 11.0859 12.1101 10.5336 12.1101H3.45862C3.37113 12.114 3.28346 12.1089 3.19708 12.095C3.0507 12.0645 2.92108 11.983 2.83305 11.8661C2.74502 11.7491 2.70474 11.6049 2.71994 11.4611C2.75614 11.1595 3.01282 10.9393 3.34784 10.9393C4.83061 10.9365 6.31301 10.9358 7.79505 10.9372Z" />
<path d="M4.78112 14.0619C5.2534 14.0619 5.72514 14.0619 6.19742 14.0619C6.5908 14.0619 6.86855 14.3004 6.87558 14.6385C6.8826 14.9765 6.59783 15.2348 6.1958 15.2348C5.25916 15.2348 4.32253 15.2348 3.38589 15.2348C2.99413 15.2348 2.72016 14.9901 2.7207 14.6489C2.72124 14.3077 2.99521 14.0656 3.38751 14.064C3.85061 14.0609 4.31586 14.0619 4.78112 14.0619Z" />
</svg>
