<svg width="20" height="25" viewBox="0 0 20 25" xmlns="http://www.w3.org/2000/svg">
<path d="M19.1698 8.35C19.005 7.0714 18.5833 5.83933 17.9301 4.72791C17.2769 3.61648 16.4056 2.64866 15.3687 1.88265C14.3318 1.11663 13.1506 0.568256 11.8963 0.270498C10.642 -0.0272605 9.3404 -0.0682495 8.06983 0.149997C6.35945 0.402378 4.75496 1.13211 3.44067 2.25536C2.12637 3.37862 1.15559 4.84983 0.639826 6.5C0.0136707 8.12808 -0.157058 9.89601 0.145983 11.6138C0.449024 13.3316 1.21438 14.9344 2.35983 16.25C4.66983 19.08 7.04983 21.84 9.35983 24.64L9.62982 24.93L9.94983 24.56C12.2698 21.81 14.5898 19.07 16.8898 16.3C17.8311 15.2241 18.5235 13.9537 18.9176 12.5796C19.3116 11.2054 19.3978 9.76126 19.1698 8.35ZM12.8198 11.2C12.5562 11.8374 12.1111 12.3834 11.5398 12.77C10.9784 13.1482 10.3168 13.3501 9.63983 13.35C9.18657 13.3467 8.73863 13.252 8.32282 13.0716C7.907 12.8912 7.53186 12.6288 7.21983 12.3C6.90204 11.9712 6.65077 11.5841 6.47983 11.16C6.32785 10.727 6.26327 10.2681 6.28983 9.81C6.28185 9.0993 6.48738 8.40257 6.87982 7.81C7.25666 7.24166 7.79217 6.79656 8.41982 6.53C9.05256 6.26753 9.7504 6.20472 10.4198 6.35C11.0916 6.4938 11.7049 6.83545 12.1808 7.33092C12.6566 7.82639 12.9732 8.45298 13.0898 9.13C13.2075 9.8315 13.1135 10.5521 12.8198 11.2Z"/>
</svg>
