<svg width="16" height="16" viewBox="0 0 16 16" xmlns="http://www.w3.org/2000/svg">
<path d="M14.7499 15.9999C14.7366 14.395 14.2384 12.9604 13.2145 11.727C12.0795 10.357 10.6243 9.52399 8.84736 9.30987C6.79413 9.06287 4.98669 9.6379 3.45401 11.0291C2.19687 12.1697 1.48493 13.5985 1.28885 15.2832C1.26106 15.5204 1.26223 15.7608 1.24971 15.9999H0V15.5302C0.0391389 15.2221 0.0716247 14.9125 0.125245 14.6064C0.419961 12.9232 1.18708 11.4859 2.40157 10.2881C3.21046 9.48627 4.18423 8.87023 5.25519 8.48276C5.28806 8.47063 5.31937 8.4538 5.36517 8.43305C4.06184 7.45172 3.36086 6.16898 3.382 4.53786C3.39843 3.2833 3.87006 2.20137 4.76673 1.32572C6.65714 -0.520294 9.55499 -0.38329 11.2986 1.38522C13.2419 3.35611 13.063 6.75496 10.6677 8.41426C14 9.84379 15.8732 12.3048 16 15.9991L14.7499 15.9999ZM8.00313 1.24861C6.15147 1.24587 4.63522 2.75604 4.62544 4.61262C4.61566 6.46921 6.13777 7.99582 7.99687 7.99856C9.84853 8.0013 11.3648 6.49113 11.3746 4.63415C11.3843 2.77717 9.86301 1.25135 8.00313 1.24861Z" />
</svg>
