<svg width="16" height="16" viewBox="0 0 16 16" xmlns="http://www.w3.org/2000/svg">
<path d="M15.8044 14.864L11.9582 11.0178C12.912 9.8551 13.4862 8.36622 13.4862 6.74311C13.4862 3.02044 10.4658 0 6.74311 0C3.01778 0 0 3.02044 0 6.74311C0 10.4658 3.01689 13.4862 6.74311 13.4862C8.36622 13.4862 9.85155 12.9147 11.0142 11.9618L14.8604 15.8053C15.1218 16.0667 15.5431 16.0667 15.8044 15.8053C16.0649 15.5458 16.0649 15.1218 15.8044 14.864ZM6.74311 12.144C3.76178 12.144 1.33866 9.72089 1.33866 6.74311C1.33866 3.76533 3.76178 1.33866 6.74311 1.33866C9.72089 1.33866 12.1475 3.76444 12.1475 6.74311C12.1475 9.72178 9.72089 12.144 6.74311 12.144Z"/>
</svg>
