<svg width="25" height="16" viewBox="0 0 25 16" xmlns="http://www.w3.org/2000/svg">
<path d="M-0.00073281 7.8531C0.121552 7.65164 0.218159 7.43298 0.363067 7.25056C2.12336 5.0339 4.16614 3.1354 6.62224 1.71229C8.23885 0.77625 9.9643 0.147305 11.8414 0.0207795C13.5607 -0.0946907 15.2042 0.24435 16.7835 0.92243C19.0458 1.89348 20.9773 3.34485 22.696 5.08673C23.4102 5.81026 24.0626 6.59705 24.7229 7.37279C25.0971 7.81256 25.0837 8.17494 24.7229 8.63068C22.9498 10.8891 20.8856 12.8281 18.3934 14.2715C16.4369 15.4053 14.3488 16.0902 12.0572 15.9913C10.484 15.9213 9.00008 15.495 7.5938 14.8003C4.63633 13.341 2.26888 11.1716 0.242617 8.5969C0.139286 8.46546 0.0787552 8.29962 -0.00195312 8.14976L-0.00073281 7.8531ZM1.86229 7.98269C1.954 8.09263 2.01636 8.17739 2.08912 8.25171C2.84913 9.03482 3.57673 9.85478 4.38014 10.5906C5.92949 12.0094 7.65311 13.1666 9.65797 13.8514C10.8588 14.2617 12.0896 14.4355 13.3559 14.2961C14.978 14.1174 16.4503 13.513 17.837 12.6783C19.6389 11.593 21.1803 10.1963 22.578 8.6319C22.7615 8.42737 22.9351 8.21486 23.1283 7.98454C22.6483 7.46369 22.1977 6.94776 21.722 6.46008C20.1121 4.81832 18.3304 3.41057 16.2094 2.48558C15.1522 2.02492 14.0517 1.72274 12.8912 1.66746C11.1181 1.58331 9.48616 2.08082 7.93253 2.88788C6.19669 3.78892 4.69197 5.00627 3.32726 6.39682C2.8265 6.90722 2.35632 7.44772 1.86229 7.98392V7.98269Z" />
<path d="M17.4357 8.02203C17.4155 10.7737 15.182 12.9928 12.4642 12.9621C9.72868 12.9307 7.53916 10.7073 7.55872 7.98088C7.57829 5.22802 9.81061 3.01013 12.5296 3.04084C15.2645 3.07155 17.4553 5.2962 17.4357 8.02203ZM15.7885 8.01036C15.7902 7.13457 15.4463 6.29382 14.8322 5.67219C14.218 5.05055 13.3837 4.6987 12.5119 4.69366C10.7045 4.6734 9.19796 6.18126 9.20285 8.00606C9.21382 8.87557 9.56515 9.70577 10.1808 10.317C10.7965 10.9283 11.627 11.2715 12.4927 11.2723C13.3583 11.2731 14.1895 10.9315 14.8063 10.3213C15.4231 9.71123 15.776 8.88169 15.7885 8.01221V8.01036Z" />
</svg>
