<svg width="28" height="25" viewBox="0 0 28 25"  xmlns="http://www.w3.org/2000/svg">
<path d="M0 10.2441C0.172429 10.0637 0.322939 9.85325 0.521671 9.70785C4.81632 6.55445 9.11414 3.40713 13.4151 0.265897C13.8944 -0.0840752 14.1129 -0.0840752 14.5936 0.265897L27.5784 9.77142C28.1118 10.1623 28.1439 10.7797 27.6456 11.0727C27.3183 11.2663 27.0246 11.1764 26.736 10.9638C25.2908 9.90098 23.8437 8.84059 22.3946 7.78264C19.6669 5.78558 16.9421 3.78852 14.2203 1.79146C14.0471 1.66433 13.9434 1.67602 13.7775 1.79803C9.629 4.84233 5.47803 7.88322 1.32464 10.9207C0.74013 11.3474 0.333899 11.2575 0 10.6284V10.2441Z"/>
<path d="M4.54064 23.5001C4.65097 23.5053 4.7401 23.5133 4.82851 23.5133C6.56961 23.5133 8.30997 23.5082 10.0503 23.5199C10.3075 23.5199 10.3682 23.4468 10.3667 23.1977C10.3574 21.2391 10.356 19.2798 10.3623 17.3197C10.3623 15.5209 11.4437 14.0911 13.1102 13.6615C15.2722 13.104 17.4809 14.6639 17.6102 16.8879C17.6759 18.0233 17.635 19.1653 17.6387 20.3044C17.6416 21.2888 17.6416 22.2729 17.6387 23.2568C17.6387 23.403 17.6387 23.5184 17.8455 23.5177C19.6771 23.5104 21.5088 23.5126 23.3413 23.5111C23.3815 23.5059 23.4214 23.4976 23.4604 23.4863V23.1787C23.4604 19.4695 23.4604 15.7601 23.4604 12.0504C23.4604 11.509 23.7665 11.1824 24.2385 11.2124C24.3946 11.2195 24.5437 11.2791 24.6616 11.3816C24.7795 11.4842 24.8593 11.6236 24.888 11.7772C24.9078 11.8937 24.9166 12.0119 24.9143 12.1301C24.9143 16.0945 24.9143 20.0589 24.9143 24.0233C24.9143 24.7166 24.6696 24.9607 23.9776 24.9607H17.0892C16.4368 24.9607 16.1855 24.7079 16.1855 24.0503C16.1855 21.7854 16.1898 19.5124 16.1855 17.243C16.1818 16.0156 15.2758 15.0555 14.0951 15.0066C12.8457 14.9554 11.8236 15.9388 11.8192 17.2196C11.8119 19.516 11.8192 21.8131 11.8082 24.1095C11.8076 24.3326 11.7339 24.5495 11.5985 24.7269C11.4809 24.8628 11.2332 24.9461 11.0455 24.9512C8.64899 24.9658 6.25178 24.9621 3.85531 24.9585C3.40232 24.9585 3.12468 24.6896 3.09107 24.2381C3.08449 24.1475 3.08668 24.0562 3.08668 23.9648C3.08668 20.0457 3.08668 16.1269 3.08668 12.2082C3.08372 12.0809 3.08958 11.9534 3.10422 11.8269C3.12554 11.6482 3.21473 11.4847 3.35332 11.37C3.49192 11.2554 3.6693 11.1984 3.84873 11.2109C4.02353 11.2164 4.19019 11.286 4.31698 11.4065C4.44377 11.5269 4.52182 11.6898 4.53626 11.8641C4.54576 11.9635 4.54137 12.0643 4.54137 12.1644V23.5001H4.54064Z" />
</svg>
