<svg width="26" height="26" viewBox="0 0 26 26" xmlns="http://www.w3.org/2000/svg">
<path d="M0.786123 24.3995C0.502161 24.2004 0.187367 24.0916 0.0802729 23.8741C-0.0268215 23.6565 -0.00410468 23.2867 0.0445746 23.0006C0.0705369 22.8433 0.255518 22.7061 0.383706 22.5756C7.70074 15.223 15.0183 7.87153 22.3364 0.521171C22.433 0.414413 22.5383 0.316439 22.6512 0.22834C23.0374 -0.0460855 23.4236 -0.0243412 23.7481 0.32371C23.8251 0.393798 23.8875 0.479321 23.9314 0.575076C23.9753 0.670832 23.9998 0.774806 24.0034 0.880654C24.0071 0.986502 23.9898 1.09202 23.9526 1.19075C23.9154 1.28947 23.8591 1.37934 23.7871 1.45488C23.3863 1.92341 22.9319 2.34342 22.4971 2.78016C15.5424 9.76238 8.58617 16.7457 1.62828 23.7302C1.36088 23.9706 1.07965 24.1941 0.786123 24.3995Z" />
<path d="M0.440824 5.27669C0.472291 3.8786 1.04349 2.54896 2.03141 1.57414C3.01933 0.599324 4.34494 0.0572892 5.72276 0.0647738C7.10059 0.0722583 8.42041 0.628671 9.39799 1.61417C10.3756 2.59967 10.9327 3.93541 10.9494 5.33376C10.9579 6.04201 10.8273 6.74487 10.5653 7.40134C10.3032 8.0578 9.91498 8.6547 9.4232 9.15723C8.93142 9.65977 8.34595 10.0579 7.70095 10.3283C7.05596 10.5987 6.36436 10.736 5.66652 10.7322C4.96867 10.7284 4.27856 10.5836 3.63645 10.3062C2.99434 10.0288 2.41311 9.62436 1.92665 9.11651C1.4402 8.60866 1.05828 8.00758 0.803171 7.34831C0.548065 6.68904 0.424886 5.9848 0.440824 5.27669ZM5.73468 1.85699C5.28498 1.84752 4.83792 1.929 4.41957 2.0967C4.00121 2.2644 3.61994 2.51496 3.29799 2.83377C2.97603 3.15257 2.71983 3.53323 2.54432 3.95357C2.36881 4.37391 2.27752 4.82552 2.27575 5.28205C2.26569 5.97035 2.45717 6.64619 2.82592 7.22393C3.19467 7.80167 3.72411 8.2553 4.34713 8.52734C4.97015 8.79939 5.65872 8.8776 6.32558 8.75207C6.99244 8.62654 7.60757 8.30293 8.09304 7.82222C8.57851 7.34151 8.91245 6.72535 9.05256 6.05182C9.19266 5.37829 9.13263 4.67771 8.88005 4.03884C8.62747 3.39998 8.19373 2.85158 7.63378 2.46316C7.07383 2.07475 6.41288 1.86378 5.73468 1.85699Z" />
<path d="M25.445 20.5751C25.4578 21.2837 25.3313 21.9877 25.073 22.646C24.8147 23.3044 24.4297 23.9039 23.9405 24.4096C23.4514 24.9152 22.8678 25.3169 22.224 25.5911C21.5801 25.8652 20.8889 26.0065 20.1907 26.0065C19.4925 26.0065 18.8013 25.8652 18.1575 25.5911C17.5136 25.3169 16.9301 24.9152 16.4409 24.4096C15.9518 23.9039 15.5668 23.3044 15.3084 22.646C15.0501 21.9877 14.9237 21.2837 14.9364 20.5751C14.9616 19.1776 15.5263 17.846 16.5089 16.8668C17.4915 15.8875 18.8136 15.3389 20.1907 15.3389C21.5678 15.3389 22.8899 15.8875 23.8726 16.8668C24.8552 17.846 25.4198 19.1776 25.445 20.5751ZM23.6189 20.6233C23.6272 19.935 23.4341 19.2596 23.0638 18.6828C22.6936 18.106 22.1631 17.6537 21.5393 17.3833C20.9156 17.1129 20.2269 17.0365 19.5603 17.1637C18.8938 17.291 18.2794 17.6162 17.7952 18.0982C17.3109 18.5802 16.9786 19.1972 16.8402 19.8711C16.7018 20.545 16.7636 21.2455 17.0178 21.8837C17.272 22.5219 17.7071 23.0691 18.2681 23.4561C18.829 23.843 19.4905 24.0523 20.1688 24.0573C20.6186 24.066 21.0656 23.9837 21.4838 23.8151C21.9019 23.6464 22.2827 23.3949 22.6039 23.0752C22.9252 22.7555 23.1804 22.374 23.3546 21.953C23.5289 21.532 23.6187 21.0799 23.6189 20.6233Z" />
</svg>
