<svg width="140" height="37" viewBox="0 0 140 37" fill="none" xmlns="http://www.w3.org/2000/svg">
<path d="M14.234 6.6754V3.79212C13.1865 3.27158 11.2764 2.59568 8.99554 3.04551C7.84068 3.27737 5.67877 3.95791 4.21902 5.99371C2.63454 8.19646 2.85628 10.747 2.96252 11.9655C3.11035 13.6755 3.63581 15.9849 8.03469 21.7897C9.99382 24.3711 12.1028 26.8343 14.3506 29.1666L14.2352 21.61L17.1223 23.8302V35.9175L14.8588 33.7541C11.5552 30.5991 8.50673 27.1852 5.74229 23.545C1.3665 17.7726 0.31442 14.8406 0.0903763 12.2171C-0.035504 10.769 -0.327683 7.37796 1.87926 4.29991C3.91876 1.45721 6.86828 0.511187 8.44467 0.200484C12.2846 -0.555406 15.3207 1.01202 16.4479 1.70763L17.1258 2.13542V5.43723C17.1258 6.57106 17.1258 7.7049 17.1258 8.83873L16.4617 8.36572L14.234 6.6754Z" fill="#009CD5"/>
<path d="M37.7903 19.4873L37.6286 19.7192C36.3133 21.5741 34.5105 24.1003 30.7664 28.8026C30.1035 29.6362 29.5377 30.3376 29.1693 30.7932L28.9244 31.097L26.9542 29.6153L26.9277 29.5852L26.8953 29.5515L26.6644 29.2953L26.8803 29.0264C27.2637 28.5499 27.825 27.8508 28.4971 27.0033C32.1812 22.3868 33.9585 19.8861 35.2566 18.0602L35.4344 17.8086C36.5893 16.1855 38.5248 13.4634 38.1772 10.3262C37.8307 7.23192 35.737 5.25292 35.6481 5.17061C35.4346 4.97968 35.2097 4.80197 34.9748 4.63847L28.7512 13.4054L28.4198 13.1527C27.8662 12.7322 27.3138 12.3106 26.7625 11.8878L22.3891 8.54893C22.4087 12.0119 22.4179 15.5108 22.4179 18.9633C22.4179 24.5281 22.3914 30.217 22.3394 35.8665L22.3325 36.6699L19.4453 34.4915L19.4938 2.65832L20.144 3.16031L28.0768 9.29554L28.1045 9.31757L34.0809 0.898438L35.1734 1.41782C36.0301 1.82505 36.8255 2.35112 37.5363 2.98061C37.7358 3.15432 37.9223 3.34265 38.0941 3.54405C38.484 3.97175 38.8418 4.42785 39.1646 4.9086C40.1898 6.42942 40.8372 8.17459 41.0528 9.9981C41.524 14.2424 39.0988 17.6544 37.7903 19.4873Z" fill="#F35250"/>
<path d="M36.4583 19.9893V20.8124H30.7013L29.8964 23.7305L28.1283 18.2989L27.6132 21.2843H25.4594L24.7399 24.1478L23.2744 20.9249L23.033 21.8825H20.2891V21.0605H22.4336L23.0619 18.5575L24.5286 21.7805L24.8589 20.4623H26.963L27.895 15.0493L29.8352 21.0083L30.1158 19.9893H36.4583Z" fill="#F35250"/>
<path d="M59.3839 20.4188H61.9733C61.8905 21.4101 61.6143 22.294 61.1447 23.0703C60.6752 23.8398 60.0157 24.4463 59.1664 24.89C58.3171 25.3336 57.2848 25.5555 56.0695 25.5555C55.1373 25.5555 54.2984 25.3891 53.5526 25.0564C52.8069 24.7167 52.1682 24.2384 51.6365 23.6214C51.1048 22.9976 50.6974 22.2454 50.4143 21.3651C50.1381 20.4847 50 19.5003 50 18.412V17.1539C50 16.0655 50.1416 15.0812 50.4247 14.2008C50.7147 13.3204 51.129 12.5683 51.6676 11.9444C52.2062 11.3136 52.8518 10.8318 53.6044 10.4991C54.364 10.1664 55.2167 10 56.1627 10C57.3642 10 58.3793 10.2218 59.2079 10.6655C60.0365 11.1091 60.6786 11.7226 61.1344 12.5059C61.597 13.2892 61.8801 14.1869 61.9837 15.199H59.3943C59.3252 14.5474 59.1733 13.9894 58.9386 13.5249C58.7107 13.0605 58.3723 12.707 57.9235 12.4643C57.4747 12.2148 56.8878 12.09 56.1627 12.09C55.5689 12.09 55.051 12.2009 54.6091 12.4227C54.1672 12.6446 53.7978 12.9704 53.5008 13.4002C53.2039 13.8299 52.9795 14.3602 52.8276 14.9911C52.6826 15.6149 52.6101 16.3289 52.6101 17.1331V18.412C52.6101 19.1745 52.6757 19.8677 52.8069 20.4916C52.945 21.1086 53.1521 21.6389 53.4283 22.0825C53.7115 22.5262 54.0705 22.8693 54.5055 23.1119C54.9405 23.3546 55.4619 23.4759 56.0695 23.4759C56.8084 23.4759 57.4056 23.358 57.8614 23.1223C58.324 22.8866 58.6727 22.5435 58.9075 22.0929C59.1492 21.6354 59.308 21.0774 59.3839 20.4188Z" fill="#009CD6"/>
<path d="M67.1107 10.208V25.3475H64.5109V10.208H67.1107Z" fill="#009CD6"/>
<path d="M76.2357 10.208V25.3475H73.6566V10.208H76.2357ZM80.969 10.208V12.2876H68.9647V10.208H80.969Z" fill="#009CD6"/>
<path d="M84.5631 10.208L88.064 17.4346L91.5648 10.208H94.4442L89.369 19.7742V25.3475H86.7486V19.7742L81.6734 10.208H84.5631Z" fill="#009CD6"/>
<path d="M98.8444 10H101.188L105.592 21.1408L109.986 10H112.329L106.513 24.4444H104.65L98.8444 10ZM97.7773 10H100.006L100.393 19.6428V24.4444H97.7773V10ZM111.168 10H113.407V24.4444H110.781V19.6428L111.168 10Z" fill="#F35150"/>
<path d="M126.494 22.4702V24.4444H118.407V22.4702H126.494ZM119.15 10V24.4444H116.524V10H119.15ZM125.437 16.0317V17.9761H118.407V16.0317H125.437ZM126.441 10V11.9841H118.407V10H126.441Z" fill="#F35150"/>
<path d="M133.063 24.4444H129.81L129.831 22.4702H133.063C134.005 22.4702 134.793 22.2751 135.428 21.8849C136.069 21.4946 136.551 20.9358 136.871 20.2083C137.199 19.4808 137.363 18.6144 137.363 17.6091V16.8254C137.363 16.0449 137.269 15.3538 137.081 14.752C136.899 14.1501 136.627 13.6442 136.265 13.2341C135.909 12.8241 135.47 12.5132 134.947 12.3016C134.43 12.0899 133.834 11.9841 133.158 11.9841H129.747V10H133.158C134.169 10 135.093 10.162 135.93 10.4861C136.767 10.8036 137.489 11.2632 138.095 11.8651C138.709 12.4669 139.18 13.1878 139.508 14.0278C139.835 14.8677 139.999 15.8068 139.999 16.8452V17.6091C139.999 18.6474 139.835 19.5866 139.508 20.4265C139.18 21.2665 138.709 21.9874 138.095 22.5892C137.482 23.1845 136.749 23.6441 135.898 23.9682C135.055 24.2856 134.11 24.4444 133.063 24.4444ZM131.264 10V24.4444H128.638V10H131.264Z" fill="#F35150"/>
</svg>
