<svg width="253" height="60" viewBox="0 0 253 60" fill="none" xmlns="http://www.w3.org/2000/svg">
<path d="M23.5436 10.8802V6.18126C21.8105 5.3329 18.6503 4.2314 14.8766 4.96448C12.9659 5.34234 9.389 6.45142 6.97385 9.76924C4.35236 13.359 4.71922 17.5157 4.89501 19.5014C5.13959 22.2883 6.00898 26.0519 13.2869 35.5121C16.5283 39.719 20.0176 43.7333 23.7366 47.5342L23.5455 35.2192L28.3223 38.8373V58.5359L24.5773 55.0104C19.1115 49.8688 14.0679 44.3051 9.49413 38.3726C2.2544 28.9653 0.513743 24.187 0.143064 19.9114C-0.0652039 17.5516 -0.548612 12.025 3.10276 7.00879C6.47708 2.37602 11.357 0.834283 13.9651 0.327925C20.3183 -0.903957 25.3415 1.6505 27.2064 2.78412L28.328 3.48131V8.86229C28.328 10.7101 28.328 12.5579 28.328 14.4057L27.2294 13.6349L23.5436 10.8802Z" fill="#009CD5"/>
<path d="M62.2007 31.4278L61.9287 31.8073C59.7177 34.8427 56.6874 38.9765 50.3936 46.6713C49.2792 48.0353 48.328 49.1831 47.7088 49.9286L47.2972 50.4257L43.9854 48.0012L43.9408 47.9518L43.8864 47.8968L43.4981 47.4776L43.8612 47.0375C44.5057 46.2577 45.4492 45.1137 46.579 43.7269C52.7718 36.1725 55.759 32.0805 57.9412 29.0925L58.2403 28.6808C60.1816 26.0248 63.435 21.5704 62.8508 16.4367C62.2683 11.3734 58.7489 8.13488 58.5994 8.00019C58.2404 7.68774 57.8625 7.39694 57.4678 7.12942L47.006 21.4755L46.449 21.0619C45.5184 20.3738 44.5898 19.684 43.6632 18.9922L36.3116 13.5284C36.3446 19.1952 36.3601 24.9207 36.3601 30.5703C36.3601 39.6765 36.3155 48.9857 36.228 58.2307L36.2164 59.5452L31.3633 55.9807L31.4448 3.88913L32.5378 4.71057L45.8723 14.7502L45.9189 14.7862L55.9653 1.00928L57.8016 1.85919C59.2417 2.52557 60.5784 3.38643 61.7734 4.41653C62.1088 4.70077 62.422 5.00896 62.7108 5.33854C63.3663 6.03842 63.9676 6.78476 64.5103 7.57142C66.2338 10.0601 67.3223 12.9158 67.6844 15.8998C68.4764 22.8452 64.3996 28.4285 62.2007 31.4278Z" fill="#F35250"/>
<path d="M57.2836 30.6135V31.9058H48.4456L47.2098 36.4876L44.4954 27.9595L43.7047 32.6468H40.3983L39.2938 37.1429L37.044 32.0824L36.6733 33.586H32.4609V32.2955H35.7532L36.7177 28.3654L38.9692 33.4258L39.4763 31.3561H42.7066L44.1373 22.8572L47.1158 32.2135L47.5467 30.6135H57.2836Z" fill="#F35250"/>
<path d="M87.0351 42.7H88.2881C88.2228 43.299 88.051 43.835 87.7725 44.308C87.4941 44.7812 87.1003 45.1566 86.5912 45.4344C86.0822 45.7078 85.447 45.8445 84.6855 45.8445C84.1286 45.8445 83.6217 45.7403 83.1649 45.532C82.7124 45.3237 82.323 45.0285 81.9966 44.6466C81.6703 44.2603 81.418 43.7981 81.2396 43.2599C81.0656 42.7174 80.9785 42.114 80.9785 41.45V40.5059C80.9785 39.8419 81.0656 39.2408 81.2396 38.7026C81.418 38.16 81.6725 37.6957 82.0032 37.3094C82.3382 36.9231 82.7406 36.6257 83.2106 36.4175C83.6805 36.2091 84.2091 36.105 84.7964 36.105C85.5144 36.105 86.1213 36.2395 86.6174 36.5086C87.1133 36.7776 87.4984 37.151 87.7725 37.6284C88.051 38.1015 88.2228 38.6505 88.2881 39.2756H87.0351C86.9741 38.8328 86.861 38.4531 86.6956 38.1362C86.5303 37.815 86.2953 37.5676 85.9908 37.394C85.6862 37.2204 85.2881 37.1336 84.7964 37.1336C84.3744 37.1336 84.0024 37.2138 83.6805 37.3745C83.3628 37.5351 83.0952 37.7629 82.8777 38.058C82.6645 38.3532 82.5035 38.707 82.3947 39.1193C82.286 39.5316 82.2316 39.9895 82.2316 40.493V41.45C82.2316 41.9144 82.2794 42.3506 82.3752 42.7586C82.4752 43.1666 82.6253 43.5246 82.8255 43.8328C83.0256 44.141 83.2802 44.384 83.5891 44.5619C83.898 44.7356 84.2635 44.8224 84.6855 44.8224C85.2207 44.8224 85.6471 44.7377 85.9647 44.5685C86.2824 44.3992 86.5216 44.1561 86.6826 43.8393C86.8479 43.5225 86.9654 43.1427 87.0351 42.7Z" fill="#57758F"/>
<path d="M92.7533 45.8445C92.2617 45.8445 91.8157 45.762 91.4155 45.5971C91.0196 45.4278 90.678 45.1912 90.3908 44.8874C90.108 44.5836 89.8904 44.2234 89.7381 43.8067C89.5859 43.3901 89.5098 42.9344 89.5098 42.4395V42.1661C89.5098 41.5932 89.5946 41.0832 89.7643 40.6362C89.9339 40.1847 90.1646 39.8028 90.4561 39.4903C90.7476 39.1778 91.0783 38.9412 91.4481 38.7807C91.8179 38.6201 92.2008 38.5398 92.5967 38.5398C93.1014 38.5398 93.5366 38.6266 93.902 38.8002C94.2718 38.9738 94.5743 39.2168 94.8092 39.5294C95.0442 39.8375 95.2181 40.2021 95.3312 40.6231C95.4444 41.0398 95.5007 41.4955 95.5007 41.9903V42.5307H90.2276V41.5476H94.2936V41.4565C94.2762 41.144 94.2109 40.8402 94.0978 40.545C93.989 40.2499 93.815 40.0068 93.5757 39.8158C93.3364 39.6248 93.01 39.5294 92.5967 39.5294C92.3226 39.5294 92.0702 39.588 91.8397 39.7051C91.6091 39.818 91.4111 39.9873 91.2457 40.2129C91.0805 40.4387 90.9521 40.7143 90.8607 41.0398C90.7693 41.3653 90.7237 41.7407 90.7237 42.1661V42.4395C90.7237 42.7737 90.7693 43.0884 90.8607 43.3835C90.9564 43.6744 91.0935 43.9305 91.2719 44.1518C91.4546 44.3731 91.6743 44.5467 91.931 44.6726C92.1921 44.7985 92.4879 44.8614 92.8186 44.8614C93.245 44.8614 93.6062 44.7746 93.902 44.601C94.1979 44.4274 94.4567 44.1951 94.6786 43.9044L95.4096 44.4838C95.2574 44.7138 95.0637 44.933 94.8288 45.1413C94.5938 45.3497 94.3045 45.5189 93.9608 45.6491C93.6214 45.7794 93.2189 45.8445 92.7533 45.8445Z" fill="#57758F"/>
<path d="M99.7091 38.6699V45.7142H98.4957V38.6699H99.7091ZM102.079 38.6699V39.6465H96.1719V38.6699H102.079Z" fill="#57758F"/>
<path d="M104.258 41.0918H106.38C106.95 41.0918 107.43 41.1916 107.822 41.3913C108.214 41.5866 108.51 41.8578 108.709 42.2051C108.913 42.548 109.016 42.9386 109.016 43.377C109.016 43.7025 108.959 44.0085 108.847 44.295C108.733 44.5771 108.564 44.8245 108.338 45.0372C108.115 45.2498 107.839 45.4169 107.508 45.5384C107.182 45.6556 106.805 45.7142 106.38 45.7142H103.377V38.6699H104.585V44.7246H106.38C106.727 44.7246 107.006 44.6617 107.215 44.5358C107.424 44.4099 107.574 44.2472 107.665 44.0475C107.756 43.8479 107.802 43.6395 107.802 43.4226C107.802 43.2098 107.756 43.0015 107.665 42.7975C107.574 42.5935 107.424 42.4243 107.215 42.2897C107.006 42.1509 106.727 42.0814 106.38 42.0814H104.258V41.0918Z" fill="#57758F"/>
<path d="M117.9 44.1127L120.302 38.6699H121.464L118.318 45.7142H117.483L114.349 38.6699H115.511L117.9 44.1127ZM115.159 38.6699V45.7142H113.951V38.6699H115.159ZM120.602 45.7142V38.6699H121.816V45.7142H120.602Z" fill="#57758F"/>
<path d="M126.69 45.8445C126.199 45.8445 125.753 45.762 125.353 45.5971C124.957 45.4278 124.615 45.1912 124.328 44.8874C124.045 44.5836 123.828 44.2234 123.675 43.8067C123.524 43.3901 123.447 42.9344 123.447 42.4395V42.1661C123.447 41.5932 123.532 41.0832 123.701 40.6362C123.871 40.1847 124.102 39.8028 124.393 39.4903C124.685 39.1778 125.016 38.9412 125.385 38.7807C125.755 38.6201 126.138 38.5398 126.534 38.5398C127.039 38.5398 127.474 38.6266 127.839 38.8002C128.209 38.9738 128.511 39.2168 128.747 39.5294C128.982 39.8375 129.156 40.2021 129.268 40.6231C129.382 41.0398 129.438 41.4955 129.438 41.9903V42.5307H124.165V41.5476H128.23V41.4565C128.213 41.144 128.148 40.8402 128.035 40.545C127.926 40.2499 127.752 40.0068 127.513 39.8158C127.274 39.6248 126.947 39.5294 126.534 39.5294C126.26 39.5294 126.008 39.588 125.777 39.7051C125.547 39.818 125.348 39.9873 125.183 40.2129C125.018 40.4387 124.889 40.7143 124.798 41.0398C124.707 41.3653 124.661 41.7407 124.661 42.1661V42.4395C124.661 42.7737 124.707 43.0884 124.798 43.3835C124.894 43.6744 125.031 43.9305 125.209 44.1518C125.392 44.3731 125.612 44.5467 125.868 44.6726C126.129 44.7985 126.425 44.8614 126.756 44.8614C127.182 44.8614 127.543 44.7746 127.839 44.601C128.135 44.4274 128.394 44.1951 128.616 43.9044L129.346 44.4838C129.195 44.7138 129.001 44.933 128.766 45.1413C128.531 45.3497 128.242 45.5189 127.898 45.6491C127.558 45.7794 127.156 45.8445 126.69 45.8445Z" fill="#57758F"/>
<path d="M132.12 38.6699H133.327L133.222 41.3067C133.197 41.9751 133.12 42.5523 132.994 43.0384C132.868 43.5245 132.707 43.9391 132.511 44.2819C132.315 44.6205 132.096 44.9048 131.851 45.1348C131.613 45.3648 131.365 45.5579 131.108 45.7142H130.507L130.54 44.7312L130.788 44.7246C130.932 44.5553 131.071 44.3817 131.206 44.2038C131.341 44.0215 131.465 43.8067 131.577 43.5593C131.691 43.3075 131.785 43.0015 131.858 42.6413C131.936 42.2767 131.987 41.8318 132.009 41.3067L132.12 38.6699ZM132.42 38.6699H136.668V45.7142H135.461V39.7833H132.42V38.6699ZM130.233 44.7246H137.576V47.7911H136.368V45.7142H131.441V47.7911H130.227L130.233 44.7246Z" fill="#57758F"/>
<path d="M140.219 43.8067L143.475 38.6699H144.69V45.7142H143.475V40.5774L140.219 45.7142H139.018V38.6699H140.219V43.8067Z" fill="#57758F"/>
<path d="M146.732 45.7142V38.6699H147.94V44.7246H151.19V38.6699H152.404V45.7142H146.732ZM153.24 44.7246L153.122 47.804H152.045V45.7142H151.125V44.7246H153.24Z" fill="#57758F"/>
<path d="M155.857 43.8067L159.114 38.6699H160.328V45.7142H159.114V40.5774L155.857 45.7142H154.656V38.6699H155.857V43.8067Z" fill="#57758F"/>
<path d="M167.055 41.7234V42.6999H163.322V41.7234H167.055ZM163.577 38.6699V45.7142H162.369V38.6699H163.577ZM168.034 38.6699V45.7142H166.82V38.6699H168.034Z" fill="#57758F"/>
<path d="M172.805 44.8549C173.092 44.8549 173.358 44.7963 173.601 44.6791C173.845 44.5619 174.045 44.4013 174.202 44.1973C174.358 43.989 174.447 43.7525 174.469 43.4877H175.618C175.596 43.9044 175.454 44.2928 175.194 44.653C174.937 45.0089 174.6 45.2976 174.182 45.5189C173.765 45.736 173.305 45.8445 172.805 45.8445C172.274 45.8445 171.811 45.7511 171.415 45.5646C171.024 45.3779 170.697 45.1218 170.436 44.7963C170.18 44.4707 169.986 44.0975 169.855 43.6766C169.729 43.2511 169.666 42.802 169.666 42.3288V42.0554C169.666 41.5824 169.729 41.1353 169.855 40.7143C169.986 40.2889 170.18 39.9135 170.436 39.588C170.697 39.2625 171.024 39.0064 171.415 38.8197C171.811 38.6331 172.274 38.5398 172.805 38.5398C173.358 38.5398 173.841 38.6527 174.254 38.8784C174.667 39.0997 174.991 39.4035 175.226 39.7898C175.466 40.1717 175.596 40.6058 175.618 41.0919H174.469C174.447 40.801 174.365 40.5385 174.221 40.3041C174.083 40.0697 173.891 39.8831 173.647 39.7442C173.408 39.601 173.127 39.5294 172.805 39.5294C172.436 39.5294 172.124 39.6031 171.871 39.7507C171.624 39.894 171.426 40.0893 171.278 40.3367C171.134 40.5797 171.03 40.851 170.964 41.1505C170.903 41.4456 170.874 41.7472 170.874 42.0554V42.3288C170.874 42.637 170.903 42.9408 170.964 43.2403C171.026 43.5398 171.128 43.811 171.272 44.0541C171.419 44.2971 171.617 44.4925 171.866 44.6401C172.118 44.7833 172.431 44.8549 172.805 44.8549Z" fill="#57758F"/>
<path d="M178.288 38.6699V45.7142H177.08V38.6699H178.288ZM182.922 38.6699L179.574 42.7064H177.883L177.701 41.6517H179.084L181.454 38.6699H182.922ZM181.623 45.7142L179.026 42.5241L179.802 41.6517L183.157 45.7142H181.623Z" fill="#57758F"/>
<path d="M185.514 43.8067L188.77 38.6699H189.984V45.7142H188.77V40.5774L185.514 45.7142H184.312V38.6699H185.514V43.8067Z" fill="#57758F"/>
<path d="M192.737 38.6699L194.284 41.2351L195.85 38.6699H197.266L194.956 42.1465L197.338 45.7142H195.941L194.309 43.071L192.678 45.7142H191.275L193.651 42.1465L191.347 38.6699H192.737Z" fill="#57758F"/>
<path d="M201.973 45.7142V38.6699H203.179V44.7246H206.43V38.6699H207.644V45.7142H201.973ZM208.479 44.7246L208.362 47.804H207.285V45.7142H206.364V44.7246H208.479Z" fill="#57758F"/>
<path d="M212.721 45.8445C212.229 45.8445 211.782 45.762 211.382 45.5971C210.986 45.4278 210.645 45.1912 210.358 44.8874C210.075 44.5836 209.857 44.2234 209.705 43.8067C209.553 43.3901 209.477 42.9344 209.477 42.4395V42.1661C209.477 41.5932 209.562 41.0832 209.731 40.6362C209.9 40.1847 210.132 39.8028 210.423 39.4903C210.715 39.1778 211.045 38.9412 211.415 38.7807C211.785 38.6201 212.168 38.5398 212.563 38.5398C213.068 38.5398 213.504 38.6266 213.869 38.8002C214.239 38.9738 214.541 39.2168 214.776 39.5294C215.011 39.8375 215.185 40.2021 215.298 40.6231C215.411 41.0398 215.467 41.4955 215.467 41.9903V42.5307H210.195V41.5476H214.261V41.4565C214.243 41.144 214.178 40.8402 214.065 40.545C213.956 40.2499 213.782 40.0068 213.543 39.8158C213.303 39.6248 212.977 39.5294 212.563 39.5294C212.289 39.5294 212.037 39.588 211.807 39.7051C211.576 39.818 211.378 39.9873 211.212 40.2129C211.047 40.4387 210.919 40.7143 210.827 41.0398C210.736 41.3653 210.691 41.7407 210.691 42.1661V42.4395C210.691 42.7737 210.736 43.0884 210.827 43.3835C210.923 43.6744 211.06 43.9305 211.239 44.1518C211.421 44.3731 211.641 44.5467 211.898 44.6726C212.159 44.7985 212.455 44.8614 212.786 44.8614C213.212 44.8614 213.573 44.7746 213.869 44.601C214.165 44.4274 214.424 44.1951 214.645 43.9044L215.377 44.4838C215.224 44.7138 215.03 44.933 214.795 45.1413C214.56 45.3497 214.271 45.5189 213.927 45.6491C213.589 45.7794 213.186 45.8445 212.721 45.8445Z" fill="#57758F"/>
<path d="M221.669 41.7234V42.6999H217.935V41.7234H221.669ZM218.19 38.6699V45.7142H216.982V38.6699H218.19ZM222.648 38.6699V45.7142H221.434V38.6699H222.648Z" fill="#57758F"/>
<path d="M227.471 38.6699V45.7142H226.256V38.6699H227.471ZM229.839 38.6699V39.6465H223.934V38.6699H229.839Z" fill="#57758F"/>
<path d="M232.235 40.0242V48.4227H231.021V38.67H232.131L232.235 40.0242ZM236.992 42.1335V42.2703C236.992 42.7824 236.932 43.2577 236.81 43.6961C236.688 44.1301 236.51 44.5077 236.274 44.8288C236.044 45.1501 235.759 45.3996 235.42 45.5775C235.08 45.7555 234.691 45.8445 234.251 45.8445C233.804 45.8445 233.407 45.7707 233.064 45.6231C232.72 45.4755 232.429 45.2607 232.189 44.9786C231.949 44.6965 231.759 44.3579 231.615 43.9629C231.476 43.568 231.38 43.1231 231.328 42.6284V41.8991C231.38 41.3784 231.478 40.9118 231.621 40.4994C231.765 40.0871 231.954 39.7355 232.189 39.4447C232.429 39.1496 232.718 38.9261 233.057 38.7742C233.397 38.6179 233.788 38.5398 234.232 38.5398C234.676 38.5398 235.069 38.6266 235.413 38.8002C235.757 38.9695 236.046 39.2126 236.281 39.5294C236.516 39.8462 236.693 40.226 236.81 40.6687C236.932 41.107 236.992 41.5953 236.992 42.1335ZM235.779 42.2703V42.1335C235.779 41.782 235.742 41.4521 235.668 41.144C235.594 40.8314 235.478 40.558 235.322 40.3236C235.17 40.0849 234.974 39.8983 234.734 39.7638C234.496 39.6248 234.21 39.5554 233.88 39.5554C233.575 39.5554 233.31 39.6075 233.084 39.7117C232.861 39.8158 232.672 39.9569 232.516 40.1348C232.359 40.3085 232.23 40.5081 232.131 40.7338C232.034 40.9551 231.963 41.1852 231.915 41.4239V43.1101C232.002 43.4139 232.124 43.7004 232.281 43.9695C232.437 44.2343 232.646 44.449 232.907 44.614C233.169 44.7746 233.497 44.8549 233.892 44.8549C234.219 44.8549 234.5 44.7876 234.734 44.653C234.974 44.5142 235.17 44.3254 235.322 44.0867C235.478 43.848 235.594 43.5746 235.668 43.2664C235.742 42.9539 235.779 42.6218 235.779 42.2703Z" fill="#57758F"/>
<path d="M238.213 42.2703V42.1206C238.213 41.6127 238.286 41.1418 238.434 40.7078C238.582 40.2694 238.795 39.8896 239.074 39.5685C239.353 39.2429 239.69 38.9912 240.086 38.8132C240.481 38.6309 240.925 38.5398 241.417 38.5398C241.913 38.5398 242.359 38.6309 242.755 38.8132C243.155 38.9912 243.494 39.2429 243.773 39.5685C244.056 39.8896 244.272 40.2694 244.42 40.7078C244.567 41.1418 244.641 41.6127 244.641 42.1206V42.2703C244.641 42.7781 244.567 43.249 244.42 43.683C244.272 44.117 244.056 44.4968 243.773 44.8224C243.494 45.1435 243.157 45.3952 242.761 45.5775C242.37 45.7555 241.926 45.8445 241.43 45.8445C240.934 45.8445 240.488 45.7555 240.092 45.5775C239.697 45.3952 239.357 45.1435 239.074 44.8224C238.795 44.4968 238.582 44.117 238.434 43.683C238.286 43.249 238.213 42.7781 238.213 42.2703ZM239.42 42.1206V42.2703C239.42 42.6218 239.462 42.9539 239.544 43.2664C239.627 43.5746 239.751 43.848 239.916 44.0867C240.086 44.3254 240.297 44.5142 240.549 44.653C240.801 44.7876 241.095 44.8549 241.43 44.8549C241.761 44.8549 242.05 44.7876 242.298 44.653C242.55 44.5142 242.759 44.3254 242.924 44.0867C243.09 43.848 243.214 43.5746 243.297 43.2664C243.384 42.9539 243.428 42.6218 243.428 42.2703V42.1206C243.428 41.7733 243.384 41.4456 243.297 41.1374C243.214 40.8249 243.088 40.5493 242.918 40.3107C242.753 40.0676 242.544 39.8766 242.291 39.7377C242.043 39.5988 241.752 39.5294 241.417 39.5294C241.087 39.5294 240.794 39.5988 240.542 39.7377C240.294 39.8766 240.086 40.0676 239.916 40.3107C239.751 40.5493 239.627 40.8249 239.544 41.1374C239.462 41.4456 239.42 41.7733 239.42 42.1206Z" fill="#57758F"/>
<path d="M249.471 42.6153H247.154L247.14 41.6517H249.033C249.408 41.6517 249.718 41.6148 249.966 41.5411C250.219 41.4673 250.408 41.3566 250.534 41.209C250.66 41.0614 250.723 40.8792 250.723 40.6621C250.723 40.4929 250.686 40.3453 250.612 40.2194C250.543 40.0893 250.436 39.9829 250.293 39.9004C250.149 39.8136 249.971 39.7507 249.757 39.7116C249.549 39.6682 249.303 39.6465 249.02 39.6465H247.473V45.7142H246.266V38.6699H249.02C249.468 38.6699 249.871 38.709 250.228 38.7872C250.589 38.8653 250.895 38.9846 251.148 39.1452C251.404 39.3014 251.601 39.5011 251.735 39.7441C251.87 39.9873 251.938 40.2736 251.938 40.6035C251.938 40.8162 251.894 41.018 251.807 41.209C251.72 41.4 251.591 41.5693 251.422 41.7168C251.252 41.8644 251.043 41.9859 250.795 42.0814C250.548 42.1725 250.262 42.2312 249.94 42.2572L249.471 42.6153ZM249.471 45.7142H246.716L247.317 44.7376H249.471C249.806 44.7376 250.084 44.6964 250.306 44.6139C250.527 44.5272 250.693 44.4056 250.801 44.2493C250.915 44.0888 250.971 43.8978 250.971 43.6765C250.971 43.4551 250.915 43.2663 250.801 43.11C250.693 42.9494 250.527 42.8279 250.306 42.7454C250.084 42.6587 249.806 42.6153 249.471 42.6153H247.637L247.649 41.6517H249.94L250.378 42.0163C250.765 42.0467 251.094 42.1421 251.363 42.3028C251.633 42.4633 251.837 42.6674 251.977 42.9147C252.116 43.1578 252.185 43.4226 252.185 43.709C252.185 44.0389 252.122 44.3296 251.996 44.5814C251.875 44.8332 251.696 45.0436 251.461 45.2129C251.226 45.3778 250.941 45.5037 250.606 45.5905C250.271 45.673 249.893 45.7142 249.471 45.7142Z" fill="#57758F"/>
<path d="M139.393 28.1018V11.7095H143.289L147.609 18.6411L151.928 11.7095H155.825V28.1018H152.234V17.3999L147.609 24.4018H147.515L142.937 17.4701V28.1018H139.393Z" fill="#F35150"/>
<path d="M159.773 28.1018V11.7095H172.168V14.9177H163.365V18.2429H171.112V21.4512H163.365V24.8935H172.285V28.1018H159.773Z" fill="#F35150"/>
<path d="M175.498 28.1018V11.7095H181.907C184.473 11.7095 186.571 12.49 188.199 14.0512C189.825 15.5967 190.64 17.5482 190.64 19.9056C190.64 22.2473 189.818 24.1988 188.175 25.7599C186.547 27.3211 184.458 28.1018 181.907 28.1018H175.498ZM179.114 24.8467H181.907C183.394 24.8467 184.591 24.394 185.499 23.4884C186.407 22.5674 186.86 21.3731 186.86 19.9056C186.86 18.4537 186.398 17.2672 185.475 16.3461C184.568 15.425 183.378 14.9645 181.907 14.9645H179.114V24.8467Z" fill="#F35150"/>
<path d="M89.5777 28.3828C87.168 28.3828 85.1567 27.5708 83.5447 25.9473C81.9486 24.3081 81.1504 22.2942 81.1504 19.9056C81.1504 17.5327 81.9564 15.5266 83.5683 13.8873C85.1803 12.2481 87.2302 11.4285 89.7185 11.4285C91.1428 11.4285 92.34 11.6627 93.3104 12.131C94.2809 12.5837 95.2041 13.2394 96.0803 14.098L93.9206 16.5803C93.2164 15.9402 92.5512 15.4797 91.9252 15.1987C91.3151 14.9021 90.5717 14.7537 89.6954 14.7537C88.3178 14.7537 87.1757 15.2533 86.268 16.2525C85.3761 17.236 84.9299 18.4537 84.9299 19.9056C84.9299 21.3419 85.3761 22.5595 86.268 23.5588C87.1757 24.5579 88.3178 25.0574 89.6954 25.0574C90.5717 25.0574 91.3305 24.9013 91.9725 24.5891C92.614 24.2768 93.2945 23.7928 94.0146 23.1371L96.3151 25.5961C95.423 26.5484 94.453 27.2508 93.4045 27.7036C92.3714 28.1564 91.0961 28.3828 89.5777 28.3828Z" fill="#009CD6"/>
<path d="M99.375 28.1018V11.7095H102.991V28.1018H99.375Z" fill="#009CD6"/>
<path d="M110.923 28.1018V15.0348H105.922V11.7095H119.538V15.0348H114.537V28.1018H110.923Z" fill="#009CD6"/>
<path d="M126.943 28.1018V21.6385L120.629 11.7095H124.854L128.775 18.2899L132.765 11.7095H136.873L130.558 21.5682V28.1018H126.943Z" fill="#009CD6"/>
</svg>
