<svg width="342" height="333" viewBox="0 0 342 333" fill="none" xmlns="http://www.w3.org/2000/svg">
<g clip-path="url(#clip0_1_154)">
<path d="M97.5011 60.6258V34.4402C87.9719 29.7127 70.5947 23.5743 49.8449 27.6595C39.3387 29.7653 19.6711 35.9459 6.39125 54.4347C-8.02326 74.4398 -6.00607 97.6036 -5.0395 108.67C-3.69471 124.2 1.08563 145.173 41.1038 197.892C58.9267 221.336 78.1127 243.707 98.5622 264.888L97.5116 196.26L123.777 216.423V326.198L103.185 306.551C73.1308 277.897 45.398 246.893 20.2489 213.833C-19.5591 161.409 -29.1302 134.781 -31.1684 110.954C-32.3136 97.8036 -34.9717 67.0063 -14.8943 39.0519C3.65966 13.2349 30.4925 4.64321 44.8335 1.82144C79.7666 -5.04346 107.387 9.19172 117.641 15.5091L123.809 19.3943V49.3808C123.809 59.6782 123.809 69.9755 123.809 80.2729L117.768 75.9771L97.5011 60.6258Z" fill="white" fill-opacity="0.35"/>
<path d="M311.783 176.982L310.313 179.087C298.346 195.934 281.946 218.876 247.885 261.582C241.854 269.152 236.706 275.522 233.355 279.66L231.127 282.419L213.204 268.963L212.962 268.689L212.668 268.384L210.567 266.057L212.531 263.614C216.02 259.287 221.126 252.938 227.24 245.241C260.755 203.315 276.924 180.604 288.733 164.02L290.351 161.736C300.857 146.995 318.465 122.273 315.303 93.7816C312.151 65.6797 293.103 47.7068 292.295 46.9592C290.353 45.2252 288.307 43.6113 286.169 42.1264L229.552 121.747L226.536 119.451C221.5 115.633 216.475 111.804 211.46 107.964L171.673 77.6406C171.851 109.091 171.936 140.867 171.936 172.222C171.936 222.762 171.694 274.427 171.221 325.735L171.158 333.032L144.893 313.248L145.334 24.1429L151.249 28.7019L223.416 84.4213L223.668 84.6214L278.038 8.15991L287.976 12.8769C295.77 16.5753 303.006 21.353 309.472 27.07C311.288 28.6475 312.984 30.3579 314.547 32.187C318.094 36.0714 321.349 40.2136 324.286 44.5797C333.612 58.3916 339.502 74.241 341.464 90.8019C345.75 129.348 323.687 160.335 311.783 176.982Z" fill="white" fill-opacity="0.35"/>
<path d="M299.67 181.541V189.016H247.296L239.973 215.518L223.888 166.189L219.203 193.302H199.609L193.063 219.308L179.731 190.038L177.535 198.734H152.572V191.269H172.082L177.798 168.537L191.141 197.808L194.145 185.836H213.288L221.766 136.677L239.417 190.796L241.97 181.541H299.67Z" fill="white" fill-opacity="0.35"/>
</g>
<defs>
<clipPath id="clip0_1_154">
<rect width="374" height="333" fill="white" transform="translate(-32)"/>
</clipPath>
</defs>
</svg>
