<?xml version="1.0" encoding="utf-8"?><svg viewBox="0 0 140 37" xmlns="http://www.w3.org/2000/svg" xmlns:xlink="http://www.w3.org/1999/xlink"><style>:root>svg{display:none}:root>svg:target{display:block}</style><svg fill="none" viewBox="0 0 10 6" id="icon-arrow-down-s" xmlns="http://www.w3.org/2000/svg"><path fill-rule="evenodd" clip-rule="evenodd" d="M.47.22a.75.75 0 011.06 0L5 3.69 8.47.22a.75.75 0 111.06 1.06l-4 4a.75.75 0 01-1.06 0l-4-4a.75.75 0 010-1.06z" fill="#0E3F60"/></svg><svg viewBox="0 0 34 19" id="icon-call-time" xmlns="http://www.w3.org/2000/svg"><path fill-rule="evenodd" clip-rule="evenodd" d="M4.941 1.102C4.558.728 4.105.5 3.611.5c-.494 0-.948.225-1.333.593-.52.499-1.025 1.01-1.523 1.52H.753c-.348.36-.582.815-.672 1.308-.191.974-.017 1.898.248 2.75.454 1.457 1.138 2.804 1.988 4.057 1.95 2.87 4.454 5.13 7.584 6.678.785.387 1.619.737 2.522.924.229.047.466.084.69.118.098.016.194.03.285.046l.038.006h.797l.058-.014.08-.022h.003a.172.172 0 01.036-.009c.5-.082 1.012-.265 1.423-.667a38.204 38.204 0 001.722-1.756c.459-.506.58-1.176.282-1.822l-.004-.009a2.655 2.655 0 00-.515-.718c-.53-.543-1.07-1.08-1.606-1.612l-.478-.476a4.142 4.142 0 00-.294-.263c-.598-.489-1.36-.56-2.031-.153l-.008.005a2.87 2.87 0 00-.509.41c-.342.337-.68.678-1.019 1.02-.172.188-.274.156-.443.103a2.52 2.52 0 00-.028-.01 8.587 8.587 0 01-.64-.353c-1.11-.781-1.663-1.271-2.507-2.25-1.751-1.896-2.078-2.342-1.596-2.896l.233-.202.44-.437.28-.28c.275-.277.568-.645.644-1.158.106-.693-.214-1.22-.597-1.608l-.035-.036c-.72-.73-1.444-1.465-2.183-2.185zm-2.007.676c.258-.248.488-.33.675-.33.099 0 .21.023.33.082.106.053.22.133.341.25.732.714 1.45 1.443 2.172 2.175l.032.033c.27.275.379.518.335.801v.002c-.032.215-.155.404-.379.629l-.087.087c-.208.21-.416.416-.624.623a568.807 568.807 0 00-.54.538l-.007.007c-.094.093-.26.26-.302.5-.039.23.055.44.106.555l.006.015C5.5 8.88 6.27 9.814 7.058 10.669c.064.07.129.138.194.207.75.786 1.573 1.494 2.506 2.08.241.152.509.29.754.417l.305.16a.74.74 0 00.58.065.923.923 0 00.373-.24h.002l.276-.28c.338-.34.673-.678 1.012-1.012l.005-.005a1.93 1.93 0 01.338-.274c.316-.19.64-.165.937.078.082.067.158.134.226.202l.48.477.002.003c.536.532 1.069 1.062 1.594 1.601l.007.006c.135.133.246.289.33.459.13.286.085.549-.126.782a37.6 37.6 0 01-1.68 1.713l-.001.001c-.226.221-.532.348-.916.41a1.66 1.66 0 00-.144.033h-.598l-.284-.045c-.211-.033-.41-.063-.616-.106-.79-.163-1.54-.473-2.293-.845-2.974-1.47-5.356-3.616-7.22-6.36-.806-1.187-1.445-2.45-1.867-3.807C.989 5.602.863 4.853 1.01 4.1l.002-.007c.055-.308.202-.593.42-.819l1.5-1.496z"/><path d="M17.956 7.196v1.016h-4.814v-.87l2.31-2.494c.24-.274.43-.511.57-.713.14-.202.24-.384.298-.547a1.356 1.356 0 00-.024-1.045.877.877 0 00-.342-.386 1.007 1.007 0 00-.542-.136 1.09 1.09 0 00-.61.166 1.032 1.032 0 00-.381.449 1.62 1.62 0 00-.127.659H13c0-.42.098-.802.293-1.148.195-.348.475-.626.84-.834.364-.209.797-.313 1.299-.313.488 0 .901.081 1.24.244.338.16.596.388.771.684.176.296.264.65.264 1.06 0 .227-.037.452-.112.673-.075.221-.18.441-.318.66a5.72 5.72 0 01-.478.654c-.186.221-.392.447-.62.678l-1.387 1.543h3.164zm5.835-1.576v1.015h-5.122l-.054-.781 3.013-4.751h1.03l-1.113 1.89-1.616 2.626h3.862zm-.845-4.517v7.109h-1.294v-7.11h1.294zm4.746 0l-2.685 7.72h-.982l2.686-7.72h.981zm5.459 0v.703l-2.793 6.406h-1.362l2.793-6.094h-3.613V1.103h4.975z"/></svg><svg viewBox="0 0 20 19" id="icon-cart" xmlns="http://www.w3.org/2000/svg"><path d="M19.76 3.568a.638.638 0 00-.495-.273l-12.33-.531a.637.637 0 10-.055 1.274l11.495.496-2.26 7.05H6.058L4.241 1.693a.638.638 0 00-.394-.479L.871.044a.638.638 0 00-.466 1.187l2.646 1.04L4.9 12.338c.055.302.32.522.627.522h.307l-.7 1.946a.53.53 0 00.5.71h.49a1.902 1.902 0 00-.49 1.276c0 1.055.858 1.913 1.912 1.913a1.915 1.915 0 001.913-1.913c0-.49-.187-.936-.49-1.275h4.17a1.901 1.901 0 00-.491 1.275c0 1.055.858 1.913 1.913 1.913a1.915 1.915 0 001.913-1.913c0-.49-.187-.936-.491-1.275h.597a.531.531 0 100-1.063H6.39l.573-1.594h9.617c.277 0 .523-.18.607-.443l2.657-8.29a.636.636 0 00-.084-.56zM7.546 17.643a.851.851 0 11.002-1.702.851.851 0 01-.002 1.702zm7.015 0a.851.851 0 11.002-1.702.851.851 0 01-.002 1.702z"/></svg><svg viewBox="0 0 16 16" id="icon-close" xmlns="http://www.w3.org/2000/svg"><path d="M.819 16a.82.82 0 01-.578-1.398L14.603.24a.818.818 0 111.157 1.157L1.396 15.76A.811.811 0 01.82 16z"/><path d="M15.18 16a.811.811 0 01-.577-.24L.24 1.398A.818.818 0 111.397.24l14.362 14.362A.82.82 0 0115.18 16z"/></svg><svg viewBox="0 0 16 20" id="icon-doc" xmlns="http://www.w3.org/2000/svg"><path d="M9.96 0c.716.119 1.218.562 1.718 1.027a262.04 262.04 0 003.32 3.034 2.28 2.28 0 01.794 1.787c-.006 3.977-.008 7.954-.004 11.93 0 1.07-.668 1.914-1.714 2.158-.19.042-.385.063-.58.06-3.728.005-7.457.005-11.185 0-1.341 0-2.3-.932-2.3-2.233 0-5.168.007-10.336-.007-15.504C-.001.974.962.134 1.899.025c.017 0 .034-.018.051-.027L9.96 0zm-.486 1.172H2.341c-.709 0-1.12.394-1.12 1.075v15.506c0 .678.412 1.075 1.121 1.075H13.45c.717 0 1.124-.395 1.124-1.092V5.859h-3.545c-.977 0-1.553-.56-1.553-1.509V1.401l-.001-.23zm1.214.574v2.707c0 .19.117.238.29.238.93-.003 1.86 0 2.79 0 .03 0 .06-.005.131-.01l-3.211-2.935z"/><path d="M7.778 8.984H3.37c-.474 0-.78-.408-.605-.805.108-.245.312-.365.59-.365h8.813c.486 0 .798.412.613.814-.117.253-.333.359-.617.358a1055.92 1055.92 0 00-3.639 0l-.747-.002zm.017 1.953h4.387c.474 0 .778.41.601.808-.108.246-.315.363-.591.365H3.458a1.286 1.286 0 01-.262-.015.611.611 0 01-.364-.229.573.573 0 01-.113-.405c.036-.302.293-.522.628-.522 1.483-.002 2.965-.003 4.447-.002zm-3.014 3.125h1.416c.394 0 .672.238.679.577.007.338-.278.596-.68.596h-2.81c-.392 0-.666-.245-.665-.586 0-.341.274-.583.667-.585.463-.003.928-.002 1.393-.002z"/></svg><svg viewBox="0 0 12 12" id="icon-hot" xmlns="http://www.w3.org/2000/svg"><path d="M10.474 7.026c-.137-1.79-.97-2.911-1.705-3.901C8.088 2.209 7.5 1.418 7.5.25a.25.25 0 00-.396-.203C6 .837 5.08 2.17 4.758 3.44c-.224.884-.253 1.879-.258 2.535-1.019-.217-1.25-1.742-1.252-1.759a.251.251 0 00-.357-.19c-.054.026-1.312.666-1.386 3.22A4.505 4.505 0 006 12h.013A4.505 4.505 0 0010.5 7.5c0-.125-.026-.474-.026-.474zM6 11.5c-.827 0-1.5-.717-1.5-1.598 0-.03 0-.06.002-.098.01-.371.08-.625.158-.793.145.311.404.597.825.597a.25.25 0 00.25-.25c0-.355.008-.766.096-1.137.08-.328.268-.678.506-.958.107.364.314.658.516.945.29.411.588.837.64 1.561.004.043.007.086.007.133 0 .88-.673 1.598-1.5 1.598z"/></svg><svg viewBox="0 0 22 14" id="icon-mobile-menu" xmlns="http://www.w3.org/2000/svg"><rect width="22" height="2" rx="1"/><rect y="6" width="22" height="2" rx="1"/><rect y="12" width="22" height="2" rx="1"/></svg><svg viewBox="0 0 16 20" id="icon-pin" xmlns="http://www.w3.org/2000/svg"><path d="M0 8.2C.005 4.072 2.857.727 6.741.101c4.289-.69 8.382 2.21 9.124 6.487.43 2.477-.172 4.697-1.797 6.615-1.847 2.176-3.718 4.331-5.58 6.494-.35.406-.624.404-.977-.008-1.883-2.187-3.775-4.367-5.644-6.567A7.689 7.689 0 010 8.2zm8.005 10.522l.234-.26c1.682-1.956 3.37-3.904 5.044-5.867 1.393-1.633 1.958-3.534 1.627-5.65-.606-3.895-4.2-6.494-8.07-5.822-2.641.457-4.492 1.994-5.403 4.507-.912 2.513-.462 4.868 1.254 6.924 1.677 2.01 3.41 3.976 5.12 5.96l.194.208z"/><path d="M11.502 8.009a3.52 3.52 0 01-2.197 3.238c-.428.173-.887.26-1.35.255-1.917-.023-3.478-1.62-3.457-3.532a3.522 3.522 0 011.06-2.467 3.512 3.512 0 012.487-1c1.912.025 3.478 1.613 3.457 3.506zm-3.523 2.487a2.488 2.488 0 002.312-1.524 2.498 2.498 0 00-1.79-3.414A2.488 2.488 0 005.936 6.6c-.276.408-.426.89-.43 1.383a2.49 2.49 0 001.52 2.319c.302.127.626.193.953.195z"/></svg><svg viewBox="0 0 16 16" id="icon-profile" xmlns="http://www.w3.org/2000/svg"><path d="M14.75 16c-.013-1.605-.512-3.04-1.536-4.273-1.135-1.37-2.59-2.203-4.367-2.417-2.053-.247-3.86.328-5.393 1.72-1.257 1.14-1.97 2.569-2.165 4.253-.028.237-.027.478-.04.717H0v-.47c.04-.308.072-.617.125-.924.295-1.683 1.062-3.12 2.277-4.318a7.844 7.844 0 012.853-1.805c.033-.012.064-.03.11-.05-1.303-.981-2.004-2.264-1.983-3.895.016-1.255.488-2.337 1.385-3.212 1.89-1.846 4.788-1.71 6.532.06 1.943 1.97 1.764 5.369-.631 7.028C14 9.844 15.873 12.304 16 16h-1.25zM8.003 1.249a3.385 3.385 0 00-3.378 3.364c-.01 1.856 1.513 3.383 3.372 3.386a3.385 3.385 0 003.378-3.365c.01-1.857-1.512-3.383-3.372-3.385z"/></svg><svg viewBox="0 0 16 16" id="icon-search" xmlns="http://www.w3.org/2000/svg"><path d="M15.804 14.864l-3.846-3.846A6.745 6.745 0 006.743 0a6.743 6.743 0 104.271 11.962l3.846 3.843a.666.666 0 10.944-.941zm-9.06-2.72a5.408 5.408 0 01-5.405-5.4 5.411 5.411 0 015.404-5.405 5.413 5.413 0 015.405 5.404 5.41 5.41 0 01-5.405 5.401z"/></svg><svg fill="none" viewBox="0 0 140 37" id="logo-header" xmlns="http://www.w3.org/2000/svg"><path d="M14.234 6.675V3.792c-1.047-.52-2.958-1.196-5.238-.746-1.155.231-3.317.912-4.777 2.948-1.584 2.202-1.363 4.753-1.256 5.972.147 1.71.673 4.019 5.072 9.824a82.52 82.52 0 006.316 7.377l-.116-7.557 2.887 2.22v12.087l-2.263-2.163a86.228 86.228 0 01-9.117-10.209C1.367 17.773.314 14.841.09 12.217-.036 10.77-.328 7.378 1.88 4.3 3.918 1.457 6.867.51 8.444.2c3.84-.755 6.876.812 8.003 1.508l.678.427V8.84l-.664-.473-2.228-1.69z" fill="#009CD5"/><path d="M37.79 19.487l-.161.232c-1.316 1.855-3.118 4.381-6.863 9.084-.662.833-1.228 1.535-1.597 1.99l-.245.304-1.97-1.482-.026-.03-.033-.034-.23-.256.215-.269c.384-.476.945-1.175 1.617-2.023 3.684-4.616 5.462-7.117 6.76-8.943l.177-.251c1.155-1.623 3.09-4.346 2.743-7.483-.346-3.094-2.44-5.073-2.529-5.155a7.063 7.063 0 00-.673-.533l-6.224 8.767-.331-.252c-.554-.42-1.106-.842-1.658-1.265l-4.373-3.34a1847.295 1847.295 0 01-.05 27.319l-.006.803-2.888-2.178.049-31.834.65.502 7.933 6.136.027.022 5.977-8.42 1.092.52c.857.407 1.652.933 2.363 1.563.2.173.386.362.558.563.39.428.748.884 1.07 1.365a11.527 11.527 0 011.889 5.09c.471 4.243-1.954 7.655-3.263 9.488z" fill="#F35250"/><path d="M36.458 19.99v.822h-5.757l-.805 2.918-1.768-5.431-.515 2.985H25.46l-.72 2.864-1.465-3.223-.241.957H20.29v-.822h2.145l.628-2.502 1.467 3.223.33-1.319h2.104l.932-5.413 1.94 5.96.28-1.02h6.343z" fill="#F35250"/><path d="M59.384 20.419h2.59c-.083.991-.36 1.875-.83 2.651-.469.77-1.128 1.376-1.978 1.82-.849.444-1.881.665-3.096.665-.933 0-1.772-.166-2.517-.499a5.52 5.52 0 01-1.916-1.435c-.532-.623-.94-1.376-1.223-2.256-.276-.88-.414-1.865-.414-2.953v-1.258c0-1.088.142-2.073.425-2.953.29-.88.704-1.633 1.243-2.257a5.375 5.375 0 011.936-1.445c.76-.333 1.613-.499 2.559-.499 1.201 0 2.216.222 3.045.665a4.797 4.797 0 011.926 1.84c.463.784.746 1.682.85 2.694h-2.59c-.069-.652-.22-1.21-.455-1.674a2.355 2.355 0 00-1.016-1.06c-.448-.25-1.035-.375-1.76-.375-.594 0-1.112.11-1.554.333a2.938 2.938 0 00-1.108.977c-.297.43-.521.96-.673 1.591-.145.624-.218 1.338-.218 2.142v1.279c0 .762.066 1.456.197 2.08.138.617.345 1.147.621 1.59.284.444.643.787 1.078 1.03.434.243.956.364 1.563.364.74 0 1.337-.118 1.792-.354a2.353 2.353 0 001.047-1.03c.241-.457.4-1.015.476-1.673zm7.726-10.211v15.14h-2.6v-15.14h2.6zm9.126 0v15.14h-2.58v-15.14h2.58zm4.733 0v2.08H68.965v-2.08h12.004zm3.594 0l3.501 7.227 3.5-7.227h2.88l-5.075 9.566v5.573h-2.62v-5.573l-5.076-9.566h2.89z" fill="#009CD6"/><path d="M98.844 10h2.344l4.404 11.14L109.986 10h2.343l-5.816 14.444h-1.863L98.844 10zm-1.067 0h2.229l.387 9.643v4.801h-2.616V10zm13.391 0h2.239v14.444h-2.626v-4.801l.387-9.643zm15.326 12.47v1.974h-8.087V22.47h8.087zM119.15 10v14.444h-2.626V10h2.626zm6.287 6.032v1.944h-7.03v-1.944h7.03zM126.441 10v1.984h-8.034V10h8.034zm6.622 14.444h-3.253l.021-1.974h3.232c.942 0 1.73-.195 2.365-.585.641-.39 1.123-.95 1.443-1.677.328-.727.492-1.594.492-2.599v-.784c0-.78-.094-1.471-.282-2.073-.182-.602-.454-1.108-.816-1.518a3.41 3.41 0 00-1.318-.932c-.517-.212-1.113-.318-1.789-.318h-3.411V10h3.411c1.011 0 1.935.162 2.772.486a6.102 6.102 0 013.578 3.542c.327.84.491 1.779.491 2.817v.764c0 1.038-.164 1.978-.491 2.817a6.086 6.086 0 01-1.413 2.163 6.361 6.361 0 01-2.197 1.38c-.843.317-1.788.475-2.835.475zM131.264 10v14.444h-2.626V10h2.626z" fill="#F35150"/></svg></svg>